<svg width="115" height="65" fill="none" xmlns="http://www.w3.org/2000/svg"><rect x="1.5" y="1" width="112" height="62.893" rx="8.115" stroke="#1D424B" stroke-width="2"/><path d="M21.354 22.146a3.51 3.51 0 01-.462.274c-.186.093-.403.18-.65.263-.247.082-.52.149-.817.199-.297.053-.612.08-.945.08-.476 0-.93-.075-1.359-.225a3.09 3.09 0 01-1.122-.688 3.338 3.338 0 01-.769-1.176c-.186-.476-.279-1.04-.279-1.692 0-.455.049-.863.145-1.225.1-.361.235-.682.403-.96.172-.284.372-.525.602-.726.229-.2.474-.363.736-.489a3.58 3.58 0 01.816-.284c.283-.061.562-.092.838-.092a5.696 5.696 0 011.697.247c.233.072.435.15.607.237.172.082.31.16.414.236l-.42.843a3.75 3.75 0 00-.365-.21 3.511 3.511 0 00-.5-.209 4.384 4.384 0 00-.622-.16 3.903 3.903 0 00-.73-.065c-.312 0-.618.05-.92.15-.3.1-.57.263-.81.489a2.483 2.483 0 00-.575.886c-.143.362-.215.806-.215 1.332 0 .473.068.888.204 1.246.14.355.33.652.57.892.24.236.52.415.843.537a2.91 2.91 0 001.037.183 4.18 4.18 0 001.176-.178c.208-.057.406-.129.596-.215.19-.085.355-.186.494-.3l.382.8zm2.739-2.632h-.51v3.309H22.54V15.54h1.042v3.351l.478-.145 3.158-3.206h1.348l-3.158 3.126-.42.349.447.413 3.426 3.395h-1.418l-3.351-3.309zm5.081 3.309l3.48-7.386h.543l3.491 7.386h-1.085l-.892-1.907h-3.625l-.892 1.907h-1.02zm4.012-5.167l-.28-.795h-.02l-.285.816-1.107 2.369h2.81l-1.118-2.39zm3.803-2.116v2.298c0 .233.029.44.086.623.057.18.145.332.263.457.122.125.277.22.467.285a2.2 2.2 0 00.693.096 3.853 3.853 0 00.924-.123 4.03 4.03 0 00.43-.145c.136-.057.252-.12.349-.188V15.54h1.042v7.283H40.2v-3.1a4.348 4.348 0 01-1.005.355 4.1 4.1 0 01-.945.113 3.75 3.75 0 01-.961-.113 1.906 1.906 0 01-.725-.37 1.695 1.695 0 01-.457-.661c-.104-.272-.156-.602-.156-.988v-2.52h1.037zm5.613 7.283l3.48-7.386h.543l3.49 7.386h-1.084l-.892-1.907h-3.625l-.892 1.907h-1.02zm4.012-5.167l-.28-.795h-.021l-.285.816-1.106 2.369h2.809l-1.117-2.39zm9.196-1.198h-2.563v6.365h-1.036v-6.365h-2.563v-.918h6.161v.918zm1.401-.918h1.042v2.776a1.85 1.85 0 01.166-.021c.076-.01.16-.02.253-.027.093-.01.19-.018.29-.021.104-.008.199-.011.285-.011.358.003.705.04 1.042.107.336.068.635.186.897.355.261.165.47.39.628.677.158.286.238.648.242 1.084 0 .42-.077.783-.231 1.09-.15.309-.362.565-.634.769-.269.2-.59.35-.961.451a4.758 4.758 0 01-1.209.145c-.107 0-.235-.004-.381-.01a11.293 11.293 0 01-.457-.022 8.172 8.172 0 01-.494-.049 6.303 6.303 0 01-.478-.08V15.54zm1.923 6.483c.258 0 .496-.031.714-.092a1.71 1.71 0 00.58-.274 1.31 1.31 0 00.387-.472c.093-.19.14-.414.14-.672 0-.283-.052-.514-.156-.693a1.093 1.093 0 00-.408-.419 1.585 1.585 0 00-.591-.21 3.992 3.992 0 00-.698-.058 2.8 2.8 0 00-.226.01 5.75 5.75 0 00-.247.027 3.356 3.356 0 00-.376.054v2.734c.097.029.218.047.365.054.15.007.322.01.516.01zm13.379 2.132H71.8l-.177-1.332h-5.538l-.161 1.332h-.725V21.91h.816c.04-.05.095-.144.167-.28.075-.14.156-.327.241-.564a11.308 11.308 0 00.494-2.052c.072-.454.128-.97.167-1.546.043-.577.06-1.22.054-1.928h4.334v6.37h1.042v2.245zM70.43 21.91v-5.452h-2.336a30.475 30.475 0 01-.134 1.977 18.657 18.657 0 01-.22 1.53c-.087.44-.183.82-.29 1.139a4.894 4.894 0 01-.334.806h3.314zm7.513-5.452h-2.288a62.048 62.048 0 01-.123 1.87 23.46 23.46 0 01-.172 1.524 9.48 9.48 0 01-.242 1.204 4.435 4.435 0 01-.349.902c-.179.333-.387.57-.623.709a1.436 1.436 0 01-.736.204 2.06 2.06 0 01-.365-.027 1.594 1.594 0 01-.28-.07l.13-.875c.078.021.16.034.247.037a.774.774 0 00.516-.21 1.22 1.22 0 00.241-.305c.104-.183.199-.426.285-.73a8.82 8.82 0 00.236-1.166c.072-.47.13-1.03.177-1.681a50.5 50.5 0 00.102-2.304h4.286v7.283h-1.042v-6.365zm8.357 6.365h-1.04v-3.1l-1.327.232-2.213 2.868h-1.208l2.025-2.54.44-.506a2.945 2.945 0 01-.585-.236 2.101 2.101 0 01-.527-.403 1.988 1.988 0 01-.376-.59 2.104 2.104 0 01-.145-.812c0-.422.08-.779.237-1.069.157-.29.372-.524.644-.703.272-.183.591-.313.956-.392a5.349 5.349 0 011.176-.124c.13 0 .276.004.44.011.166.004.336.013.511.027.18.01.355.027.527.048.171.022.327.048.467.08v7.209zm-2.008-6.483c-.24 0-.47.021-.693.064a1.79 1.79 0 00-.59.22 1.18 1.18 0 00-.414.425c-.1.179-.15.404-.15.677 0 .257.048.474.144.65.1.175.235.318.403.43.168.107.365.185.591.235.226.047.466.07.72.07h.956v-2.707a1.055 1.055 0 00-.183-.032 2.214 2.214 0 00-.236-.021 6.557 6.557 0 00-.274-.006 7.09 7.09 0 00-.274-.005zM23.189 42.986H18.24l-1.08 2.532h-2.523l5.212-11.998h1.854l5.23 11.998H24.26l-1.072-2.532zm-4.096-1.995h3.252l-1.046-2.487-.536-1.538h-.07l-.546 1.556-1.054 2.47zM34 45.518v-4.51c0-.708-.124-1.22-.37-1.537-.24-.317-.586-.475-1.037-.475-.229 0-.44.044-.633.132-.193.088-.366.2-.518.334a2.382 2.382 0 00-.396.448c-.105.158-.188.31-.246.457v5.15h-2.19v-8.226h1.723l.237 1.178h.229c.123-.182.272-.358.448-.528a3.47 3.47 0 01.598-.448c.222-.135.46-.24.712-.316a2.72 2.72 0 01.79-.114c.405 0 .78.055 1.126.166.345.106.644.294.896.563.258.264.46.621.607 1.072.146.446.22 1.008.22 1.688v4.966h-2.198zm11.935-2.883c0 .44.003.896.008 1.37.012.47.062.98.15 1.53h-1.53l-.307-1.142h-.193c-.182.24-.367.448-.554.624-.182.17-.375.31-.58.421a2.32 2.32 0 01-.677.238c-.24.052-.51.079-.809.079-.55 0-1.034-.097-1.45-.29a2.793 2.793 0 01-1.046-.835 3.73 3.73 0 01-.633-1.319 6.757 6.757 0 01-.21-1.757c0-.686.079-1.304.237-1.855a3.901 3.901 0 01.73-1.415 3.138 3.138 0 011.212-.887c.487-.212 1.058-.317 1.714-.317.363 0 .68.03.95.088.269.059.535.129.8.21v-3.963h2.188v9.22zm-3.938 1.283c.492 0 .873-.111 1.143-.334.275-.229.477-.548.606-.958V39.33c-.1-.07-.2-.132-.299-.184a1.891 1.891 0 00-.316-.132 2.14 2.14 0 00-.37-.08 3.637 3.637 0 00-.465-.026c-.393 0-.715.07-.967.211a1.6 1.6 0 00-.598.571c-.14.24-.237.519-.29.835a6.243 6.243 0 00-.079 1.011c0 .334.027.645.08.932.052.281.14.527.263.738.129.211.296.38.501.51.211.123.475.19.791.202zm8.42-6.627l.308 1.195h.202c.205-.28.41-.51.615-.685.205-.182.41-.323.615-.422.211-.106.425-.176.642-.211.217-.041.445-.062.685-.062.235 0 .484.038.747.115.27.07.53.19.783.36l-.703 2.021a3.012 3.012 0 00-.677-.343 1.831 1.831 0 00-.607-.14c-.386 0-.755.094-1.107.281-.352.188-.67.507-.958.958v5.16h-2.189V37.29h1.644zm5.106 4.122c0-.639.085-1.224.255-1.758.176-.533.431-.99.765-1.37.34-.387.756-.686 1.248-.897.498-.217 1.07-.325 1.714-.325.656 0 1.233.11 1.731.334.498.216.912.521 1.24.913.328.387.574.847.738 1.38.17.528.255 1.102.255 1.723a5.67 5.67 0 01-.255 1.732c-.164.527-.41.987-.738 1.38a3.437 3.437 0 01-1.24.913c-.498.217-1.075.326-1.731.326-.645 0-1.216-.106-1.714-.317a3.586 3.586 0 01-1.248-.896 3.999 3.999 0 01-.765-1.38 5.766 5.766 0 01-.255-1.758zm2.26 0c0 .44.04.82.122 1.143.082.316.197.577.343.782.153.2.334.349.545.448.211.094.448.14.712.14.31 0 .574-.06.791-.184.217-.129.392-.304.527-.527.14-.223.243-.487.308-.791a4.97 4.97 0 00.097-1.01c0-.364-.033-.698-.097-1.003a2.399 2.399 0 00-.308-.8 1.442 1.442 0 00-.527-.518 1.522 1.522 0 00-.791-.194c-.264 0-.501.05-.712.15a1.37 1.37 0 00-.545.448c-.146.2-.26.46-.343.782a4.566 4.566 0 00-.123 1.134zm7.611-4.122h2.197v8.227h-2.197V37.29zm-.282-2.98c0-.181.038-.348.115-.5.082-.153.19-.282.325-.387.135-.111.293-.197.474-.255a1.75 1.75 0 01.59-.097c.24 0 .456.032.65.097.193.059.357.144.492.255a1.086 1.086 0 01.44.888c0 .404-.144.714-.431.931-.287.211-.671.317-1.152.317-.21 0-.407-.027-.589-.08a1.52 1.52 0 01-.474-.246 1.222 1.222 0 01-.325-.386 1.222 1.222 0 01-.115-.536zm12.516 8.324c0 .44.003.896.009 1.37.011.47.061.98.15 1.53h-1.53l-.308-1.142h-.193a4.92 4.92 0 01-.554.624 2.78 2.78 0 01-.58.421c-.205.112-.43.19-.677.238a3.83 3.83 0 01-.808.079c-.551 0-1.034-.097-1.45-.29a2.792 2.792 0 01-1.046-.835 3.729 3.729 0 01-.633-1.319 6.752 6.752 0 01-.211-1.757c0-.686.079-1.304.237-1.855a3.904 3.904 0 01.73-1.415 3.139 3.139 0 011.213-.887c.486-.212 1.057-.317 1.713-.317.364 0 .68.03.95.088.27.059.536.129.8.21v-3.963h2.188v9.22zm-3.938 1.283c.493 0 .874-.111 1.143-.334.276-.229.478-.548.606-.958V39.33c-.1-.07-.199-.132-.298-.184a1.891 1.891 0 00-.317-.132 2.139 2.139 0 00-.369-.08 3.635 3.635 0 00-.466-.026c-.392 0-.715.07-.967.211-.251.14-.45.331-.597.571-.14.24-.237.519-.29.835a6.13 6.13 0 00-.08 1.011c0 .334.027.645.08.932a2.3 2.3 0 00.263.738c.13.211.296.38.502.51.21.123.474.19.79.202z" fill="#1D424B"/></svg>