<svg width="134" height="134" fill="none" xmlns="http://www.w3.org/2000/svg"><path d="M26.8 0h-1.954c-.283 0-.525.1-.724.3-.2.2-.3.44-.3.724v1.954H26.8V0zm1.954 0H26.8v2.978h1.954c.283 0 .525-.1.724-.3.2-.2.3-.44.3-.724v-.93c0-.283-.1-.525-.3-.724-.2-.2-.44-.3-.724-.3zm9.957 1.954c0 .283-.1.525-.3.724-.2.2-.44.3-.724.3h-.93a.987.987 0 01-.724-.3c-.2-.2-.3-.44-.3-.724v-.93c0-.283.1-.525.3-.724.2-.2.44-.3.724-.3h.93c.284 0 .525.1.725.3.2.2.3.44.3.724v.93zm14.889-.93c0-.283-.1-.525-.3-.724-.2-.2-.44-.3-.724-.3h-.93c-.283 0-.525.1-.724.3-.2.2-.3.44-.3.724v.93c0 .016.002.039.006.07h-.006v.954H53.6v-.954h-.006a.61.61 0 00.006-.07v-.93zm29.778 0c0-.283-.1-.525-.3-.724-.2-.2-.44-.3-.724-.3h-.93c-.283 0-.525.1-.725.3-.2.2-.299.44-.299.724v.93a.61.61 0 00.006.07H80.4v.954h2.978v-.954h-.006a.61.61 0 00.006-.07v-.93zM89.333 0H87.38c-.283 0-.524.1-.724.3-.2.2-.3.44-.3.724v1.954h2.978V0z" fill="#1D424B"/><path d="M92.311 0h-2.978v2.978h2.978V0zm2.978 1.024c0-.283-.1-.525-.3-.724-.2-.2-.44-.3-.724-.3h-1.954v2.978h2.978V1.024zm14.889.93c0 .283-.1.525-.3.724-.199.2-.441.3-.724.3h-.93a.985.985 0 01-.724-.3c-.2-.2-.3-.44-.3-.724v-.93c0-.283.1-.525.3-.724.199-.2.441-.3.724-.3h.93c.283 0 .525.1.724.3.2.2.3.44.3.724v.93zM26.794 3.932h.006v-.954h-2.978v.954h.006a.635.635 0 00-.006.07v.93c0 .283.1.524.3.724.2.2.44.3.724.3h.93c.283 0 .525-.1.724-.3.2-.2.3-.441.3-.724v-.93a.611.611 0 00-.006-.07zm5.962-.954H30.8c-.283 0-.524.1-.724.3-.2.199-.3.44-.3.723v1.955h2.979V2.978zm2.977 1.023c0-.283-.1-.524-.3-.724a.982.982 0 00-.723-.3h-1.954v2.979h2.977V4zm8.934-1.023h-1.955c-.283 0-.524.1-.724.3-.2.199-.3.44-.3.723v1.955h2.979V2.978zm2.977 1.023c0-.283-.1-.524-.3-.724a.982.982 0 00-.723-.3h-1.954v2.979h2.977V4zM53.6 2.978h-2.978v2.978H53.6V2.978zm2.978 0H53.6v2.978h2.978V2.978z" fill="#1D424B"/><path d="M58.532 2.978h-1.954v2.978h1.954c.283 0 .524-.1.724-.3.2-.2.3-.441.3-.724v-.93c0-.284-.1-.525-.3-.725-.2-.2-.441-.3-.724-.3zm24.846 0H80.4v2.978h2.978V2.978zm5.955 0h-2.977v2.978h2.977V2.978zm2.978 0h-2.978v2.978h2.978V2.978z" fill="#1D424B"/><path d="M95.289 2.978H92.31v2.978h2.978V2.978zm2.978 1.023c0-.283-.1-.524-.3-.724-.2-.2-.44-.3-.724-.3H95.29v2.979h2.978V4zm8.933 0c0-.283-.1-.524-.3-.724a.985.985 0 00-.724-.3h-.93c-.283 0-.525.1-.724.3-.2.2-.3.441-.3.724v.93c0 .016.002.04.006.07h-.006v.955h2.978v-.954h-.006a.597.597 0 00.006-.07v-.93zM32.756 5.956h-2.978V7.91c0 .283.1.524.3.724.199.2.44.3.723.3h1.955V5.955zm2.977 0h-2.977v2.977h2.977V5.956zm1.955 0h-1.955v2.977h1.955c.282 0 .524-.1.724-.3.2-.199.3-.44.3-.723v-.93c0-.284-.1-.525-.3-.725-.2-.2-.441-.3-.724-.3zm6.979 0h-2.978V7.91c0 .283.1.524.3.724.2.2.44.3.724.3h1.954V5.955zm2.977 0h-2.977v2.977h2.977V5.956zm2.978 0h-2.978v2.977h2.978V5.956zm2.978 0h-2.978v2.977H53.6V5.956zM68.489 6.98c0-.284-.1-.525-.3-.725-.2-.2-.44-.3-.724-.3h-.93c-.283 0-.525.1-.724.3-.2.2-.3.441-.3.724v.93c0 .016.002.04.006.07h-.006v.954h2.978V7.98h-.006a.61.61 0 00.006-.07v-.93zm5.956 0c0-.284-.1-.525-.3-.725-.2-.2-.441-.3-.724-.3h-.93c-.284 0-.525.1-.725.3-.2.2-.3.441-.3.724v.93a.61.61 0 00.007.07h-.006v.954h2.978V7.98h-.006a.593.593 0 00.006-.07v-.93zm8.933-1.024H80.4v2.977h2.978V5.956zm5.955 0h-2.977v2.977h2.977V5.956zm2.978 0h-2.978v2.977h2.978V5.956z" fill="#1D424B"/><path d="M95.289 5.956H92.31v2.977h2.978V5.956zm2.978 0h-2.978v2.977h1.954c.283 0 .525-.1.724-.3.2-.199.3-.44.3-.723V5.956zm8.933 0h-2.978v2.977h2.978V5.956zM26.8 8.933h-1.954c-.283 0-.525.1-.724.3-.2.2-.3.44-.3.724v.93c0 .284.1.525.3.725.2.2.44.3.724.3H26.8v-2.98zm2.978 1.024c0-.283-.1-.524-.3-.724-.2-.2-.44-.3-.724-.3H26.8v2.978h2.978V9.957zm5.949-.07h.006v-.954h-2.977v.954h.005a.61.61 0 00-.005.07v.93c0 .284.1.525.3.725.199.2.44.3.723.3h.93c.284 0 .525-.1.725-.3.2-.2.3-.441.3-.725v-.93a.588.588 0 00-.007-.07zm5.962 1c0 .284-.1.525-.3.725-.2.2-.44.3-.724.3h-.93a.986.986 0 01-.724-.3c-.2-.2-.3-.441-.3-.725v-.93c0-.283.1-.524.3-.724.2-.2.44-.3.724-.3h.93c.283 0 .525.1.724.3.2.2.3.44.3.724v.93zM53.6 8.933h-2.978v1.954c0 .284.1.525.3.725.2.2.44.3.724.3H53.6v-2.98zm2.978 0H53.6v2.978h2.978V8.933z" fill="#1D424B"/><path d="M59.556 8.933h-2.978v2.978h2.978V8.933zm2.977 1.024c0-.283-.1-.524-.3-.724a.982.982 0 00-.723-.3h-1.954v2.978h2.977V9.957zm5.956-1.024H65.51v2.978h2.978V8.933zm5.956 0h-2.978v2.978h2.978V8.933zm2.977 0h-2.977v2.978h2.977V8.933zm2.978 0h-2.978v2.978H80.4V8.933zm2.978 0H80.4v2.978h2.978V8.933zm5.955 0h-2.977v2.978h2.977V8.933zm5.956 0H92.31v2.978h2.978V8.933zm11.911 0h-2.978v2.978h2.978V8.933zm2.978 1.024c0-.283-.1-.524-.3-.724a.985.985 0 00-.724-.3H107.2v2.978h2.978V9.957zm-80.406 2.908h.006v-.954H26.8v.954h.006a.613.613 0 00-.006.07v.93c0 .283.1.525.3.724.2.2.44.3.724.3h.93c.283 0 .525-.1.724-.3.2-.2.3-.44.3-.724v-.93a.613.613 0 00-.006-.07zm8.939.07c0-.283-.1-.525-.3-.724-.2-.2-.44-.3-.724-.3h-.93c-.283 0-.524.1-.724.3-.2.2-.3.44-.3.724v.93c0 .016.002.04.006.07h-.006v.954h2.978v-.954h-.006a.61.61 0 00.006-.07v-.93zm5.956 0c0-.283-.1-.525-.3-.724-.2-.2-.44-.3-.724-.3h-.93c-.284 0-.525.1-.725.3-.2.2-.3.44-.3.724v.93a.61.61 0 00.007.07h-.006v.954h2.978v-.954h-.006a.61.61 0 00.006-.07v-.93z" fill="#1D424B"/><path d="M56.578 11.911H53.6v1.954c0 .283.1.525.3.724.2.2.44.3.724.3h1.954V11.91z" fill="#1D424B"/><path d="M59.556 11.911h-2.978v2.978h2.978V11.91zm2.977 0h-2.977v2.978h2.977V11.91zm2.978 0h-2.978v2.978h2.978V11.91z" fill="#1D424B"/><path d="M68.489 11.911H65.51v2.978h2.978V11.91zm2.978 0h-2.978v2.978h2.978V11.91zm2.978 0h-2.978v2.978h2.978V11.91zm2.977 0h-2.977v2.978h2.977V11.91zm2.978 0h-2.978v2.978H80.4V11.91zm2.978 0H80.4v2.978h1.954c.283 0 .525-.1.724-.3.2-.2.3-.44.3-.724v-1.954zm5.955 0h-2.977v2.978h2.977V11.91zm5.956 0H92.31v2.978h2.978V11.91zm5.955 0H99.29c-.283 0-.524.1-.724.3-.2.2-.3.44-.3.724v1.954h2.978V11.91zm2.978 0h-2.978v2.978h2.978V11.91zm2.978 0h-2.978v2.978h2.978V11.91zm2.978 0H107.2v2.978h1.954c.283 0 .525-.1.724-.3.2-.2.3-.44.3-.724v-1.954zm-77.422 2.978H30.8c-.283 0-.524.1-.724.3-.2.2-.3.44-.3.723v1.955h2.979v-2.978zm2.977 0h-2.977v2.978h2.977v-2.978zm2.978 0h-2.978v2.978h2.978v-2.978z" fill="#1D424B"/><path d="M41.689 14.889H38.71v2.978h2.978v-2.978zm2.978 0h-2.978v2.978h2.978v-2.978zm8.933 1.954c0 .283-.1.524-.3.724-.2.2-.44.3-.724.3h-.93a.986.986 0 01-.724-.3c-.2-.2-.3-.44-.3-.724v-.93c0-.284.1-.525.3-.725.2-.2.44-.3.724-.3h.93c.283 0 .525.1.724.3.2.2.3.441.3.724v.931zm5.956-1.954h-2.978v1.954c0 .283.1.524.3.724.199.2.44.3.723.3h1.955v-2.978zm2.977 0h-2.977v2.978h2.977v-2.978zm11.912 0h-2.978v2.978h2.978v-2.978zm2.977 0h-2.977v2.978h2.977v-2.978zm2.978 0h-2.978v2.978H80.4v-2.978zm8.933 0h-2.977v1.954c0 .283.1.524.3.724.199.2.44.3.723.3h1.954v-2.978zm2.978 0h-2.978v2.978h2.978v-2.978z" fill="#1D424B"/><path d="M95.289 14.889H92.31v2.978h1.954c.283 0 .525-.1.724-.3.2-.2.3-.44.3-.724V14.89zm5.95.954h.005v-.954h-2.977v.954h.005a.61.61 0 00-.005.07v.93c0 .283.1.524.3.724.199.2.44.3.723.3h.931c.283 0 .524-.1.724-.3.2-.2.299-.44.299-.724v-.93a.55.55 0 00-.005-.07zM26.8 18.89c0-.283-.1-.524-.3-.724-.2-.2-.44-.3-.724-.3h-.93c-.283 0-.525.1-.724.3-.2.2-.3.441-.3.724v.93c0 .016.002.04.006.07h-.006v.954H26.8v-.953h-.006a.61.61 0 00.006-.07v-.93zm5.95-.07h.006v-.953h-2.978v.953h.006a.61.61 0 00-.006.07v.93c0 .284.1.525.3.725.199.2.44.3.723.3h.93c.284 0 .525-.1.725-.3.2-.2.3-.441.3-.724v-.93a.61.61 0 00-.006-.07zm5.955 0h.006v-.953h-2.978v.953h.006a.635.635 0 00-.006.07v.93c0 .284.1.525.3.725.2.2.44.3.724.3h.93c.284 0 .525-.1.725-.3.2-.2.3-.441.3-.724v-.93a.61.61 0 00-.007-.07zm5.955 0h.007v-.953h-2.978v.953h.006a.61.61 0 00-.006.07v.93c0 .284.1.525.3.725.2.2.44.3.724.3h.93c.283 0 .524-.1.724-.3.2-.2.3-.441.3-.724v-.93a.61.61 0 00-.006-.07zm5.962 1c0 .284-.1.525-.3.725-.199.2-.44.3-.723.3h-.93a.987.987 0 01-.725-.3c-.2-.2-.3-.441-.3-.724v-.93c0-.284.1-.525.3-.725.2-.2.441-.3.724-.3h.93c.284 0 .525.1.725.3.2.2.3.441.3.724v.93zm5.956 0c0 .284-.1.525-.3.725-.2.2-.44.3-.724.3h-.93a.986.986 0 01-.724-.3c-.2-.2-.3-.441-.3-.724v-.93c0-.284.1-.525.3-.725.2-.2.44-.3.724-.3h.93c.283 0 .525.1.724.3.2.2.3.441.3.724v.93zm5.955-1.953h-2.977v2.977h2.977v-2.977zm5.956 1.953c0 .284-.1.525-.3.725-.2.2-.44.3-.724.3h-.93a.986.986 0 01-.724-.3c-.2-.2-.3-.441-.3-.724v-.93c0-.284.1-.525.3-.725.2-.2.44-.3.724-.3h.93c.283 0 .525.1.724.3.2.2.3.441.3.724v.93zm5.956-1.953h-2.978v2.977h2.978v-2.977zm5.955 0h-2.978v2.977H80.4v-2.977zm5.956 1.023c0-.283-.1-.524-.3-.724-.2-.2-.441-.3-.724-.3h-.93c-.284 0-.525.1-.725.3-.2.2-.3.441-.3.724v.93a.61.61 0 00.007.07h-.006v.954h2.978v-.953h-.006a.61.61 0 00.006-.07v-.93zm5.955-1.023h-2.978v2.977h2.978v-2.977zm5.956 1.953c0 .284-.1.525-.3.725-.2.2-.44.3-.724.3h-.93a.986.986 0 01-.725-.3c-.2-.2-.3-.441-.3-.724v-.93c0-.284.1-.525.3-.725.2-.2.442-.3.725-.3h.93c.283 0 .525.1.724.3.2.2.3.441.3.724v.93zm5.955 0a.99.99 0 01-.299.725c-.2.2-.441.3-.724.3h-.931a.987.987 0 01-.724-.3c-.2-.2-.3-.441-.3-.724v-.93c0-.284.1-.525.3-.725.2-.2.441-.3.724-.3h.931c.283 0 .524.1.724.3.199.2.299.441.299.724v.93zm5.956 0c0 .284-.1.525-.3.725-.199.2-.441.3-.724.3h-.93a.986.986 0 01-.724-.3c-.2-.2-.3-.441-.3-.724v-.93c0-.284.1-.525.3-.725.199-.2.441-.3.724-.3h.93c.283 0 .525.1.724.3.2.2.3.441.3.724v.93zM26.8 20.844h-2.978V22.8c0 .283.1.524.3.724.2.2.44.3.724.3H26.8v-2.979z" fill="#1D424B"/><path d="M29.778 21.868c0-.283-.1-.524-.3-.724-.2-.2-.44-.3-.724-.3H26.8v2.978h2.978v-1.954zm5.955 0c0-.283-.1-.524-.3-.724a.982.982 0 00-.723-.3h-.93c-.284 0-.525.1-.725.3-.2.2-.3.441-.3.724v.93a.61.61 0 00.006.07h-.005v.954h2.977v-.954h-.005a.587.587 0 00.005-.07v-.93zm5.956 0c0-.283-.1-.524-.3-.724-.2-.2-.44-.3-.724-.3h-.93c-.283 0-.525.1-.724.3-.2.2-.3.441-.3.724v.93c0 .016.002.04.006.07h-.006v.954h2.978v-.954h-.006a.61.61 0 00.006-.07v-.93zm5.955.931c0 .283-.1.524-.3.724-.199.2-.44.3-.723.3h-.93a.987.987 0 01-.725-.3c-.2-.2-.3-.441-.3-.724v-.93c0-.284.1-.525.3-.725.2-.2.441-.3.724-.3h.93c.284 0 .525.1.725.3.2.2.3.441.3.724v.93zm14.889-1.955h-2.977v2.978h2.977v-2.978zm11.912 0h-2.978v2.978h2.978v-2.978zm5.955 0h-2.978V22.8c0 .283.1.524.3.724.2.2.44.3.724.3H80.4v-2.979zm2.978 0H80.4v2.978h2.978v-2.978zm2.978 0h-2.978v2.978h2.978v-2.978zm5.955 0h-2.978V22.8c0 .283.1.524.3.724.2.2.44.3.724.3h1.954v-2.979zm2.978 1.024c0-.283-.1-.524-.3-.724-.2-.2-.44-.3-.724-.3h-1.954v2.978h2.978v-1.954zM2.978 25.776c0 .284-.1.525-.3.724-.2.2-.44.3-.724.3h-.93a.987.987 0 01-.724-.3c-.2-.2-.3-.44-.3-.724v-.93c0-.283.1-.525.3-.724.2-.2.44-.3.724-.3h.93c.283 0 .525.1.724.3.2.2.3.44.3.724v.93zm5.955-1.954H6.98c-.283 0-.524.1-.724.3-.2.2-.3.44-.3.724v.93c0 .283.1.525.3.724.2.2.441.3.724.3h1.954v-2.978z" fill="#1D424B"/><path d="M11.911 24.846c0-.283-.1-.525-.3-.724-.2-.2-.44-.3-.724-.3H8.933V26.8h2.978v-1.954zm5.956-1.024h-1.955c-.283 0-.524.1-.724.3-.2.2-.3.44-.3.724v.93c0 .283.1.525.3.724.2.2.441.3.724.3h1.955v-2.978zm2.977 0h-2.977V26.8h2.977v-2.978zm1.955 0h-1.955V26.8H22.8c.283 0 .524-.1.724-.3.2-.2.3-.44.3-.724v-.93c0-.283-.1-.525-.3-.724-.2-.2-.441-.3-.724-.3zm6.979 0H26.8v1.954c0 .283.1.525.3.724.2.2.44.3.724.3h1.954v-2.978z" fill="#1D424B"/><path d="M32.756 23.822h-2.978V26.8h2.978v-2.978zm2.977 0h-2.977V26.8h1.954c.283 0 .524-.1.724-.3.2-.2.3-.44.3-.724v-1.954zm5.956 0H38.71V26.8h2.978v-2.978zm8.933 1.024c0-.283-.1-.525-.3-.724a.982.982 0 00-.723-.3h-.93c-.284 0-.525.1-.725.3-.2.2-.3.44-.3.724v.93c0 .016.002.04.006.07h-.006v.954h2.978v-.954h-.006a.61.61 0 00.006-.07v-.93zm11.911-1.024h-2.977V26.8h2.977v-2.978z" fill="#1D424B"/><path d="M65.511 23.822h-2.978V26.8h2.978v-2.978z" fill="#1D424B"/><path d="M68.489 23.822H65.51V26.8h2.978v-2.978zm2.978 0h-2.978V26.8h2.978v-2.978zm2.978 0h-2.978V26.8h2.978v-2.978zm2.977 1.024c0-.283-.1-.525-.3-.724a.982.982 0 00-.723-.3h-1.954V26.8h2.977v-1.954zm5.956-1.024H80.4V26.8h2.978v-2.978zm2.978 0h-2.978V26.8h2.978v-2.978zm2.977 1.024c0-.283-.1-.525-.3-.724a.982.982 0 00-.723-.3h-1.954V26.8h2.977v-1.954zm5.956-1.024H92.31V26.8h2.978v-2.978zm14.889 1.024c0-.283-.1-.525-.3-.724a.985.985 0 00-.724-.3h-.93c-.283 0-.525.1-.724.3-.2.2-.3.44-.3.724v.93c0 .016.002.04.006.07h-.006v.954h2.978v-.954h-.006a.598.598 0 00.006-.07v-.93zm5.955.93c0 .284-.1.525-.299.724-.2.2-.441.3-.724.3h-.931a.987.987 0 01-.724-.3.985.985 0 01-.299-.724v-.93c0-.283.099-.525.299-.724.2-.2.441-.3.724-.3h.931c.283 0 .524.1.724.3.199.2.299.44.299.724v.93zm8.934-.93c0-.283-.1-.525-.3-.724-.2-.2-.441-.3-.724-.3h-.93c-.284 0-.525.1-.725.3a.988.988 0 00-.299.724v.93c0 .016.002.04.006.07h-.006v.954h2.978v-.954h-.006a.598.598 0 00.006-.07v-.93zm5.955-1.024h-1.954c-.283 0-.524.1-.724.3-.2.2-.3.44-.3.724V26.8h2.978v-2.978zM134 24.846c0-.283-.1-.525-.3-.724a.985.985 0 00-.724-.3h-1.954V26.8H134v-1.954zM5.956 27.824c0-.283-.1-.525-.3-.725a.985.985 0 00-.724-.299h-.93c-.284 0-.525.1-.725.3-.2.2-.3.44-.3.724v.93c0 .016.003.039.007.07h-.006v.954h2.978v-.954H5.95a.604.604 0 00.006-.07v-.93zm5.949-.07h.006V26.8H8.933v.954h.006a.618.618 0 00-.006.07v.93c0 .283.1.525.3.724.2.2.44.3.724.3h.93c.284 0 .525-.1.725-.3.2-.2.3-.44.3-.724v-.93a.61.61 0 00-.007-.07zm14.895.07c0-.283-.1-.525-.3-.725a.984.984 0 00-.724-.299h-.93c-.283 0-.525.1-.724.3-.2.2-.3.44-.3.724v.93c0 .016.002.039.006.07h-.006v.954H26.8v-.954h-.006a.61.61 0 00.006-.07v-.93zm5.956-1.024h-2.978v2.978h2.978V26.8zm8.927.954h.006V26.8H38.71v.954h.006a.635.635 0 00-.006.07v.93c0 .283.1.525.3.724.2.2.44.3.724.3h.93c.283 0 .525-.1.724-.3.2-.2.3-.44.3-.724v-.93a.61.61 0 00-.006-.07zm5.961-.954H45.69c-.283 0-.524.1-.724.3-.2.2-.3.44-.3.724v.93c0 .283.1.525.3.724.2.2.441.3.724.3h1.954V26.8zm2.978 0h-2.978v2.978H49.6c.283 0 .524-.1.724-.3.2-.2.3-.44.3-.724V26.8zm5.956 0h-1.954c-.283 0-.525.1-.724.3-.2.2-.3.44-.3.724v1.954h2.978V26.8z" fill="#1D424B"/><path d="M59.556 26.8h-2.978v2.978h2.978V26.8zm2.977 0h-2.977v2.978h1.954c.283 0 .524-.1.724-.3.2-.2.3-.44.3-.724V26.8zm5.956 0H65.51v2.978h2.978V26.8zm8.927.954h.006V26.8h-2.977v.954h.005a.61.61 0 00-.005.07v.93c0 .283.1.525.299.724.2.2.441.3.724.3h.93c.284 0 .525-.1.725-.3.2-.2.3-.44.3-.724v-.93a.61.61 0 00-.007-.07zm5.956 0h.006V26.8H80.4v.954h.006a.61.61 0 00-.006.07v.93c0 .283.1.525.3.724.2.2.44.3.724.3h.93c.283 0 .525-.1.724-.3.2-.2.3-.44.3-.724v-.93a.61.61 0 00-.006-.07zm5.961-.954h-2.977v1.954c0 .283.1.525.3.724.199.2.44.3.723.3h1.954V26.8zm2.978 0h-2.978v2.978h2.978V26.8z" fill="#1D424B"/><path d="M95.289 26.8H92.31v2.978h2.978V26.8zm11.911 0h-1.954c-.283 0-.525.1-.724.3-.2.2-.3.44-.3.724v.93c0 .283.1.525.3.724.199.2.441.3.724.3h1.954V26.8zm2.978 0H107.2v2.978h2.978V26.8zm11.911 0h-1.954c-.283 0-.525.1-.724.3-.2.2-.3.44-.3.724v.93c0 .283.1.525.3.724.199.2.441.3.724.3h1.954V26.8zm2.978 0h-2.978v2.978h2.978V26.8zm2.977 0h-2.977v2.978h2.977V26.8zm2.978 0h-2.978v2.978h2.978V26.8zm2.978 0h-2.978v2.978H134V26.8zM5.956 29.778H2.978v1.954c0 .283.1.524.3.724.199.2.44.3.723.3h1.955v-2.978zm2.977 1.023c0-.283-.1-.524-.3-.724a.982.982 0 00-.723-.3H5.956v2.979h2.977V30.8zm8.934-1.023h-1.955c-.283 0-.524.1-.724.3-.2.199-.3.44-.3.723v1.955h2.979v-2.978zm2.977 0h-2.977v2.978h2.977v-2.978zm2.978 0h-2.978v2.978h2.978v-2.978zm2.978 0h-2.978v2.978H26.8v-2.978zm2.978 0H26.8v2.978h2.978v-2.978z" fill="#1D424B"/><path d="M32.756 29.778h-2.978v2.978h2.978v-2.978zm2.977 1.023c0-.283-.1-.524-.3-.724a.982.982 0 00-.723-.3h-1.954v2.979h2.977V30.8zm8.934.931c0 .283-.1.524-.3.724-.2.2-.44.3-.724.3h-.93a.986.986 0 01-.724-.3c-.2-.2-.3-.441-.3-.724v-.93c0-.284.1-.525.3-.725.2-.2.44-.3.724-.3h.93c.283 0 .524.1.724.3.2.2.3.441.3.724v.93zm8.933-1.954h-1.954c-.283 0-.525.1-.724.3-.2.199-.3.44-.3.723v1.955H53.6v-2.978zm2.978 0H53.6v2.978h1.954c.283 0 .525-.1.724-.3.2-.2.3-.441.3-.724v-1.954zm8.933 0h-1.954c-.283 0-.525.1-.724.3-.2.199-.3.44-.3.723v1.955h2.978v-2.978z" fill="#1D424B"/><path d="M68.489 29.778H65.51v2.978h2.978v-2.978zm1.954 0H68.49v2.978h1.954c.283 0 .525-.1.724-.3.2-.2.3-.441.3-.724v-.93c0-.284-.1-.525-.3-.725-.2-.2-.44-.3-.724-.3zm21.868 0h-2.978v1.954c0 .283.1.524.3.724.2.2.44.3.724.3h1.954v-2.978z" fill="#1D424B"/><path d="M95.289 29.778H92.31v2.978h2.978v-2.978zm2.978 1.023c0-.283-.1-.524-.3-.724-.2-.2-.44-.3-.724-.3H95.29v2.979h2.978V30.8zm5.955 0c0-.283-.1-.524-.299-.724-.2-.2-.441-.3-.724-.3h-.931c-.283 0-.524.1-.724.3-.2.2-.3.441-.3.724v.93c0 .016.002.04.006.07h-.006v.955h2.978v-.954h-.006a.597.597 0 00.006-.07v-.93zm5.956-1.023H107.2v1.954c0 .283.1.524.3.724.199.2.441.3.724.3h1.954v-2.978zm2.978 1.023c0-.283-.1-.524-.3-.724-.2-.2-.441-.3-.724-.3h-1.954v2.979h2.978V30.8zm11.911-1.023h-2.978v2.978h2.978v-2.978zm5.955 0h-2.978v2.978h2.978v-2.978zm2.978 0h-2.978v2.978h1.954c.283 0 .525-.1.724-.3.2-.2.3-.441.3-.724v-1.954zM8.933 32.756H5.956v2.977h2.977v-2.977zm2.978 0H8.933v2.977h2.978v-2.977z" fill="#1D424B"/><path d="M14.889 32.756H11.91v2.977h2.978v-2.977zm2.978 0h-2.978v2.977h2.978v-2.977zm5.955 0h-2.978v2.977h2.978v-2.977zm2.978 0h-2.978v2.977H26.8v-2.977zm8.933 0h-2.977v2.977h2.977v-2.977zm2.978 1.024c0-.284-.1-.525-.3-.725-.2-.2-.44-.3-.724-.3h-1.954v2.978h2.978V33.78zm8.933.93c0 .283-.1.524-.3.724-.199.2-.44.3-.723.3h-.93a.987.987 0 01-.725-.3c-.2-.2-.3-.441-.3-.724v-.93c0-.284.1-.525.3-.725.2-.2.441-.3.724-.3h.93c.284 0 .525.1.725.3.2.2.3.441.3.724v.93zm5.956-1.954h-2.978v2.977H53.6v-2.977zm11.911 0h-2.978v2.977h2.978v-2.977z" fill="#1D424B"/><path d="M68.489 32.756H65.51v2.977h2.978v-2.977zm5.956 1.024c0-.284-.1-.525-.3-.725-.2-.2-.441-.3-.724-.3h-.93c-.284 0-.525.1-.725.3-.2.2-.3.441-.3.724v.93a.61.61 0 00.007.07h-.006v.954h2.978v-.953h-.006a.592.592 0 00.006-.07v-.93zm20.844-1.024H92.31v1.954c0 .283.1.524.3.724.2.2.44.3.724.3h1.954v-2.978zm2.978 0h-2.978v2.977h1.954c.283 0 .525-.1.724-.3.2-.199.3-.44.3-.723v-1.954zm5.955 0h-2.978v2.977h2.978v-2.977zm8.934 0h-2.978v2.977h2.978v-2.977zm11.905.954h.006v-.954h-2.978v.953h.006a.598.598 0 00-.006.07v.93c0 .284.1.525.299.725.2.2.441.3.725.3h.93c.283 0 .524-.1.724-.3.2-.2.3-.441.3-.724v-.93a.598.598 0 00-.006-.07zm5.955 0h.006v-.954h-2.978v.953h.006a.598.598 0 00-.006.07v.93c0 .284.1.525.3.725.2.2.441.3.724.3h.931c.283 0 .524-.1.724-.3a.989.989 0 00.299-.724v-.93a.598.598 0 00-.006-.07zM2.978 35.733H1.024c-.283 0-.525.1-.724.3-.2.2-.3.44-.3.724v1.954h2.978v-2.978zm2.978 0H2.978v2.978h2.978v-2.978zm2.977 0H5.956v2.978H7.91c.283 0 .524-.1.724-.3.2-.2.3-.44.3-.724v-1.954zm8.934 0h-2.978v2.978h2.978v-2.978zm2.977 0h-2.977v2.978h2.977v-2.978zm2.978 0h-2.978v2.978h2.978v-2.978zm2.978 0h-2.978v2.978h1.954c.283 0 .525-.1.724-.3.2-.2.3-.44.3-.724v-1.954zm8.933 0h-2.977v2.978h2.977v-2.978zm2.978 0h-2.978v2.978h2.978v-2.978z" fill="#1D424B"/><path d="M41.689 35.733H38.71v2.978h2.978v-2.978zm1.954 0H41.69v2.978h1.954c.283 0 .524-.1.724-.3.2-.2.3-.44.3-.724v-.93c0-.283-.1-.524-.3-.724-.2-.2-.44-.3-.724-.3zm9.957 0h-2.978v2.978H53.6v-2.978zm2.978 1.024c0-.283-.1-.524-.3-.724-.2-.2-.44-.3-.724-.3H53.6v2.978h2.978v-1.954zm8.933-1.024h-2.978v2.978h2.978v-2.978z" fill="#1D424B"/><path d="M68.489 35.733H65.51v2.978h2.978v-2.978zm5.956 0h-2.978v1.955c0 .282.1.524.3.724.199.2.44.3.723.3h1.955v-2.979zm1.954 0h-1.954v2.978h1.954c.283 0 .524-.1.724-.3.2-.2.3-.44.3-.724v-.93c0-.283-.1-.524-.3-.724-.2-.2-.441-.3-.724-.3zm12.934 0H87.38c-.283 0-.524.1-.724.3-.2.2-.3.44-.3.724v.93c0 .284.1.525.3.725.2.2.441.3.724.3h1.954v-2.979z" fill="#1D424B"/><path d="M91.287 35.733h-1.954v2.978h1.954c.283 0 .525-.1.725-.3.2-.2.3-.44.3-.724v-.93c0-.283-.1-.524-.3-.724-.2-.2-.442-.3-.725-.3zm12.935 0h-2.978v1.955c0 .282.1.524.3.724.2.2.441.3.724.3h1.954v-2.979zm1.954 0h-1.954v2.978h1.954c.283 0 .525-.1.724-.3.2-.2.3-.44.3-.724v-.93c0-.283-.1-.524-.3-.724a.985.985 0 00-.724-.3zm6.98 0h-2.978v2.978h2.978v-2.978z" fill="#1D424B"/><path d="M116.133 36.757c0-.283-.1-.524-.299-.724-.2-.2-.441-.3-.724-.3h-1.954v2.978h2.977v-1.954zm17.867.931c0 .283-.1.524-.3.724-.199.2-.441.3-.724.3h-.93a.986.986 0 01-.724-.3c-.2-.2-.3-.441-.3-.724v-.931c0-.283.1-.524.3-.724.199-.2.441-.3.724-.3h.93c.284 0 .525.1.724.3.2.2.3.44.3.724v.93zM2.978 38.711H0v1.954c0 .283.1.525.3.724.2.2.44.3.724.3h1.954V38.71zm2.978 0H2.978v2.978h2.978V38.71zm5.955 1.024c0-.283-.1-.525-.3-.724-.2-.2-.44-.3-.724-.3h-.93c-.283 0-.524.1-.724.3-.2.2-.3.44-.3.724v.93c0 .016.002.04.006.07h-.006v.954h2.978v-.954h-.006a.61.61 0 00.006-.07v-.93zm5.956-1.024h-2.978v2.978h2.978V38.71zm5.955 0h-2.978v2.978h2.978V38.71zm5.956 1.024c0-.283-.1-.525-.3-.724-.2-.2-.44-.3-.724-.3h-.93c-.283 0-.525.1-.725.3-.2.2-.299.44-.299.724v.93a.61.61 0 00.006.07H26.8v.954h2.978v-.954h-.006a.61.61 0 00.006-.07v-.93zm5.949-.07h.006v-.954h-2.977v.954h.005a.613.613 0 00-.005.07v.93c0 .283.1.525.3.724.199.2.44.3.723.3h.93c.284 0 .525-.1.725-.3.2-.2.3-.44.3-.724v-.93a.59.59 0 00-.007-.07zm17.873-.954h-2.978v2.978H53.6V38.71zm2.978 0H53.6v2.978h2.978V38.71z" fill="#1D424B"/><path d="M59.556 38.711h-2.978v2.978h2.978V38.71zm2.977 0h-2.977v2.978h2.977V38.71zm2.978 0h-2.978v2.978h2.978V38.71z" fill="#1D424B"/><path d="M68.489 38.711H65.51v2.978h2.978V38.71zm11.911 0h-1.954c-.283 0-.525.1-.724.3-.2.2-.3.44-.3.724v1.954H80.4V38.71zm1.954 0H80.4v2.978h1.954c.283 0 .525-.1.724-.3.2-.2.3-.44.3-.724v-.93c0-.283-.1-.525-.3-.724-.2-.2-.44-.3-.724-.3zm12.935 0h-1.954c-.283 0-.525.1-.724.3-.2.2-.3.44-.3.724v.93c0 .283.1.525.3.724.2.2.44.3.724.3h1.954V38.71zm2.978 0h-2.978v2.978h2.978V38.71zm1.954 0h-1.954v2.978h1.954c.283 0 .524-.1.724-.3.2-.2.299-.44.299-.724v-.93a.985.985 0 00-.299-.724c-.2-.2-.441-.3-.724-.3zm12.935 0h-2.978v2.978h2.978V38.71zm2.977 0h-2.977v2.978h2.977V38.71zm1.955 0h-1.955v2.978h1.955c.283 0 .524-.1.724-.3a.989.989 0 00.299-.724v-.93c0-.283-.1-.525-.299-.724-.2-.2-.441-.3-.724-.3zm6.979 0h-1.954c-.284 0-.525.1-.725.3a.989.989 0 00-.299.724v1.954h2.978V38.71zm1.954 0h-1.954v2.978h1.954c.283 0 .524-.1.724-.3.2-.2.299-.44.299-.724v-.93a.985.985 0 00-.299-.724c-.2-.2-.441-.3-.724-.3zM5.95 42.643h.006v-.954H2.978v.954h.006a.618.618 0 00-.006.07v.93c0 .283.1.524.3.724.199.2.44.3.723.3h.93c.284 0 .525-.1.725-.3.2-.2.3-.44.3-.724v-.93a.604.604 0 00-.006-.07zm5.961-.954H8.933v2.978h2.978v-2.978z" fill="#1D424B"/><path d="M14.889 41.689H11.91v2.978h2.978v-2.978zm2.978 0h-2.978v2.978h2.978v-2.978zm2.977 0h-2.977v2.978h2.977v-2.978z" fill="#1D424B"/><path d="M23.822 41.689h-2.978v2.978h2.978v-2.978zm2.978 0h-2.978v2.978H26.8v-2.978zm2.978 0H26.8v2.978h2.978v-2.978zm2.978 1.023c0-.283-.1-.524-.3-.724-.2-.2-.441-.3-.724-.3h-1.954v2.979h2.978v-1.955zm20.838-.069h.006v-.954h-2.978v.954h.006a.635.635 0 00-.006.07v.93c0 .283.1.524.3.724.2.2.44.3.724.3h.93c.283 0 .525-.1.724-.3.2-.2.3-.44.3-.724v-.93a.61.61 0 00-.006-.07zm5.962-.954h-2.978v2.978h2.978v-2.978zm2.977 0h-2.977v2.978h2.977v-2.978zm2.978 0h-2.978v2.978h2.978v-2.978z" fill="#1D424B"/><path d="M68.489 41.689H65.51v2.978h2.978v-2.978zm2.978 1.023c0-.283-.1-.524-.3-.724-.2-.2-.44-.3-.724-.3H68.49v2.979h2.978v-1.955zm8.927-.069h.006v-.954h-2.978v.954h.006a.635.635 0 00-.006.07v.93c0 .283.1.524.3.724.2.2.44.3.724.3h.93c.283 0 .525-.1.724-.3.2-.2.3-.44.3-.724v-.93a.61.61 0 00-.006-.07zm11.917.069c0-.283-.1-.524-.3-.724-.2-.2-.44-.3-.724-.3h-.93c-.283 0-.525.1-.724.3-.2.2-.3.441-.3.724v.931c0 .016.002.039.006.07h-.006v.954h2.978v-.954h-.006a.61.61 0 00.006-.07v-.93zm14.889-1.023h-1.954c-.283 0-.525.1-.724.3-.2.2-.3.44-.3.724v1.954h2.978v-2.978zm2.978 0H107.2v2.978h2.978v-2.978zm2.978 0h-2.978v2.978h2.978v-2.978zm2.977 0h-2.977v2.978h1.954c.283 0 .524-.1.724-.3a.988.988 0 00.299-.724V41.69zm8.928.954h.006v-.954h-2.978v.954h.006a.598.598 0 00-.006.07v.93c0 .283.1.524.299.724.2.2.441.3.725.3h.93c.283 0 .524-.1.724-.3.2-.2.3-.44.3-.724v-.93a.598.598 0 00-.006-.07zm-113.15 2.024H8.933v1.954c0 .283.1.524.3.724.2.2.44.3.724.3h1.954v-2.978z" fill="#1D424B"/><path d="M14.889 44.667H11.91v2.977h2.978v-2.977zm2.978 0h-2.978v2.977h1.954c.283 0 .524-.1.724-.3.2-.199.3-.44.3-.723v-1.954zm5.949.953h.006v-.953h-2.978v.953h.006a.616.616 0 00-.006.07v.93c0 .284.1.525.3.725.2.2.441.3.724.3h.93c.284 0 .525-.1.725-.3.2-.2.3-.441.3-.724v-.93a.61.61 0 00-.007-.07zm8.934 0h.006v-.953h-2.978v.953h.006a.61.61 0 00-.006.07v.93c0 .284.1.525.3.725.199.2.44.3.723.3h.93c.284 0 .525-.1.725-.3.2-.2.3-.441.3-.724v-.93a.61.61 0 00-.006-.07zm11.917-.953h-1.955c-.283 0-.524.1-.724.3-.2.199-.3.44-.3.723v.93c0 .284.1.525.3.725.2.2.441.3.724.3h1.955v-2.978zm2.977 1.023c0-.283-.1-.524-.3-.724a.982.982 0 00-.723-.3h-1.954v2.978h2.977V45.69zm8.934-1.023h-1.954c-.283 0-.525.1-.724.3-.2.199-.3.44-.3.723v.93c0 .284.1.525.3.725.2.2.44.3.724.3h1.954v-2.978zm2.978 0h-2.978v2.977h1.954c.283 0 .524-.1.724-.3.2-.199.3-.44.3-.723v-1.954zm11.911 0h-2.978v1.954c0 .283.1.524.3.724.2.2.44.3.724.3h1.954v-2.978zm2.978 0h-2.978v2.977h2.978v-2.977zm1.954 0h-1.954v2.977h1.954c.283 0 .524-.1.724-.3.2-.199.3-.44.3-.723v-.93c0-.284-.1-.525-.3-.725-.2-.2-.441-.3-.724-.3zm9.957 1.953c0 .284-.1.525-.3.725-.2.2-.441.3-.724.3h-.93a.987.987 0 01-.725-.3c-.2-.2-.3-.441-.3-.724v-.93c0-.284.1-.525.3-.725.2-.2.441-.3.724-.3h.93c.284 0 .525.1.725.3.2.2.3.441.3.724v.93zm5.955-1.953h-2.978v2.977h2.978v-2.977zm5.956 1.023c0-.283-.1-.524-.3-.724-.2-.2-.44-.3-.724-.3h-.93c-.284 0-.525.1-.725.3-.2.2-.3.441-.3.724v.93a.61.61 0 00.007.07h-.006v.954h2.978v-.953h-.006a.61.61 0 00.006-.07v-.93zm5.955-1.023h-1.954c-.283 0-.524.1-.724.3-.2.199-.3.44-.3.723v1.954h2.978v-2.977zm2.978 0h-2.978v2.977h1.954c.283 0 .525-.1.724-.3.2-.199.3-.44.3-.723v-1.954zm5.95.953h.006v-.953h-2.978v.953h.006a.598.598 0 00-.006.07v.93c0 .284.1.525.299.725.2.2.441.3.724.3h.931c.283 0 .524-.1.724-.3.2-.2.3-.441.3-.724v-.93a.598.598 0 00-.006-.07zm8.939 1c0 .284-.1.525-.3.725-.199.2-.441.3-.724.3h-.93a.986.986 0 01-.724-.3c-.2-.2-.3-.441-.3-.724v-.93c0-.284.1-.525.3-.725.199-.2.441-.3.724-.3h.93c.283 0 .525.1.724.3.2.2.3.441.3.724v.93zm5.955-1.953h-1.954c-.283 0-.524.1-.724.3a.989.989 0 00-.299.723v1.954h2.977v-2.977z" fill="#1D424B"/><path d="M131.022 45.69c0-.283-.1-.524-.299-.724-.2-.2-.441-.3-.724-.3h-1.955v2.978h2.978V45.69zM5.956 47.644H4c-.283 0-.524.1-.724.3-.2.2-.3.441-.3.724v1.954h2.979v-2.978zm2.977 1.024c0-.283-.1-.524-.3-.724a.982.982 0 00-.723-.3H5.956v2.978h2.977v-1.954zm11.911.931c0 .283-.1.524-.3.724-.199.2-.44.3-.723.3h-.93a.987.987 0 01-.725-.3c-.2-.2-.3-.441-.3-.724v-.93c0-.284.1-.525.3-.725.2-.2.441-.3.724-.3h.93c.284 0 .525.1.725.3.2.2.3.441.3.724v.93zm26.795-1.001h.005v-.954h-2.977v.954h.005a.61.61 0 00-.005.07v.93c0 .284.1.525.3.725.199.2.44.3.723.3h.93c.284 0 .525-.1.725-.3.2-.2.3-.441.3-.724v-.93a.587.587 0 00-.006-.07zm5.961.07c0-.283-.1-.524-.3-.724-.2-.2-.44-.3-.724-.3h-.93c-.283 0-.525.1-.724.3-.2.2-.3.441-.3.724v.93c0 .016.002.04.006.07h-.006v.954H53.6v-.954h-.006a.61.61 0 00.006-.07v-.93zm8.933.931c0 .283-.1.524-.3.724-.199.2-.44.3-.723.3h-.93a.987.987 0 01-.725-.3c-.2-.2-.3-.441-.3-.724v-.93c0-.284.1-.525.3-.725.2-.2.441-.3.724-.3h.93c.284 0 .525.1.725.3.2.2.3.441.3.724v.93zm5.956 0c0 .283-.1.524-.3.724-.2.2-.44.3-.724.3h-.93a.986.986 0 01-.724-.3c-.2-.2-.3-.441-.3-.724v-.93c0-.284.1-.525.3-.725.2-.2.44-.3.724-.3h.93c.283 0 .525.1.724.3.2.2.3.441.3.724v.93zm5.956-1.955h-2.978v2.978h2.978v-2.978zm17.866 0h-2.978V49.6c0 .283.1.524.3.724.2.2.44.3.724.3h1.954v-2.979z" fill="#1D424B"/><path d="M95.289 47.644H92.31v2.978h2.978v-2.978zm2.978 0h-2.978v2.978h2.978v-2.978zm2.977 0h-2.977v2.978h2.977v-2.978zm2.978 0h-2.978v2.978h2.978v-2.978zm5.956 1.955c0 .283-.1.524-.3.724-.199.2-.441.3-.724.3h-.93a.986.986 0 01-.724-.3c-.2-.2-.3-.441-.3-.724v-.93c0-.284.1-.525.3-.725.199-.2.441-.3.724-.3h.93c.283 0 .525.1.724.3.2.2.3.441.3.724v.93zm5.955-1.955h-1.954c-.283 0-.524.1-.724.3-.2.2-.299.441-.299.724v.93c0 .284.099.525.299.725.2.2.441.3.724.3h1.954v-2.979zm2.978 1.024c0-.283-.1-.524-.299-.724-.2-.2-.441-.3-.724-.3h-1.955v2.978h2.978v-1.954zm8.933-1.024h-2.977V49.6c0 .283.1.524.299.724.2.2.441.3.724.3h1.954v-2.979z" fill="#1D424B"/><path d="M131.022 47.644h-2.978v2.978h1.955c.283 0 .524-.1.724-.3a.989.989 0 00.299-.723v-1.955zM5.956 50.622H2.978v1.954c0 .283.1.525.3.724.199.2.44.3.723.3h1.955v-2.978zm2.977 0H5.956V53.6h2.977v-2.978zm5.956 0h-1.954c-.283 0-.525.1-.724.3-.2.2-.3.44-.3.724v.93c0 .283.1.525.3.724.2.2.44.3.724.3h1.954v-2.978zm2.978 1.024c0-.283-.1-.525-.3-.724-.2-.2-.44-.3-.724-.3H14.89V53.6h2.978v-1.954zm5.955.93c0 .283-.1.525-.3.724-.199.2-.44.3-.723.3h-.93a.987.987 0 01-.725-.3c-.2-.2-.3-.44-.3-.724v-.93c0-.283.1-.525.3-.724.2-.2.441-.3.724-.3h.93c.284 0 .525.1.725.3.2.2.3.44.3.724v.93zm5.956-1.954h-1.954c-.283 0-.525.1-.725.3-.2.2-.299.44-.299.724V53.6h2.978v-2.978zm2.978 1.024c0-.283-.1-.525-.3-.724-.2-.2-.441-.3-.724-.3h-1.954V53.6h2.978v-1.954zm8.933 0c0-.283-.1-.525-.3-.724-.2-.2-.44-.3-.724-.3h-.93c-.283 0-.525.1-.724.3-.2.2-.3.44-.3.724v.93c0 .016.002.04.006.07h-.006v.954h2.978v-.954h-.006a.61.61 0 00.006-.07v-.93zM53.6 50.622h-2.978V53.6H53.6v-2.978zm2.978 1.024c0-.283-.1-.525-.3-.724-.2-.2-.44-.3-.724-.3H53.6V53.6h2.978v-1.954zm14.889-1.024h-1.954c-.284 0-.525.1-.725.3-.2.2-.3.44-.3.724v.93c0 .283.1.525.3.724.2.2.442.3.725.3h1.954v-2.978zm2.978 0h-2.978V53.6h2.978v-2.978zm14.888 1.024c0-.283-.1-.525-.3-.724a.982.982 0 00-.723-.3h-.93c-.284 0-.525.1-.725.3-.2.2-.3.44-.3.724v.93a.61.61 0 00.006.07h-.005v.954h2.977v-.954h-.005a.588.588 0 00.005-.07v-.93zm5.956-1.024H92.31v1.954c0 .283.1.525.3.724.2.2.44.3.724.3h1.954v-2.978zm2.978 0h-2.978V53.6h2.978v-2.978zm2.977 0h-2.977V53.6h2.977v-2.978zm2.978 0h-2.978V53.6h2.978v-2.978zm2.978 1.024c0-.283-.1-.525-.3-.724a.985.985 0 00-.724-.3h-1.954V53.6h2.978v-1.954zm11.911-1.024h-2.978v1.954c0 .283.1.525.3.724.2.2.441.3.724.3h1.954v-2.978zm1.954 0h-1.954V53.6h1.954c.283 0 .525-.1.724-.3.2-.2.3-.44.3-.724v-.93c0-.283-.1-.525-.3-.724a.985.985 0 00-.724-.3zM134 52.576c0 .283-.1.525-.3.724-.199.2-.441.3-.724.3h-.93a.986.986 0 01-.724-.3c-.2-.2-.3-.44-.3-.724v-.93c0-.283.1-.525.3-.724.199-.2.441-.3.724-.3h.93c.284 0 .525.1.724.3.2.2.3.44.3.724v.93zM2.978 54.624c0-.283-.1-.525-.3-.724-.2-.2-.44-.3-.724-.3h-.93c-.283 0-.525.1-.724.3-.2.2-.3.44-.3.724v.93c0 .016.002.039.006.07H0v.954h2.978v-.954h-.006a.604.604 0 00.006-.07v-.93zM8.933 53.6H5.956v2.978h2.977V53.6zm1.954 0H8.933v2.978h1.954c.284 0 .525-.1.725-.3.2-.2.3-.44.3-.724v-.93c0-.283-.1-.525-.3-.724-.2-.2-.441-.3-.725-.3zm6.98 0h-2.978v2.978h2.978V53.6z" fill="#1D424B"/><path d="M19.82 53.6h-1.953v2.978h1.954c.283 0 .524-.1.724-.3.2-.2.3-.44.3-.724v-.93c0-.283-.1-.525-.3-.724-.2-.2-.441-.3-.724-.3zm9.958 0H26.8v1.954c0 .283.1.525.3.724.2.2.44.3.724.3h1.954V53.6z" fill="#1D424B"/><path d="M32.756 53.6h-2.978v2.978h2.978V53.6zm2.977 0h-2.977v2.978h2.977V53.6zm2.978 0h-2.978v2.978h2.978V53.6z" fill="#1D424B"/><path d="M41.689 53.6H38.71v2.978h1.954c.283 0 .525-.1.724-.3.2-.2.3-.44.3-.724V53.6zm11.911 0h-2.978v1.954c0 .283.1.525.3.724.2.2.44.3.724.3H53.6V53.6zm2.978 0H53.6v2.978h2.978V53.6z" fill="#1D424B"/><path d="M59.556 53.6h-2.978v2.978h2.978V53.6zm2.977 1.024c0-.283-.1-.525-.3-.724a.982.982 0 00-.723-.3h-1.954v2.978h2.977v-1.954zM74.445 53.6h-2.978v1.954c0 .283.1.525.3.724.199.2.44.3.723.3h1.955V53.6zm2.977 0h-2.977v2.978h2.977V53.6zm2.978 0h-2.978v2.978H80.4V53.6zm2.978 1.024c0-.283-.1-.525-.3-.724-.2-.2-.44-.3-.724-.3H80.4v2.978h2.978v-1.954zm5.955-1.024h-2.977v2.978h2.977V53.6zm14.889 0h-2.978v1.954c0 .283.1.525.3.724.2.2.441.3.724.3h1.954V53.6zm2.978 0h-2.978v2.978h1.954c.283 0 .525-.1.724-.3.2-.2.3-.44.3-.724V53.6zm8.933 1.024c0-.283-.1-.525-.299-.724-.2-.2-.441-.3-.724-.3h-.931c-.283 0-.524.1-.724.3-.2.2-.299.44-.299.724v.93c0 .016.002.039.005.07h-.005v.954h2.977v-.954h-.005a.842.842 0 00.005-.07v-.93zm8.934-1.024h-1.954c-.284 0-.525.1-.725.3a.989.989 0 00-.299.724v.93c0 .283.1.525.299.724.2.2.441.3.725.3h1.954V53.6zm1.954 0h-1.954v2.978h1.954c.283 0 .524-.1.724-.3.2-.2.299-.44.299-.724v-.93a.985.985 0 00-.299-.724c-.2-.2-.441-.3-.724-.3zM2.978 56.578H0v2.978h2.978v-2.978zm2.978 0H2.978v2.978h2.978v-2.978zm2.977 0H5.956v2.978h2.977v-2.978zm8.934 0h-2.978v2.978h2.978v-2.978zm14.883.954h.006v-.954h-2.978v.954h.006a.61.61 0 00-.006.07v.93c0 .283.1.524.3.724.199.2.44.3.723.3h.93c.284 0 .525-.1.725-.3.2-.2.3-.441.3-.724v-.93a.61.61 0 00-.006-.07zm5.961-.954h-2.978v2.978h2.978v-2.978zm5.956 0h-1.955c-.283 0-.524.1-.724.3-.2.199-.3.44-.3.723v1.955h2.979v-2.978z" fill="#1D424B"/><path d="M47.644 56.578h-2.977v2.978h2.977v-2.978zm1.955 0h-1.955v2.978H49.6c.283 0 .524-.1.724-.3.2-.2.3-.441.3-.724v-.93c0-.284-.1-.525-.3-.725-.2-.2-.441-.3-.724-.3zm12.934 0h-2.977v2.978h2.977v-2.978zm2.978 1.023c0-.283-.1-.524-.3-.724-.2-.2-.44-.3-.724-.3h-1.954v2.979h2.978V57.6zm5.956 0c0-.283-.1-.524-.3-.724-.2-.2-.44-.3-.724-.3h-.93c-.284 0-.525.1-.725.3-.2.2-.3.441-.3.724v.93a.61.61 0 00.007.07h-.006v.955h2.978v-.954h-.006a.61.61 0 00.006-.07v-.93zm5.955-1.023h-2.977v2.978h2.977v-2.978zm5.956 0H80.4v1.954c0 .283.1.524.3.724.2.2.44.3.724.3h1.954v-2.978zm2.978 0h-2.978v2.978h2.978v-2.978zm2.977 0h-2.977v2.978h2.977v-2.978zm11.911 1.023a.985.985 0 00-.299-.724c-.2-.2-.441-.3-.724-.3h-.93c-.284 0-.525.1-.725.3-.2.2-.3.441-.3.724v.93a.61.61 0 00.006.07h-.005v.955h2.977v-.954h-.005a.55.55 0 00.005-.07v-.93zm8.934 0c0-.283-.1-.524-.3-.724a.986.986 0 00-.724-.3h-.93c-.283 0-.525.1-.724.3-.2.2-.3.441-.3.724v.93c0 .017.002.04.006.07h-.006v.955h2.978v-.954h-.006a.597.597 0 00.006-.07v-.93zm5.955-1.023h-2.977v2.978h2.977v-2.978zm5.956 1.023c0-.283-.1-.524-.3-.724a.986.986 0 00-.724-.3h-.93c-.283 0-.525.1-.724.3-.2.2-.3.441-.3.724v.93c0 .017.002.04.006.07h-.006v.955h2.978v-.954h-.006a.597.597 0 00.006-.07v-.93zm8.933-1.023h-1.954c-.283 0-.524.1-.724.3-.2.199-.3.44-.3.723v.93c0 .284.1.525.3.725.2.2.441.3.724.3h1.954v-2.978zm1.954 0h-1.954v2.978h1.954c.283 0 .525-.1.724-.3.2-.2.3-.441.3-.724v-.93c0-.284-.1-.525-.3-.725a.986.986 0 00-.724-.3zM2.978 59.556H0v1.954c0 .283.1.524.3.724.2.2.44.3.724.3h1.954v-2.978zm2.978 0H2.978v2.977h2.978v-2.977zm2.977 0H5.956v2.977h2.977v-2.977zm2.978 0H8.933v2.977h2.978v-2.977z" fill="#1D424B"/><path d="M14.889 59.556H11.91v2.977h2.978v-2.977zm2.978 0h-2.978v2.977h2.978v-2.977zm2.977 0h-2.977v2.977h2.977v-2.977z" fill="#1D424B"/><path d="M23.822 59.556h-2.978v2.977h2.978v-2.977zm2.978 0h-2.978v2.977H26.8v-2.977zm2.978 1.024c0-.284-.1-.525-.3-.725-.2-.2-.44-.3-.724-.3H26.8v2.978h2.978V60.58zm8.933-1.024h-2.978v2.977h2.978v-2.977z" fill="#1D424B"/><path d="M41.689 59.556H38.71v2.977h2.978v-2.977zm2.978 0h-2.978v2.977h2.978v-2.977zm2.977 0h-2.977v2.977h1.954c.283 0 .524-.1.724-.3.2-.199.3-.44.3-.723v-1.954zM53.6 61.51c0 .283-.1.524-.3.724-.2.2-.44.3-.724.3h-.93a.987.987 0 01-.724-.3c-.2-.2-.3-.441-.3-.724v-.93c0-.284.1-.525.3-.725.2-.2.44-.3.724-.3h.93c.283 0 .525.1.724.3.2.2.3.441.3.724v.93zm5.956-1.954H57.6c-.283 0-.524.1-.724.3-.2.199-.3.44-.3.723v.93c0 .284.1.525.3.725.2.2.441.3.724.3h1.955v-2.978zm2.977 0h-2.977v2.977h2.977v-2.977z" fill="#1D424B"/><path d="M65.511 59.556h-2.978v2.977h2.978v-2.977z" fill="#1D424B"/><path d="M68.489 59.556H65.51v2.977h2.978v-2.977zm2.978 0h-2.978v2.977h2.978v-2.977zm2.978 0h-2.978v2.977h2.978v-2.977zm2.977 0h-2.977v2.977h2.977v-2.977zm1.954 0h-1.954v2.977h1.954c.283 0 .525-.1.724-.3.2-.199.3-.44.3-.723v-.93c0-.284-.1-.525-.3-.725-.2-.2-.44-.3-.724-.3zm6.98 0h-2.978v2.977h2.978v-2.977zm2.977 0h-2.977v2.977h1.954c.283 0 .524-.1.724-.3.2-.199.3-.44.3-.723v-1.954zm11.911 0h-2.977v1.954c0 .283.1.524.3.724.199.2.44.3.723.3h1.954v-2.978zm1.955 0h-1.955v2.977h1.955c.283 0 .524-.1.724-.3a.989.989 0 00.299-.723v-.93a.99.99 0 00-.299-.725c-.2-.2-.441-.3-.724-.3zm6.979 0H107.2v2.977h2.978v-2.977zm2.978 0h-2.978v2.977h2.978v-2.977zm2.977 0h-2.977v2.977h2.977v-2.977zm2.978 0h-2.978v2.977h2.978v-2.977zm2.978 0h-2.978v2.977h2.978v-2.977zm2.978 0h-2.978v2.977h2.978v-2.977zm2.977 1.024a.985.985 0 00-.299-.725c-.2-.2-.441-.3-.724-.3h-1.954v2.978h2.977V60.58zM5.95 63.487h.006v-.954H2.978v.954h.006a.62.62 0 00-.006.07v.93c0 .284.1.525.3.725.199.2.44.3.723.3h.93c.284 0 .525-.1.725-.3.2-.2.3-.442.3-.725v-.93a.606.606 0 00-.006-.07zm5.961-.954H8.933v2.978h2.978v-2.978z" fill="#1D424B"/><path d="M14.889 62.533H11.91v2.978h2.978v-2.978zm11.911 0h-2.978v2.978H26.8v-2.978zm2.978 0H26.8v2.978h1.954c.283 0 .525-.1.724-.3.2-.2.3-.44.3-.724v-1.954zm5.955 0H33.78c-.283 0-.524.1-.724.3-.2.2-.3.44-.3.724v1.954h2.978v-2.978z" fill="#1D424B"/><path d="M38.711 62.533h-2.978v2.978h2.978v-2.978z" fill="#1D424B"/><path d="M41.689 62.533H38.71v2.978h2.978v-2.978zm20.844 0h-2.977v2.978h2.977v-2.978zm11.912 0h-2.978v2.978h2.978v-2.978zm8.933 0h-1.954c-.283 0-.525.1-.725.3-.2.2-.299.44-.299.724v1.954h2.978v-2.978zm2.978 0h-2.978v2.978h1.954c.283 0 .524-.1.724-.3.2-.2.3-.44.3-.724v-1.954zm5.955 0h-1.954c-.283 0-.525.1-.724.3-.2.2-.3.44-.3.724v1.954h2.978v-2.978z" fill="#1D424B"/><path d="M95.289 62.533H92.31v2.978h2.978v-2.978zm1.954 0H95.29v2.978h1.954c.283 0 .525-.1.724-.3.2-.2.3-.44.3-.724v-.93c0-.283-.1-.525-.3-.724-.2-.2-.44-.3-.724-.3zm9.957 0h-1.954c-.283 0-.525.1-.724.3-.2.2-.3.44-.3.724v1.954h2.978v-2.978zm2.978 0H107.2v2.978h2.978v-2.978zm11.911 0h-2.978v2.978h2.978v-2.978zm2.978 0h-2.978v2.978h2.978v-2.978zm2.977 0h-2.977v2.978h1.954c.283 0 .524-.1.724-.3.2-.2.299-.44.299-.724v-1.954zM134 63.557c0-.283-.1-.525-.3-.724a.985.985 0 00-.724-.3h-.93c-.283 0-.525.1-.724.3-.2.2-.3.44-.3.724v.93c0 .016.002.04.006.07h-.006v.954H134v-.954h-.006a.598.598 0 00.006-.07v-.93zM2.978 67.465c0 .283-.1.525-.3.724-.2.2-.44.3-.724.3h-.93a.987.987 0 01-.724-.3c-.2-.2-.3-.44-.3-.724v-.93c0-.283.1-.525.3-.724.2-.2.44-.3.724-.3h.93c.283 0 .525.1.724.3.2.2.3.44.3.724v.93zm8.933-1.954H8.933v1.954c0 .283.1.525.3.724.2.2.44.3.724.3h1.954V65.51z" fill="#1D424B"/><path d="M14.889 65.511H11.91v2.978h2.978V65.51zm5.955 1.954c0 .283-.1.525-.3.724-.199.2-.44.3-.723.3h-.93a.987.987 0 01-.725-.3c-.2-.2-.3-.44-.3-.724v-.93c0-.283.1-.525.3-.724.2-.2.441-.3.724-.3h.93c.284 0 .525.1.725.3.2.2.3.44.3.724v.93zm5.956-1.954h-2.978v2.978H26.8V65.51zm8.933 0h-2.977v2.978h2.977V65.51zm2.978 0h-2.978v2.978h2.978V65.51z" fill="#1D424B"/><path d="M41.689 65.511H38.71v2.978h2.978V65.51zm2.978 0h-2.978v2.978h2.978V65.51zm2.977 1.024c0-.283-.1-.525-.3-.724a.982.982 0 00-.723-.3h-1.954v2.978h2.977v-1.954zm8.934 0c0-.283-.1-.525-.3-.724-.2-.2-.44-.3-.724-.3h-.93c-.283 0-.525.1-.724.3-.2.2-.3.44-.3.724v.93a.61.61 0 00.006.07H53.6v.954h2.978v-.954h-.006a.61.61 0 00.006-.07v-.93zm5.955-1.024h-2.977v2.978h2.977V65.51zm5.956 1.954c0 .283-.1.525-.3.724-.2.2-.44.3-.724.3h-.93a.986.986 0 01-.724-.3c-.2-.2-.3-.44-.3-.724v-.93c0-.283.1-.525.3-.724.2-.2.44-.3.724-.3h.93c.283 0 .525.1.724.3.2.2.3.44.3.724v.93zm5.956-1.954h-2.978v2.978h2.978V65.51zm1.954 0h-1.954v2.978h1.954c.283 0 .524-.1.724-.3.2-.2.3-.44.3-.724v-.93c0-.283-.1-.525-.3-.724-.2-.2-.441-.3-.724-.3zm6.979 0H80.4v2.978h2.978V65.51zm8.933 0h-2.978v1.954c0 .283.1.525.3.724.2.2.44.3.724.3h1.954V65.51z" fill="#1D424B"/><path d="M95.289 65.511H92.31v2.978h2.978V65.51zm5.955 0H99.29c-.283 0-.524.1-.724.3-.2.2-.3.44-.3.724v1.954h2.978V65.51zm2.978 0h-2.978v2.978h2.978V65.51zm2.978 0h-2.978v2.978h2.978V65.51zm2.978 0H107.2v2.978h2.978V65.51zm5.955 1.954c0 .283-.1.525-.299.724-.2.2-.441.3-.724.3h-.931a.987.987 0 01-.724-.3.985.985 0 01-.299-.724v-.93c0-.283.099-.525.299-.724.2-.2.441-.3.724-.3h.931c.283 0 .524.1.724.3.199.2.299.44.299.724v.93zm5.956-1.954h-2.978v2.978h2.978V65.51zm2.978 0h-2.978v2.978h2.978V65.51zm5.955 0h-1.954c-.283 0-.524.1-.724.3-.2.2-.3.44-.3.724v1.954h2.978V65.51zm2.978 0h-2.978v2.978H134V65.51zM5.956 68.489H4c-.283 0-.524.1-.724.3-.2.2-.3.44-.3.724v.93c0 .283.1.525.3.724.2.2.441.3.724.3h1.955v-2.978zm1.954 0H5.956v2.978H7.91c.283 0 .524-.1.724-.3.2-.2.3-.44.3-.724v-.93c0-.284-.1-.525-.3-.725-.2-.2-.441-.3-.724-.3zm6.979 0H11.91v2.978h2.978v-2.978zm11.911 0h-2.978v2.978H26.8v-2.978zm5.956 0H30.8c-.283 0-.524.1-.724.3-.2.2-.3.44-.3.724v.93c0 .283.1.525.3.724.2.2.441.3.724.3h1.955v-2.978zm2.977 0h-2.977v2.978h1.954c.283 0 .524-.1.724-.3.2-.2.3-.44.3-.724V68.49zm8.934 0h-2.978v1.954c0 .283.1.525.3.724.2.2.44.3.724.3h1.954v-2.978zm2.977 0h-2.977v2.978h2.977v-2.978zm8.934 0H53.6v1.954c0 .283.1.525.3.724.2.2.44.3.724.3h1.954v-2.978z" fill="#1D424B"/><path d="M59.556 68.489h-2.978v2.978h2.978v-2.978zm2.977 0h-2.977v2.978h2.977v-2.978zm11.912 0h-2.978v2.978h2.978v-2.978zm5.955 0h-1.954c-.283 0-.525.1-.724.3-.2.2-.3.44-.3.724v.93c0 .283.1.525.3.724.2.2.44.3.724.3H80.4v-2.978zm2.978 0H80.4v2.978h1.954c.283 0 .525-.1.724-.3.2-.2.3-.44.3-.724V68.49zm5.955 1.954c0 .283-.1.525-.3.724-.199.2-.44.3-.723.3h-.93a.987.987 0 01-.725-.3c-.2-.2-.3-.44-.3-.724v-.93c0-.284.1-.525.3-.725.2-.2.441-.3.724-.3h.93c.284 0 .525.1.725.3.2.2.3.442.3.725v.93zm5.956-1.954H92.31v2.978h2.978v-2.978zm2.978 0h-2.978v2.978h2.978v-2.978zm2.977 0h-2.977v2.978h2.977v-2.978zm2.978 0h-2.978v2.978h1.955c.283 0 .524-.1.724-.3a.988.988 0 00.299-.724V68.49zm5.956 0H107.2v2.978h2.978v-2.978zm11.911 0h-2.978v2.978h2.978v-2.978zm2.978 0h-2.978v2.978h2.978v-2.978zm5.955 0h-2.978v2.978h2.978v-2.978zm2.978 0h-2.978v2.978H134v-2.978zM2.978 72.49c0-.283-.1-.524-.3-.724-.2-.2-.44-.3-.724-.3h-.93c-.283 0-.525.1-.724.3-.2.2-.3.441-.3.724v.93c0 .016.002.04.006.07H0v.955h2.978v-.954h-.006a.603.603 0 00.006-.07v-.93zm8.933-1.023H9.957c-.283 0-.524.1-.724.3-.2.199-.3.44-.3.723v.93c0 .284.1.525.3.725.2.2.44.3.724.3h1.954v-2.978z" fill="#1D424B"/><path d="M14.889 71.467H11.91v2.978h2.978v-2.978zm2.978 0h-2.978v2.978h2.978v-2.978zm2.977 0h-2.977v2.978h2.977v-2.978z" fill="#1D424B"/><path d="M23.822 71.467h-2.978v2.978h2.978v-2.978zm2.978 0h-2.978v2.978H26.8v-2.978zm11.911 0h-1.954c-.283 0-.524.1-.724.3-.2.199-.3.44-.3.723v.93c0 .284.1.525.3.725.2.2.44.3.724.3h1.954v-2.978zm2.978 1.023c0-.283-.1-.524-.3-.724-.2-.2-.44-.3-.724-.3h-1.954v2.979h2.978V72.49zm5.955-1.023h-2.977v1.954c0 .283.1.524.3.724.199.2.44.3.723.3h1.954v-2.978zm2.978 0h-2.978v2.978h2.978v-2.978zM53.6 72.49c0-.283-.1-.524-.3-.724-.2-.2-.44-.3-.724-.3h-1.954v2.979H53.6V72.49zm8.933-1.023h-2.977v2.978h2.977v-2.978z" fill="#1D424B"/><path d="M65.511 71.467h-2.978v2.978h2.978v-2.978z" fill="#1D424B"/><path d="M68.489 71.467H65.51v2.978h2.978v-2.978zm2.978 0h-2.978v2.978h2.978v-2.978zm2.978 0h-2.978v2.978h2.978v-2.978zm2.977 1.023c0-.283-.1-.524-.3-.724a.982.982 0 00-.723-.3h-1.954v2.979h2.977V72.49zm14.889-1.023h-1.954c-.283 0-.525.1-.724.3-.2.199-.3.44-.3.723v.93c0 .284.1.525.3.725.2.2.44.3.724.3h1.954v-2.978z" fill="#1D424B"/><path d="M95.289 71.467H92.31v2.978h2.978v-2.978zm11.911 0h-1.954c-.283 0-.525.1-.724.3-.2.199-.3.44-.3.723v1.955h2.978v-2.978zm2.978 0H107.2v2.978h2.978v-2.978zm2.978 0h-2.978v2.978h2.978v-2.978zm2.977 0h-2.977v2.978h2.977v-2.978zm2.978 0h-2.978v2.978h2.978v-2.978zm2.978 0h-2.978v2.978h2.978v-2.978zm2.978 0h-2.978v2.978h1.954c.283 0 .524-.1.724-.3.2-.2.3-.441.3-.724v-1.954zm5.955 0h-2.978v1.954c0 .283.1.524.3.724.2.2.441.3.724.3h1.954v-2.978zm2.978 0h-2.978v2.978h1.954c.283 0 .525-.1.724-.3.2-.2.3-.441.3-.724v-1.954zM2.978 74.445H0v2.977h2.978v-2.977zm2.978 1.023c0-.283-.1-.524-.3-.724-.2-.2-.441-.3-.724-.3H2.978v2.978h2.978v-1.954zm17.866-1.023h-2.978v1.954c0 .283.1.524.3.724.2.2.441.3.724.3h1.954v-2.978zm2.978 0h-2.978v2.977h1.954c.283 0 .525-.1.724-.3.2-.199.3-.44.3-.723v-1.954zm5.956 1.954c0 .283-.1.524-.3.724-.2.2-.441.3-.724.3h-.93a.987.987 0 01-.725-.3c-.2-.2-.3-.441-.3-.724v-.93c0-.284.1-.525.3-.725.2-.2.441-.3.724-.3h.93c.284 0 .525.1.725.3.2.2.3.441.3.724v.93zm8.933-1.954H38.71v1.954c0 .283.1.524.3.724.2.2.44.3.724.3h1.954v-2.978zm2.978 1.023c0-.283-.1-.524-.3-.724-.2-.2-.44-.3-.724-.3H41.69v2.978h2.978v-1.954zm8.933-1.023h-2.978v2.977H53.6v-2.977zm5.956 0H57.6c-.283 0-.524.1-.724.299-.2.2-.3.441-.3.724v1.954h2.979v-2.977zm2.977 0h-2.977v2.977h2.977v-2.977zm5.956 0H65.51v1.954c0 .283.1.524.3.724.2.2.44.3.724.3h1.954v-2.978zm2.978 0h-2.978v2.977h2.978v-2.977zm2.978 0h-2.978v2.977h2.978v-2.977zm2.977 0h-2.977v2.977h2.977v-2.977zm2.978 0h-2.978v2.977H80.4v-2.977zm1.954 0H80.4v2.977h1.954c.283 0 .525-.1.724-.3.2-.199.3-.44.3-.723v-.93c0-.284-.1-.525-.3-.725-.2-.2-.44-.3-.724-.3zm12.935 0H92.31v2.977h2.978v-2.977zm5.955 1.954a.985.985 0 01-.299.724c-.2.2-.441.3-.724.3h-.93a.987.987 0 01-.725-.3c-.2-.2-.3-.441-.3-.724v-.93c0-.284.1-.525.3-.725.2-.2.441-.3.724-.3h.931c.283 0 .524.1.724.3.2.2.299.441.299.724v.93zm5.956-1.954h-2.978v1.954c0 .283.1.524.3.724.199.2.441.3.724.3h1.954v-2.978zm2.978 0H107.2v2.977h2.978v-2.977zm2.978 0h-2.978v2.977h1.954c.283 0 .524-.1.724-.3.2-.199.3-.44.3-.723v-1.954zm5.949.953h.006v-.953h-2.978v.953h.006a.597.597 0 00-.006.07v.93c0 .284.1.525.3.725.2.2.441.3.724.3h.931c.283 0 .524-.1.724-.3a.989.989 0 00.299-.724v-.93a.597.597 0 00-.006-.07zM2.978 77.422H0v1.954c0 .283.1.525.3.724.2.2.44.3.724.3h1.954v-2.978zm2.978 0H2.978V80.4h1.954c.283 0 .524-.1.724-.3.2-.2.3-.44.3-.724v-1.954zm14.888 1.954c0 .283-.1.525-.3.724-.199.2-.44.3-.723.3h-.93a.987.987 0 01-.725-.3c-.2-.2-.3-.44-.3-.724v-.93c0-.283.1-.525.3-.724.2-.2.441-.3.724-.3h.93c.284 0 .525.1.725.3.2.2.3.44.3.724v.93zm23.816-1h.007v-.954h-2.978v.954h.006a.613.613 0 00-.006.07v.93c0 .283.1.525.3.724.2.2.44.3.724.3h.93c.283 0 .524-.1.724-.3.2-.2.3-.44.3-.724v-.93a.613.613 0 00-.006-.07zm8.94-.954h-2.978v1.954c0 .283.1.525.3.724.2.2.44.3.724.3H53.6v-2.978zm2.978 0H53.6V80.4h2.978v-2.978z" fill="#1D424B"/><path d="M59.556 77.422h-2.978V80.4h2.978v-2.978zm2.977 0h-2.977V80.4h1.954c.283 0 .524-.1.724-.3.2-.2.3-.44.3-.724v-1.954zm8.934 0h-2.978V80.4h2.978v-2.978zm2.978 0h-2.978V80.4h2.978v-2.978zm2.977 0h-2.977V80.4h2.977v-2.978zm2.978 0h-2.978V80.4h1.954c.283 0 .525-.1.724-.3.2-.2.3-.44.3-.724v-1.954zm5.956 0H84.4c-.283 0-.524.1-.724.3-.2.2-.3.44-.3.724V80.4h2.979v-2.978zm2.977 0h-2.977V80.4h2.977v-2.978zm2.978 0h-2.978V80.4h2.978v-2.978z" fill="#1D424B"/><path d="M95.289 77.422H92.31V80.4h1.954c.283 0 .525-.1.724-.3.2-.2.3-.44.3-.724v-1.954zm14.883.954h.006v-.954H107.2v.954h.006a.6.6 0 00-.006.07v.93c0 .283.1.525.3.724.199.2.441.3.724.3h.93c.283 0 .525-.1.724-.3.2-.2.3-.44.3-.724v-.93a.6.6 0 00-.006-.07zm14.895.07c0-.283-.1-.525-.3-.724-.2-.2-.441-.3-.724-.3h-.93c-.284 0-.525.1-.725.3a.989.989 0 00-.299.724v.93c0 .016.002.04.006.07h-.006v.954h2.978v-.954h-.006a.598.598 0 00.006-.07v-.93zM8.933 81.424c0-.283-.1-.525-.3-.725a.981.981 0 00-.723-.299h-.93c-.284 0-.525.1-.725.3-.2.2-.3.44-.3.724v.93c0 .016.002.039.006.07h-.005v.954h2.977v-.954h-.005a.604.604 0 00.005-.07v-.93zm8.934 0c0-.283-.1-.525-.3-.725a.984.984 0 00-.724-.299h-.93c-.284 0-.525.1-.725.3-.2.2-.3.44-.3.724v.93a.61.61 0 00.007.07h-.006v.954h2.978v-.954h-.006a.61.61 0 00.006-.07v-.93zm5.955.93c0 .283-.1.525-.3.724-.199.2-.44.3-.723.3h-.93a.986.986 0 01-.725-.3c-.2-.2-.3-.44-.3-.724v-.93c0-.283.1-.525.3-.724.2-.2.441-.3.724-.3h.93c.284 0 .525.1.725.3.2.2.3.44.3.724v.93zm5.956-1.954h-1.954c-.283 0-.525.1-.725.3-.2.2-.299.44-.299.724v.93c0 .283.1.525.3.724.2.2.44.3.724.3h1.954V80.4zm2.978 0h-2.978v2.978h2.978V80.4zm2.977 0h-2.977v2.978h2.977V80.4zm1.955 0h-1.955v2.978h1.955c.282 0 .524-.1.724-.3.2-.2.3-.44.3-.724v-.93c0-.283-.1-.525-.3-.725a.985.985 0 00-.724-.299zm9.956 1.954c0 .283-.1.525-.3.724-.199.2-.44.3-.723.3h-.93a.987.987 0 01-.725-.3c-.2-.2-.3-.44-.3-.724v-.93c0-.283.1-.525.3-.724.2-.2.441-.3.724-.3h.93c.284 0 .525.1.725.3.2.2.3.44.3.724v.93zm17.867 0c0 .283-.1.525-.3.724-.2.2-.44.3-.724.3h-.93a.986.986 0 01-.724-.3c-.2-.2-.3-.44-.3-.724v-.93c0-.283.1-.525.3-.724.2-.2.44-.3.724-.3h.93c.284 0 .525.1.725.3.2.2.3.44.3.724v.93zm5.956-1.954h-2.978v2.978h2.978V80.4zm2.978 0h-2.978v2.978h1.954c.283 0 .524-.1.724-.3.2-.2.3-.44.3-.724V80.4zm8.933 0h-1.954c-.283 0-.525.1-.725.3-.2.2-.299.44-.299.724v1.954h2.978V80.4zm2.978 0h-2.978v2.978h2.978V80.4zm2.977 0h-2.977v2.978h1.954c.283 0 .524-.1.724-.3.2-.2.3-.44.3-.724V80.4zm8.934 1.024c0-.283-.1-.525-.3-.725a.984.984 0 00-.724-.299h-.93c-.284 0-.525.1-.725.3-.2.2-.3.44-.3.724v.93a.61.61 0 00.007.07h-.006v.954h2.978v-.954h-.006a.61.61 0 00.006-.07v-.93zm8.933 0c0-.283-.1-.525-.3-.725a.986.986 0 00-.724-.299h-.93c-.283 0-.525.1-.724.3-.2.2-.3.44-.3.724v.93c0 .016.002.039.006.07h-.006v.954h2.978v-.954h-.006a.598.598 0 00.006-.07v-.93zm8.933.93c0 .283-.1.525-.299.724-.2.2-.441.3-.724.3h-.931a.987.987 0 01-.724-.3.984.984 0 01-.299-.724v-.93c0-.283.099-.525.299-.724.2-.2.441-.3.724-.3h.931c.283 0 .524.1.724.3.199.2.299.44.299.724v.93zm5.956-1.954h-1.954c-.283 0-.525.1-.724.3-.2.2-.3.44-.3.724v1.954h2.978V80.4zm2.978 0h-2.978v2.978h2.978V80.4zm2.977 0h-2.977v2.978h2.977V80.4z" fill="#1D424B"/><path d="M129.999 80.4h-1.955v2.978h1.955c.283 0 .524-.1.724-.3a.988.988 0 00.299-.724v-.93c0-.283-.1-.525-.299-.725a.985.985 0 00-.724-.299zM2.978 83.378H1.024c-.283 0-.525.1-.724.3-.2.199-.3.44-.3.723v.93c0 .284.1.525.3.725.2.2.44.3.724.3h1.954v-2.978zm2.978 0H2.978v2.978h2.978v-2.978zm2.977 0H5.956v2.978H7.91c.283 0 .524-.1.724-.3.2-.2.3-.441.3-.724v-1.954zm5.956 0h-1.954c-.283 0-.525.1-.724.3-.2.199-.3.44-.3.723v1.955h2.978v-2.978zm2.978 0h-2.978v2.978h2.978v-2.978zm1.953 0h-1.953v2.978h1.954c.283 0 .524-.1.724-.3.2-.2.3-.441.3-.724v-.93c0-.284-.1-.525-.3-.725-.2-.2-.441-.3-.724-.3zm6.98 1.023c0-.283-.1-.524-.3-.724-.2-.2-.44-.3-.724-.3h-.93c-.283 0-.525.1-.724.3-.2.2-.3.441-.3.724v.93c0 .016.002.04.006.07h-.006v.955H26.8v-.954h-.006a.607.607 0 00.006-.07v-.93zm5.956-1.023h-2.978v2.978h2.978v-2.978zm2.977 0h-2.977v2.978h2.977v-2.978zm5.956 0h-1.954c-.283 0-.525.1-.724.3-.2.199-.3.44-.3.723v.93c0 .284.1.525.3.725.2.2.44.3.724.3h1.954v-2.978zm2.978 1.023c0-.283-.1-.524-.3-.724-.2-.2-.44-.3-.724-.3H41.69v2.979h2.978V84.4zm5.955-1.023h-1.954c-.283 0-.524.1-.724.3-.2.199-.3.44-.3.723v1.955h2.978v-2.978zm2.978 1.023c0-.283-.1-.524-.3-.724-.2-.2-.44-.3-.724-.3h-1.954v2.979H53.6V84.4zm8.933 0c0-.283-.1-.524-.3-.724a.982.982 0 00-.723-.3h-.93c-.284 0-.525.1-.725.3-.2.2-.3.441-.3.724v.93c0 .016.002.04.006.07h-.005v.955h2.977v-.954h-.005a.585.585 0 00.005-.07v-.93zm8.934-1.023h-2.978v2.978h2.978v-2.978zm11.911 0H80.4v2.978h2.978v-2.978zm11.911 0h-1.954c-.283 0-.525.1-.724.3-.2.199-.3.44-.3.723v1.955h2.978v-2.978zm2.978 0h-2.978v2.978h2.978v-2.978zm2.977 1.023a.985.985 0 00-.299-.724c-.2-.2-.441-.3-.724-.3h-1.954v2.979h2.977V84.4zm5.956-1.023h-2.978v2.978h2.978v-2.978zm2.978 1.023c0-.283-.1-.524-.3-.724a.986.986 0 00-.724-.3H107.2v2.979h2.978V84.4zm8.933-1.023h-1.954c-.283 0-.524.1-.724.3-.2.199-.3.44-.3.723v1.955h2.978v-2.978zm2.978 0h-2.978v2.978h2.978v-2.978zm5.95.954h.005v-.954h-2.977v.954h.005a.842.842 0 00-.005.07v.93c0 .283.1.524.299.724.2.2.441.3.724.3h.931c.283 0 .524-.1.724-.3.2-.2.299-.441.299-.724v-.93a.55.55 0 00-.005-.07zM5.956 86.356H2.978v2.977h2.978v-2.977zm8.927.954h.006v-.954H11.91v.953h.006a.61.61 0 00-.006.07v.93c0 .284.1.525.3.725.2.2.44.3.724.3h.93c.283 0 .525-.1.724-.3.2-.2.3-.441.3-.724v-.93a.61.61 0 00-.006-.07zm11.917-.954h-2.978v2.977H26.8v-2.977zm2.978 0H26.8v2.977h2.978v-2.977z" fill="#1D424B"/><path d="M32.756 86.356h-2.978v2.977h2.978v-2.977zm2.977 0h-2.977v2.977h2.977v-2.977zm1.955 0h-1.955v2.977h1.955c.282 0 .524-.1.724-.3.2-.199.3-.44.3-.723v-.93c0-.284-.1-.525-.3-.725-.2-.2-.441-.3-.724-.3zm6.972.954h.007v-.954h-2.978v.953h.006a.61.61 0 00-.006.07v.93c0 .284.1.525.3.725.2.2.44.3.724.3h.93c.283 0 .524-.1.724-.3.2-.2.3-.441.3-.724v-.93a.61.61 0 00-.006-.07zm5.962-.954h-2.978v1.954c0 .283.1.524.3.724.2.2.441.3.724.3h1.954v-2.978zm2.978 0h-2.978v2.977H53.6v-2.977zm8.933 0h-2.977v2.977h2.977v-2.977z" fill="#1D424B"/><path d="M64.487 86.356h-1.954v2.977h1.954c.284 0 .525-.1.725-.3.2-.199.3-.44.3-.723v-.93c0-.284-.1-.525-.3-.725-.2-.2-.442-.3-.725-.3zm6.98 0h-2.978v2.977h2.978v-2.977zm5.955 1.024c0-.284-.1-.525-.3-.725a.982.982 0 00-.723-.3h-.93c-.284 0-.525.1-.725.3-.2.2-.3.441-.3.724v.93a.61.61 0 00.006.07h-.005v.954h2.977v-.954h-.006a.61.61 0 00.006-.07v-.93zm5.956-1.024H80.4v2.977h2.978v-2.977zm2.978 0h-2.978v2.977h2.978v-2.977zm2.977 1.024c0-.284-.1-.525-.3-.725a.982.982 0 00-.723-.3h-1.954v2.978h2.977V87.38zm5.956-1.024H92.31v2.977h2.978v-2.977zm2.978 0h-2.978v2.977h2.978v-2.977zm2.977 0h-2.977v2.977h2.977v-2.977zm2.978 0h-2.978v2.977h2.978v-2.977zm2.978 0h-2.978v2.977h2.978v-2.977zm2.978 0H107.2v2.977h2.978v-2.977zm2.978 0h-2.978v2.977h2.978v-2.977zm2.977 0h-2.977v2.977h2.977v-2.977zm2.978 0h-2.978v2.977h2.978v-2.977zm2.978 0h-2.978v2.977h1.954c.283 0 .525-.1.724-.3.2-.199.3-.44.3-.723v-1.954zM134 88.31c0 .283-.1.524-.3.724-.199.2-.441.3-.724.3h-.93a.986.986 0 01-.724-.3c-.2-.2-.3-.441-.3-.724v-.93c0-.284.1-.525.3-.725.199-.2.441-.3.724-.3h.93c.284 0 .525.1.724.3.2.2.3.441.3.724v.93zM5.956 89.333H2.978v1.954c0 .283.1.525.3.725.199.2.44.3.723.3h1.955v-2.979zm2.977 1.024c0-.283-.1-.525-.3-.724a.982.982 0 00-.723-.3H5.956v2.978h2.977v-1.954zm8.934-1.024h-1.955c-.283 0-.524.1-.724.3-.2.2-.3.44-.3.724v1.954h2.979v-2.978zm2.977 0h-2.977v2.978h2.977v-2.978z" fill="#1D424B"/><path d="M23.822 89.333h-2.978v2.978h2.978v-2.978zm2.978 0h-2.978v2.978h1.954c.283 0 .525-.1.724-.3.2-.2.3-.44.3-.724v-1.954zm8.927.954h.006v-.954h-2.977v.954h.005a.613.613 0 00-.005.07v.93c0 .283.1.525.3.725.199.2.44.3.723.3h.93c.284 0 .525-.1.725-.3.2-.2.3-.442.3-.725v-.93a.59.59 0 00-.007-.07zm5.962.07c0-.283-.1-.525-.3-.724-.2-.2-.44-.3-.724-.3h-.93c-.283 0-.525.1-.724.3-.2.2-.3.44-.3.724v.93c0 .016.002.04.006.07h-.006v.954h2.978v-.954h-.006a.61.61 0 00.006-.07v-.93zM53.6 89.333h-2.978v1.954c0 .283.1.525.3.725.2.2.44.3.724.3H53.6v-2.979zm2.978 1.024c0-.283-.1-.525-.3-.724-.2-.2-.44-.3-.724-.3H53.6v2.978h2.978v-1.954zm5.95-.07h.005v-.954h-2.977v.954h.005a.613.613 0 00-.005.07v.93c0 .283.1.525.3.725.199.2.44.3.723.3h.93c.284 0 .525-.1.725-.3.2-.2.3-.442.3-.725v-.93a.59.59 0 00-.006-.07zm5.961-.954h-1.954c-.283 0-.525.1-.724.3-.2.2-.3.44-.3.724v.93c0 .283.1.525.3.725.2.2.44.3.724.3h1.954v-2.979zm2.978 0h-2.978v2.978h1.954c.283 0 .525-.1.724-.3.2-.2.3-.44.3-.724v-1.954zm5.955 0h-2.977v2.978h2.977v-2.978zm2.978 0h-2.978v2.978H80.4v-2.978zm2.978 0H80.4v2.978h2.978v-2.978zm5.95.954h.005v-.954h-2.977v.954h.005a.613.613 0 00-.005.07v.93c0 .283.1.525.3.725.199.2.44.3.723.3h.93c.284 0 .525-.1.725-.3.2-.2.3-.442.3-.725v-.93a.59.59 0 00-.007-.07zm5.961-.954H92.31v2.978h2.978v-2.978zm8.933 0h-2.978v1.954c0 .283.1.525.3.725.2.2.441.3.724.3h1.954v-2.979zm2.978 0h-2.978v2.978h2.978v-2.978zm2.978 0H107.2v2.978h1.954c.283 0 .525-.1.724-.3.2-.2.3-.44.3-.724v-1.954zm8.927.954h.006v-.954h-2.978v.954h.006a.6.6 0 00-.006.07v.93c0 .283.1.525.3.725.2.2.441.3.724.3h.931c.283 0 .524-.1.724-.3a.989.989 0 00.299-.725v-.93a.6.6 0 00-.006-.07zm8.939 1a.985.985 0 01-.299.725c-.2.2-.441.3-.724.3h-.931a.987.987 0 01-.724-.3.989.989 0 01-.299-.725v-.93c0-.283.1-.524.299-.724.2-.2.441-.3.724-.3h.931c.283 0 .524.1.724.3.2.2.299.44.299.724v.93zM8.933 92.311H5.956v2.978h2.977V92.31zm5.956 0h-1.954c-.283 0-.525.1-.724.3-.2.2-.3.44-.3.724v1.954h2.978V92.31zm2.978 0h-2.978v2.978h2.978V92.31z" fill="#1D424B"/><path d="M23.822 92.311h-2.978v2.978h2.978V92.31zm5.956 0h-1.954c-.283 0-.525.1-.725.3-.2.2-.299.44-.299.724v1.954h2.978V92.31zm1.954 0h-1.954v2.978h1.954c.283 0 .524-.1.724-.3.2-.2.3-.44.3-.724v-.93c0-.283-.1-.525-.3-.724-.2-.2-.441-.3-.724-.3zm6.979 0h-1.954c-.283 0-.524.1-.724.3-.2.2-.3.44-.3.724v.93c0 .283.1.525.3.724.2.2.44.3.724.3h1.954V92.31z" fill="#1D424B"/><path d="M41.689 92.311H38.71v2.978h2.978V92.31zm2.978 0h-2.978v2.978h2.978V92.31zm2.977 0h-2.977v2.978h2.977V92.31zm2.978 1.024c0-.283-.1-.525-.3-.724a.982.982 0 00-.723-.3h-1.955v2.978h2.978v-1.954zm5.956-1.024H53.6v1.954c0 .283.1.525.3.724.2.2.44.3.724.3h1.954V92.31z" fill="#1D424B"/><path d="M58.532 92.311h-1.954v2.978h1.954c.283 0 .524-.1.724-.3.2-.2.3-.44.3-.724v-.93c0-.283-.1-.525-.3-.724-.2-.2-.441-.3-.724-.3zm6.979 1.024c0-.283-.1-.525-.3-.724-.2-.2-.44-.3-.724-.3h-.93c-.283 0-.525.1-.724.3-.2.2-.3.44-.3.724v.93c0 .016.002.04.006.07h-.006v.954h2.978v-.954h-.006a.61.61 0 00.006-.07v-.93zm11.911-1.024h-2.977v1.954c0 .283.1.525.299.724.2.2.441.3.724.3h1.954V92.31zm2.978 0h-2.978v2.978H80.4V92.31zm2.978 0H80.4v2.978h2.978V92.31zm2.978 1.024c0-.283-.1-.525-.3-.724-.2-.2-.441-.3-.724-.3h-1.954v2.978h2.978v-1.954zm8.927-.07h.006v-.954H92.31v.954h.006a.613.613 0 00-.006.07v.93c0 .283.1.525.3.724.2.2.44.3.724.3h.93c.283 0 .525-.1.724-.3.2-.2.3-.44.3-.724v-.93a.613.613 0 00-.006-.07zm5.961.07a.984.984 0 00-.299-.724c-.2-.2-.441-.3-.724-.3h-.93c-.284 0-.525.1-.725.3-.2.2-.3.44-.3.724v.93a.61.61 0 00.006.07h-.005v.954h2.977v-.954h-.005a.55.55 0 00.005-.07v-.93zm23.823 0c0-.283-.1-.525-.3-.724-.2-.2-.441-.3-.724-.3h-.93c-.284 0-.525.1-.725.3a.988.988 0 00-.299.724v.93c0 .016.002.04.006.07h-.006v.954h2.978v-.954h-.006a.598.598 0 00.006-.07v-.93zm5.955-1.024h-1.954c-.283 0-.524.1-.724.3-.2.2-.3.44-.3.724v.93c0 .283.1.525.3.724.2.2.441.3.724.3h1.954V92.31zM134 93.335c0-.283-.1-.525-.3-.724a.985.985 0 00-.724-.3h-1.954v2.978H134v-1.954zM2.978 95.289H1.024c-.283 0-.525.1-.724.3-.2.2-.3.44-.3.724v1.954h2.978v-2.978zm2.978 0H2.978v2.978h2.978v-2.978zm2.977 0H5.956v2.978h2.977v-2.978zm2.978 0H8.933v2.978h2.978v-2.978z" fill="#1D424B"/><path d="M14.889 95.289H11.91v2.978h2.978v-2.978zm2.978 0h-2.978v2.978h2.978v-2.978zm2.977 0h-2.977v2.978h2.977v-2.978z" fill="#1D424B"/><path d="M23.822 95.289h-2.978v2.978h2.978v-2.978zm2.978 0h-2.978v2.978H26.8v-2.978zm2.978 0H26.8v2.978h1.954c.283 0 .525-.1.724-.3.2-.2.3-.44.3-.724V95.29zm5.955 1.954c0 .283-.1.525-.3.724-.199.2-.44.3-.723.3h-.93a.987.987 0 01-.725-.3c-.2-.2-.3-.44-.3-.724v-.93c0-.284.1-.525.3-.725.2-.2.441-.3.724-.3h.93c.284 0 .525.1.725.3.2.2.3.442.3.725v.93zm5.956-1.954H38.71v2.978h2.978v-2.978zm8.933 0h-2.978v1.954c0 .283.1.525.3.724.2.2.441.3.724.3h1.954v-2.978zm2.978 1.024c0-.284-.1-.525-.3-.725-.2-.2-.44-.3-.724-.3h-1.954v2.979H53.6v-1.954zm11.911-1.024h-2.978v2.978h2.978v-2.978z" fill="#1D424B"/><path d="M68.489 95.289H65.51v2.978h2.978v-2.978zm1.954 0H68.49v2.978h1.954c.283 0 .525-.1.724-.3.2-.2.3-.44.3-.724v-.93c0-.284-.1-.525-.3-.725-.2-.2-.44-.3-.724-.3zm15.913 0h-2.978v2.978h2.978v-2.978zm14.888 0h-2.977v1.954c0 .283.1.525.3.724.199.2.44.3.723.3h1.954v-2.978zm1.955 0h-1.955v2.978h1.955c.283 0 .524-.1.724-.3a.988.988 0 00.299-.724v-.93a.99.99 0 00-.299-.725c-.2-.2-.441-.3-.724-.3zm6.979 1.954c0 .283-.1.525-.3.724-.199.2-.441.3-.724.3h-.93a.985.985 0 01-.724-.3c-.2-.2-.3-.44-.3-.724v-.93c0-.284.1-.525.3-.725.199-.2.441-.3.724-.3h.93c.283 0 .525.1.724.3.2.2.3.442.3.725v.93zm5.955-.93a.99.99 0 00-.299-.725c-.2-.2-.441-.3-.724-.3h-.931c-.283 0-.524.1-.724.3-.2.2-.299.442-.299.725v.93c0 .016.002.039.005.07h-.005v.954h2.977v-.954h-.005a.842.842 0 00.005-.07v-.93zm8.934-1.024h-2.978v1.954c0 .283.1.525.299.724.2.2.441.3.725.3h1.954v-2.978zm2.977 1.024a.985.985 0 00-.299-.725c-.2-.2-.441-.3-.724-.3h-1.954v2.979h2.977v-1.954zM134 95.289h-2.978v2.978H134v-2.978zM2.972 99.22h.006v-.953H0v.954h.006a.618.618 0 00-.006.07v.93c0 .283.1.524.3.724.2.2.44.299.724.299h.93a.985.985 0 00.724-.299c.2-.2.3-.441.3-.724v-.93a.604.604 0 00-.006-.07zm14.888 0h.007v-.953h-2.978v.954h.006a.61.61 0 00-.006.07v.93c0 .283.1.524.3.724.2.2.44.299.723.299h.931a.984.984 0 00.724-.299c.2-.2.3-.441.3-.724v-.93a.61.61 0 00-.006-.07zm5.962-.953h-2.978v2.977h2.978v-2.977zm2.978 0h-2.978v2.977h1.954a.985.985 0 00.724-.299c.2-.2.3-.441.3-.724v-1.954zm14.889 0H38.71v2.977h2.978v-2.977zm1.954 0H41.69v2.977h1.954a.984.984 0 00.724-.299c.2-.2.3-.441.3-.724v-.93c0-.284-.1-.525-.3-.725-.2-.2-.44-.3-.724-.3zm9.957 0h-2.978v1.954c0 .283.1.524.3.724.2.2.44.299.724.299H53.6v-2.977zm2.978 0H53.6v2.977h2.978v-2.977z" fill="#1D424B"/><path d="M59.556 98.267h-2.978v2.977h2.978v-2.977zm2.977 0h-2.977v2.977h2.977v-2.977zm2.978 0h-2.978v2.977h2.978v-2.977z" fill="#1D424B"/><path d="M68.489 98.267H65.51v2.977h1.954a.985.985 0 00.724-.299c.2-.2.3-.441.3-.724v-1.954zm5.956 0H72.49c-.283 0-.524.1-.724.3-.2.199-.3.44-.3.723v1.954h2.979v-2.977zm2.977 1.023c0-.283-.1-.524-.3-.724a.982.982 0 00-.723-.3h-1.954v2.978h2.977V99.29zm5.956-1.023h-1.954c-.283 0-.525.1-.725.3a.981.981 0 00-.299.723v1.954h2.978v-2.977zm2.978 0h-2.978v2.977h2.978v-2.977zm5.955 0h-1.954c-.283 0-.525.1-.724.3-.2.199-.3.44-.3.723v1.954h2.978v-2.977zm1.954 0h-1.954v2.977h1.954a.985.985 0 00.724-.299c.2-.2.3-.441.3-.724v-.93c0-.284-.1-.525-.3-.725-.2-.2-.44-.3-.724-.3zm18.891 0h-1.955c-.283 0-.524.1-.724.3a.989.989 0 00-.299.723v1.954h2.978v-2.977z" fill="#1D424B"/><path d="M116.133 98.267h-2.977v2.977h2.977v-2.977zm11.911 0h-2.977v2.977h2.977v-2.977zm2.978 0h-2.978v2.977h2.978v-2.977zm2.978 0h-2.978v2.977H134v-2.977zm-119.111 4.001c0-.283-.1-.524-.3-.724-.2-.2-.44-.3-.724-.3h-.93c-.283 0-.525.1-.724.3-.2.2-.3.441-.3.724v.931c0 .015.002.038.006.069h-.006v.954h2.978v-.954h-.006a.609.609 0 00.006-.069v-.931zm5.955-1.024H18.89c-.283 0-.524.1-.724.3-.2.2-.3.441-.3.724v.931c0 .283.1.524.3.724.2.199.441.299.724.299h1.954v-2.978z" fill="#1D424B"/><path d="M23.822 101.244h-2.978v2.978h2.978v-2.978zm5.956 1.024c0-.283-.1-.524-.3-.724-.2-.2-.44-.3-.724-.3h-.93c-.283 0-.525.1-.725.3-.2.2-.299.441-.299.724v.931c0 .015.002.038.006.069H26.8v.954h2.978v-.954h-.006a.609.609 0 00.006-.069v-.931zm11.905-.07h.006v-.954H38.71v.954h.006a.647.647 0 00-.006.07v.931c0 .283.1.524.3.724.2.199.44.299.724.299h.93c.283 0 .525-.1.724-.299.2-.2.3-.441.3-.724v-.931a.622.622 0 00-.006-.07zm5.961-.954H45.69c-.283 0-.524.1-.724.3-.2.2-.3.441-.3.724v.931c0 .283.1.524.3.724.2.199.441.299.724.299h1.954v-2.978zm1.955 0h-1.955v2.978H49.6c.283 0 .524-.1.724-.299.2-.2.3-.441.3-.724v-.931c0-.283-.1-.524-.3-.724-.2-.2-.441-.3-.724-.3zm21.868 0h-1.954c-.284 0-.525.1-.725.3-.2.2-.3.441-.3.724v1.954h2.979v-2.978z" fill="#1D424B"/><path d="M74.445 101.244h-2.978v2.978h2.978v-2.978zm2.977 0h-2.977v2.978h1.954c.283 0 .524-.1.724-.299.2-.2.3-.441.3-.724v-1.955zm5.956 0H80.4v2.978h2.978v-2.978zm2.978 0h-2.978v2.978h2.978v-2.978zm2.977 0h-2.977v2.978h2.977v-2.978zm2.978 0h-2.978v2.978h1.954c.283 0 .525-.1.725-.299.2-.2.3-.441.3-.724v-1.955zm8.933 0H99.29c-.283 0-.524.1-.724.3-.2.2-.3.441-.3.724v1.954h2.978v-2.978z" fill="#1D424B"/><path d="M104.222 102.268c0-.283-.1-.524-.299-.724-.2-.2-.441-.3-.724-.3h-1.955v2.978h2.978v-1.954zm8.934-1.024h-2.978v2.978h2.978v-2.978zm2.977 0h-2.977v2.978h2.977v-2.978zm8.934 0h-1.954c-.284 0-.525.1-.725.3a.989.989 0 00-.299.724v1.954h2.978v-2.978zm2.977 0h-2.977v2.978h1.954c.283 0 .524-.1.724-.299.2-.2.299-.441.299-.724v-1.955zm5.95.954H134v-.954h-2.978v.954h.006a.61.61 0 00-.006.07v.931c0 .283.1.524.3.724a.987.987 0 00.724.299h.93c.283 0 .525-.1.724-.299.2-.2.3-.441.3-.724v-.931a.61.61 0 00-.006-.07zM5.956 104.222H4c-.283 0-.524.1-.724.3-.2.199-.3.441-.3.724v.93c0 .283.1.525.3.724.2.2.441.3.724.3h1.955v-2.978zm2.977 0H5.956v2.978h2.977v-2.978zm2.978 0H8.933v2.978h2.978v-2.978z" fill="#1D424B"/><path d="M14.889 104.222H11.91v2.978h2.978v-2.978zm8.927.954h.006v-.954h-2.978v.954h.006a.61.61 0 00-.006.07v.93c0 .283.1.525.3.724.2.2.441.3.724.3h.93c.284 0 .525-.1.725-.3.2-.199.3-.441.3-.724v-.93a.605.605 0 00-.007-.07zm5.962-.954H26.8v2.978h2.978v-2.978z" fill="#1D424B"/><path d="M32.756 104.222h-2.978v2.978h2.978v-2.978zm2.977 0h-2.977v2.978h2.977v-2.978zm1.955 0h-1.955v2.978h1.955c.282 0 .524-.1.724-.3.2-.199.3-.441.3-.724v-.93c0-.283-.1-.525-.3-.724-.2-.2-.441-.3-.724-.3zm6.979 1.954c0 .283-.1.525-.3.724-.2.2-.44.3-.724.3h-.93a.985.985 0 01-.724-.3.985.985 0 01-.3-.724v-.93c0-.283.1-.525.3-.724.2-.2.44-.3.724-.3h.93c.283 0 .524.1.724.3.2.199.3.441.3.724v.93zm8.933-1.954h-1.954c-.283 0-.525.1-.724.3-.2.199-.3.441-.3.724v.93c0 .283.1.525.3.724.2.2.44.3.724.3H53.6v-2.978zm2.978 0H53.6v2.978h2.978v-2.978z" fill="#1D424B"/><path d="M59.556 104.222h-2.978v2.978h2.978v-2.978zm2.977 0h-2.977v2.978h2.977v-2.978zm2.978 1.024c0-.283-.1-.525-.3-.724-.2-.2-.44-.3-.724-.3h-1.954v2.978h2.978v-1.954zm5.956-1.024h-2.978v2.978h2.978v-2.978zm8.933 0h-1.954c-.283 0-.525.1-.724.3-.2.199-.3.441-.3.724v.93c0 .283.1.525.3.724.2.2.44.3.724.3H80.4v-2.978zm2.978 0H80.4v2.978h2.978v-2.978zm17.866 0h-2.977v2.978h2.977v-2.978zm2.978 0h-2.978v2.978h2.978v-2.978zm1.954 0h-1.954v2.978h1.954c.283 0 .525-.1.724-.3.2-.199.3-.441.3-.724v-.93c0-.283-.1-.525-.3-.724a.984.984 0 00-.724-.3zm6.98 0h-2.978v2.978h2.978v-2.978zm2.977 0h-2.977v2.978h2.977v-2.978zm2.978 0h-2.978v2.978h2.978v-2.978zm2.978 0h-2.978v2.978h2.978v-2.978zm2.978 0h-2.978v2.978h2.978v-2.978zm5.955 1.954c0 .283-.1.525-.299.724-.2.2-.441.3-.724.3h-.931a.986.986 0 01-.724-.3.984.984 0 01-.3-.724v-.93c0-.283.1-.525.3-.724.2-.2.441-.3.724-.3h.931c.283 0 .524.1.724.3a.987.987 0 01.299.724v.93zM2.978 109.154c0 .283-.1.525-.3.724-.2.2-.44.3-.724.3h-.93a.986.986 0 01-.724-.3.985.985 0 01-.3-.724v-.93c0-.283.1-.525.3-.724.2-.2.44-.3.724-.3h.93c.283 0 .525.1.724.3.2.199.3.441.3.724v.93zm8.933-1.954H8.933v1.954c0 .283.1.525.3.724.2.2.44.3.724.3h1.954V107.2z" fill="#1D424B"/><path d="M14.889 107.2H11.91v2.978h1.954c.283 0 .525-.1.724-.3.2-.199.3-.441.3-.724V107.2zm5.955 1.954c0 .283-.1.525-.3.724-.199.2-.44.3-.723.3h-.93a.986.986 0 01-.725-.3.985.985 0 01-.3-.724v-.93c0-.283.1-.525.3-.724.2-.2.441-.3.724-.3h.93c.284 0 .525.1.725.3.2.199.3.441.3.724v.93zM26.8 107.2h-1.954c-.283 0-.525.1-.724.3-.2.199-.3.441-.3.724v1.954H26.8V107.2zm2.978 0H26.8v2.978h1.954c.283 0 .525-.1.724-.3.2-.199.3-.441.3-.724V107.2zm5.949.954h.006v-.954h-2.977v.954h.005a.605.605 0 00-.005.07v.93c0 .283.1.525.3.724.199.2.44.3.723.3h.93c.284 0 .525-.1.725-.3.2-.199.3-.441.3-.724v-.93a.583.583 0 00-.007-.07zm5.962.07c0-.283-.1-.525-.3-.724-.2-.2-.44-.3-.724-.3h-.93c-.283 0-.525.1-.724.3-.2.199-.3.441-.3.724v.93c0 .016.002.039.006.07h-.006v.954h2.978v-.954h-.006a.605.605 0 00.006-.07v-.93zm5.955-1.024H45.69c-.283 0-.524.1-.724.3-.2.199-.3.441-.3.724v.93c0 .283.1.525.3.724.2.2.441.3.724.3h1.954V107.2zm1.955 0h-1.955v2.978H49.6c.283 0 .524-.1.724-.3.2-.199.3-.441.3-.724v-.93c0-.283-.1-.525-.3-.724-.2-.2-.441-.3-.724-.3zm12.934 0h-2.977v2.978h2.977V107.2z" fill="#1D424B"/><path d="M65.511 107.2h-2.978v2.978h2.978V107.2z" fill="#1D424B"/><path d="M68.489 107.2H65.51v2.978h2.978V107.2zm2.978 0h-2.978v2.978h2.978V107.2zm2.978 0h-2.978v2.978h2.978V107.2zm2.977 1.024c0-.283-.1-.525-.3-.724a.982.982 0 00-.723-.3h-1.954v2.978h2.977v-1.954zm5.956-1.024H80.4v2.978h2.978V107.2zm8.933 0h-1.954c-.283 0-.525.1-.724.3-.2.199-.3.441-.3.724v.93c0 .283.1.525.3.724.2.2.44.3.724.3h1.954V107.2zm2.978 1.024c0-.283-.1-.525-.3-.724-.2-.2-.44-.3-.724-.3h-1.954v2.978h2.978v-1.954zm5.955-1.024h-2.977v2.978h2.977V107.2zm8.934 0h-1.954c-.283 0-.525.1-.724.3-.2.199-.3.441-.3.724v1.954h2.978V107.2zm2.978 0h-2.978v2.978h2.978V107.2zm2.977 0h-2.977v2.978h2.977V107.2zm2.978 0h-2.978v2.978h2.978V107.2zm2.978 0h-2.978v2.978h2.978V107.2zm2.978 0h-2.978v2.978h1.954c.283 0 .524-.1.724-.3.2-.199.3-.441.3-.724V107.2zM26.8 110.178h-2.978v2.978H26.8v-2.978zm5.956 1.954c0 .283-.1.524-.3.724-.2.2-.441.3-.724.3h-.93a.986.986 0 01-.725-.3c-.2-.2-.3-.441-.3-.724v-.931c0-.283.1-.524.3-.724a.989.989 0 01.724-.299h.93c.284 0 .525.1.725.299.2.2.3.441.3.724v.931zm8.927-1h.006v-.954H38.71v.954h.006a.633.633 0 00-.006.069v.931c0 .283.1.524.3.724.2.2.44.3.724.3h.93c.283 0 .525-.1.724-.3.2-.2.3-.441.3-.724v-.931a.609.609 0 00-.006-.069zm14.895-.954h-1.954c-.283 0-.525.1-.724.299-.2.2-.3.441-.3.724v.931c0 .283.1.524.3.724.2.2.44.3.724.3h1.954v-2.978z" fill="#1D424B"/><path d="M59.556 110.178h-2.978v2.978h2.978v-2.978zm2.977 0h-2.977v2.978h2.977v-2.978zm11.912 0h-2.978v2.978h2.978v-2.978zm2.977 0h-2.977v2.978h2.977v-2.978zm2.978 0h-2.978v2.978H80.4v-2.978zm2.978 0H80.4v2.978h2.978v-2.978zm2.978 0h-2.978v2.978h2.978v-2.978zm2.977 1.023c0-.283-.1-.524-.3-.724a.989.989 0 00-.723-.299h-1.954v2.978h2.977v-1.955zm5.956-1.023H92.31v1.954c0 .283.1.524.3.724.2.2.44.3.724.3h1.954v-2.978zm2.978 0h-2.978v2.978h2.978v-2.978zm2.977 0h-2.977v2.978h1.954c.283 0 .524-.1.724-.3.2-.2.299-.441.299-.724v-1.954zm8.934 0H107.2v2.978h2.978v-2.978zm11.911 0h-2.978v2.978h2.978v-2.978zM26.8 113.156h-2.978v2.977H26.8v-2.977zm8.933 1.954c0 .283-.1.524-.3.724a.989.989 0 01-.723.299h-.93a.989.989 0 01-.725-.299c-.2-.2-.3-.441-.3-.724v-.931c0-.283.1-.524.3-.724.2-.2.441-.299.724-.299h.93c.284 0 .525.099.725.299.2.2.3.441.3.724v.931zm8.934-1.954h-1.955a.985.985 0 00-.724.299c-.2.2-.3.441-.3.724v1.954h2.979v-2.977z" fill="#1D424B"/><path d="M47.644 113.156h-2.977v2.977h2.977v-2.977zm2.978 0h-2.978v2.977h2.978v-2.977zm1.954 0h-1.954v2.977h1.954c.283 0 .525-.1.724-.299.2-.2.3-.441.3-.724v-.931c0-.283-.1-.524-.3-.724a.985.985 0 00-.724-.299zm9.957 0h-2.977v2.977h2.977v-2.977zm5.956 1.954c0 .283-.1.524-.3.724a.989.989 0 01-.724.299h-.93a.988.988 0 01-.724-.299c-.2-.2-.3-.441-.3-.724v-.931c0-.283.1-.524.3-.724.2-.2.44-.299.724-.299h.93c.283 0 .525.099.724.299.2.2.3.441.3.724v.931zm5.956-1.954h-2.978v2.977h2.978v-2.977zm5.949.953h.006v-.953h-2.978v.953h.006a.647.647 0 00-.006.07v.931c0 .283.1.524.3.724.2.199.44.299.724.299h.93c.283 0 .525-.1.724-.299.2-.2.3-.441.3-.724v-.931a.622.622 0 00-.006-.07zm5.962-.953h-2.978v2.977h2.978v-2.977zm2.977 0h-2.977v2.977h2.977v-2.977zm2.978 1.023c0-.283-.1-.524-.3-.724a.985.985 0 00-.724-.299h-1.954v2.977h2.978v-1.954zm5.956-1.023h-2.978v2.977h2.978v-2.977zm8.933 0h-1.954a.984.984 0 00-.724.299c-.2.2-.3.441-.3.724v1.954h2.978v-2.977zm2.978 0H107.2v2.977h2.978v-2.977zm5.955 1.954c0 .283-.1.524-.299.724a.989.989 0 01-.724.299h-.931a.989.989 0 01-.724-.299.985.985 0 01-.299-.724v-.931c0-.283.099-.524.299-.724.2-.2.441-.299.724-.299h.931c.283 0 .524.099.724.299.199.2.299.441.299.724v.931zm5.956-1.954h-2.978v2.977h2.978v-2.977zM26.8 116.133h-2.978v1.955c0 .283.1.524.3.724.2.199.44.299.724.299H26.8v-2.978zm2.978 0H26.8v2.978h2.978v-2.978zm2.978 1.024c0-.283-.1-.524-.3-.724-.2-.2-.441-.3-.724-.3h-1.954v2.978h2.978v-1.954zm11.911-1.024h-2.978v1.955c0 .283.1.524.3.724.2.199.44.299.724.299h1.954v-2.978z" fill="#1D424B"/><path d="M47.644 116.133h-2.977v2.978h1.954c.283 0 .524-.1.724-.299.2-.2.3-.441.3-.724v-1.955zm8.934 1.955c0 .283-.1.524-.3.724a.988.988 0 01-.724.299h-.93a.988.988 0 01-.724-.299c-.2-.2-.3-.441-.3-.724v-.931c0-.283.1-.524.3-.724.2-.2.44-.3.724-.3h.93c.283 0 .525.1.724.3.2.2.3.441.3.724v.931zm5.955-1.955h-2.977v2.978h2.977v-2.978zm11.912 0h-2.978v2.978h2.978v-2.978zm2.977 1.024c0-.283-.1-.524-.3-.724a.982.982 0 00-.723-.3h-1.954v2.978h2.977v-1.954zm5.956-1.024h-1.954c-.283 0-.525.1-.725.3-.2.2-.299.441-.299.724v1.954h2.978v-2.978zm2.978 0h-2.978v2.978h1.954c.283 0 .524-.1.724-.299.2-.2.3-.441.3-.724v-1.955zm5.955 0h-2.978v2.978h2.978v-2.978zm5.956 0h-2.978v2.978h2.978v-2.978zm8.933 0h-2.978v1.955c0 .283.1.524.3.724a.987.987 0 00.724.299h1.954v-2.978zm2.978 0H107.2v2.978h2.978v-2.978zm11.911 0h-2.978v2.978h2.978v-2.978zm2.978 0h-2.978v2.978h2.978v-2.978zm2.977 0h-2.977v2.978h2.977v-2.978zm1.955 0h-1.955v2.978h1.955c.283 0 .524-.1.724-.299a.989.989 0 00.299-.724v-.931c0-.283-.1-.524-.299-.724-.2-.2-.441-.3-.724-.3zm-97.249 3.932h.006v-.954h-2.978v.954h.006a.605.605 0 00-.006.07v.93c0 .283.1.525.3.724.199.2.44.3.723.3h.93c.284 0 .525-.1.725-.3.2-.199.3-.441.3-.724v-.93a.605.605 0 00-.006-.07zm8.939 1c0 .283-.1.525-.3.724-.2.2-.44.3-.724.3h-.93a.985.985 0 01-.724-.3.985.985 0 01-.3-.724v-.93c0-.283.1-.525.3-.724.2-.2.44-.3.724-.3h.93c.283 0 .525.1.724.3.2.199.3.441.3.724v.93zm11.911-.93c0-.283-.1-.525-.3-.724-.2-.2-.44-.3-.724-.3h-.93c-.283 0-.525.1-.724.3-.2.199-.3.441-.3.724v.93c0 .016.002.039.006.07h-.006v.954H53.6v-.954h-.006a.605.605 0 00.006-.07v-.93zm8.933-1.024h-2.977v2.978h2.977v-2.978z" fill="#1D424B"/><path d="M65.511 119.111h-2.978v2.978h2.978v-2.978z" fill="#1D424B"/><path d="M68.489 119.111H65.51v2.978h2.978v-2.978zm2.978 0h-2.978v2.978h2.978v-2.978zm2.978 0h-2.978v2.978h2.978v-2.978zm2.977 0h-2.977v2.978h2.977v-2.978zm2.978 0h-2.978v2.978H80.4v-2.978zm2.978 0H80.4v2.978h1.954c.283 0 .525-.1.724-.3.2-.199.3-.441.3-.724v-1.954zm8.933 0h-2.978v1.954c0 .283.1.525.3.724.2.2.44.3.724.3h1.954v-2.978z" fill="#1D424B"/><path d="M95.289 119.111H92.31v2.978h2.978v-2.978zm2.978 0h-2.978v2.978h2.978v-2.978zm11.911 0H107.2v2.978h2.978v-2.978zm2.978 0h-2.978v2.978h2.978v-2.978zm2.977 0h-2.977v2.978h2.977v-2.978zm2.978 0h-2.978v2.978h2.978v-2.978zm2.978 0h-2.978v2.978h1.954c.283 0 .525-.1.724-.3.2-.199.3-.441.3-.724v-1.954zm5.955 0h-2.977v2.978h2.977v-2.978zm5.956 1.024c0-.283-.1-.525-.3-.724a.984.984 0 00-.724-.3h-.93c-.283 0-.525.1-.724.3-.2.199-.3.441-.3.724v.93c0 .016.002.039.006.07h-.006v.954H134v-.954h-.006a.593.593 0 00.006-.07v-.93zm-107.2 1.954h-1.954c-.283 0-.525.1-.724.299-.2.2-.3.441-.3.725v1.954H26.8v-2.978zm2.978 1.024c0-.284-.1-.525-.3-.725a.988.988 0 00-.724-.299H26.8v2.978h2.978v-1.954zm8.933 0c0-.284-.1-.525-.3-.725a.989.989 0 00-.724-.299h-.93c-.283 0-.524.1-.724.299-.2.2-.3.441-.3.725v.93c0 .016.002.039.006.07h-.006v.954h2.978v-.954h-.006a.605.605 0 00.006-.07v-.93zm5.956 0c0-.284-.1-.525-.3-.725a.988.988 0 00-.724-.299h-.93a.99.99 0 00-.725.299c-.2.2-.3.441-.3.725v.93c0 .016.003.039.007.07h-.006v.954h2.978v-.954h-.006a.605.605 0 00.006-.07v-.93zm5.955-1.024h-1.954c-.283 0-.524.1-.724.299-.2.2-.3.441-.3.725v.93c0 .283.1.524.3.724.2.2.441.3.724.3h1.954v-2.978zm2.978 0h-2.978v2.978H53.6v-2.978zm1.954 0H53.6v2.978h1.954c.283 0 .525-.1.724-.3.2-.2.3-.441.3-.724v-.93c0-.284-.1-.525-.3-.725a.988.988 0 00-.724-.299zm6.979 0h-2.977v1.954c0 .283.1.524.3.724.199.2.44.3.723.3h1.954v-2.978zm2.978 0h-2.978v2.978h2.978v-2.978z" fill="#1D424B"/><path d="M68.489 122.089H65.51v2.978h2.978v-2.978zm20.844 1.954c0 .283-.1.524-.3.724-.199.2-.44.3-.723.3h-.93a.986.986 0 01-.725-.3c-.2-.2-.3-.441-.3-.724v-.93c0-.284.1-.525.3-.725a.989.989 0 01.724-.299h.93c.284 0 .525.1.725.299.2.2.3.441.3.725v.93zm5.956-1.954H92.31v1.954c0 .283.1.524.3.724.2.2.44.3.724.3h1.954v-2.978zm2.978 0h-2.978v2.978h2.978v-2.978zm2.977 0h-2.977v2.978h2.977v-2.978z" fill="#1D424B"/><path d="M104.222 123.113a.99.99 0 00-.299-.725.989.989 0 00-.724-.299h-1.955v2.978h2.978v-1.954zm5.956-1.024H107.2v2.978h2.978v-2.978zm5.955 0h-2.977v1.954c0 .283.099.524.299.724.2.2.441.3.724.3h1.954v-2.978zm2.978 0h-2.978v2.978h1.955c.283 0 .524-.1.724-.3a.989.989 0 00.299-.724v-1.954zm8.933 0h-2.977v2.978h2.977v-2.978zm5.95.954H134v-.954h-2.978v.954h.006a.593.593 0 00-.006.07v.93c0 .283.1.524.3.724.199.2.441.3.724.3h.93c.283 0 .525-.1.724-.3.2-.2.3-.441.3-.724v-.93a.593.593 0 00-.006-.07zM26.8 125.067h-2.978v1.954c0 .283.1.524.3.724.2.2.44.299.724.299H26.8v-2.977zm2.978 0H26.8v2.977h2.978v-2.977z" fill="#1D424B"/><path d="M32.756 125.067h-2.978v2.977h2.978v-2.977zm2.977 0h-2.977v2.977h2.977v-2.977zm2.978 0h-2.978v2.977h2.978v-2.977z" fill="#1D424B"/><path d="M41.689 125.067H38.71v2.977h2.978v-2.977zm2.978 0h-2.978v2.977h2.978v-2.977zm2.977 1.023c0-.283-.1-.524-.3-.724a.988.988 0 00-.723-.299h-1.954v2.977h2.977v-1.954zm5.95-.07h.006v-.953h-2.978v.953h.006a.667.667 0 00-.006.07v.931c0 .283.1.524.3.724.2.2.44.299.724.299h.93a.985.985 0 00.724-.299c.2-.2.3-.441.3-.724v-.931a.64.64 0 00-.006-.07zm5.962 1.001c0 .283-.1.524-.3.724-.2.2-.441.299-.724.299h-.93a.985.985 0 01-.725-.299c-.2-.2-.3-.441-.3-.724v-.931c0-.283.1-.524.3-.724a.989.989 0 01.724-.299h.93c.284 0 .525.1.725.299.2.2.3.441.3.724v.931zm5.955-1.954h-2.978v1.954c0 .283.1.524.3.724.2.2.44.299.724.299h1.954v-2.977z" fill="#1D424B"/><path d="M68.489 125.067H65.51v2.977h2.978v-2.977zm2.978 0h-2.978v2.977h2.978v-2.977zm2.978 0h-2.978v2.977h2.978v-2.977zm2.977 0h-2.977v2.977h2.977v-2.977zm1.954 0h-1.954v2.977h1.954a.985.985 0 00.724-.299c.2-.2.3-.441.3-.724v-.931c0-.283-.1-.524-.3-.724a.989.989 0 00-.724-.299zm6.98 1.023c0-.283-.1-.524-.3-.724a.988.988 0 00-.724-.299h-.93a.99.99 0 00-.725.299c-.2.2-.3.441-.3.724v.931a.67.67 0 00.007.07h-.006v.953h2.978v-.953h-.006a.622.622 0 00.006-.07v-.931zm14.888-1.023h-2.977v1.954c0 .283.1.524.3.724.199.2.44.299.723.299h1.954v-2.977zm2.978 0h-2.978v2.977h2.978v-2.977zm2.978 0h-2.978v2.977h2.978v-2.977zm2.978 0H107.2v2.977h2.978v-2.977zm2.978 1.023c0-.283-.1-.524-.3-.724a.989.989 0 00-.724-.299h-1.954v2.977h2.978v-1.954zm14.888-1.023h-2.977v1.954c0 .283.1.524.299.724.2.2.441.299.724.299h1.954v-2.977zm1.955 0h-1.955v2.977h1.955a.985.985 0 00.724-.299.989.989 0 00.299-.724v-.931c0-.283-.1-.524-.299-.724a.989.989 0 00-.724-.299zm-100.227 3.931h.006v-.954H26.8v.954h.006a.622.622 0 00-.006.07v.931c0 .283.1.524.3.724.2.199.44.299.724.299h.93c.283 0 .525-.1.724-.299.2-.2.3-.441.3-.724v-.931a.622.622 0 00-.006-.07zm5.955 0h.006v-.954h-2.977v.954h.005a.622.622 0 00-.005.07v.931c0 .283.1.524.3.724.199.199.44.299.723.299h.93a.99.99 0 00.725-.299c.2-.2.3-.441.3-.724v-.931a.599.599 0 00-.007-.07zm5.962-.954H38.71v2.978h2.978v-2.978zm5.955 0h-2.977v2.978h2.977v-2.978zm8.934 1.955c0 .283-.1.524-.3.724a.988.988 0 01-.724.299h-.93a.988.988 0 01-.724-.299c-.2-.2-.3-.441-.3-.724v-.931c0-.283.1-.524.3-.724.2-.2.44-.3.724-.3h.93c.283 0 .525.1.724.3.2.2.3.441.3.724v.931zm17.861-1.001h.006v-.954h-2.978v.954h.005a.622.622 0 00-.005.07v.931c0 .283.1.524.3.724.199.199.44.299.723.299h.93a.99.99 0 00.725-.299c.2-.2.3-.441.3-.724v-.931a.604.604 0 00-.006-.07zm11.917-.954h-2.978v2.978h2.978v-2.978zm1.954 0h-1.954v2.978h1.954c.283 0 .524-.1.724-.299.2-.2.3-.441.3-.724v-.931c0-.283-.1-.524-.3-.724-.2-.2-.441-.3-.724-.3zm6.979 1.955c0 .283-.1.524-.3.724a.989.989 0 01-.724.299h-.93a.988.988 0 01-.724-.299c-.2-.2-.3-.441-.3-.724v-.931c0-.283.1-.524.3-.724.2-.2.44-.3.724-.3h.93c.283 0 .525.1.724.3.2.2.3.441.3.724v.931zm11.911-1.955h-2.978v2.978h2.978v-2.978zm5.956 0h-2.978v1.955c0 .283.1.524.299.724.2.199.441.299.724.299h1.955v-2.978z" fill="#1D424B"/><path d="M116.133 128.044h-2.977v2.978h2.977v-2.978zm2.978 0h-2.978v2.978h2.978v-2.978zm2.978 0h-2.978v2.978h2.978v-2.978zm1.954 0h-1.954v2.978h1.954c.283 0 .524-.1.724-.299.2-.2.3-.441.3-.724v-.931c0-.283-.1-.524-.3-.724-.2-.2-.441-.3-.724-.3zm9.957 1.955c0 .283-.1.524-.3.724a.987.987 0 01-.724.299h-.93a.987.987 0 01-.724-.299c-.2-.2-.3-.441-.3-.724v-.931c0-.283.1-.524.3-.724.199-.2.441-.3.724-.3h.93c.284 0 .525.1.724.3.2.2.3.441.3.724v.931zm-107.2 2.977c0 .283-.1.525-.3.724-.2.2-.44.3-.724.3h-.93a.985.985 0 01-.724-.3.985.985 0 01-.3-.724v-.93c0-.283.1-.525.3-.724.2-.2.44-.3.724-.3h.93c.284 0 .525.1.724.3.2.199.3.441.3.724v.93zm5.956 0c0 .283-.1.525-.3.724-.2.2-.441.3-.724.3h-.93a.986.986 0 01-.725-.3.986.986 0 01-.3-.724v-.93c0-.283.1-.525.3-.724.2-.2.441-.3.724-.3h.93c.284 0 .525.1.725.3.2.199.3.441.3.724v.93zm5.955-1.954h-1.954c-.283 0-.524.1-.724.3-.2.199-.3.441-.3.724v.93c0 .283.1.525.3.724.2.2.44.3.724.3h1.954v-2.978z" fill="#1D424B"/><path d="M41.689 131.022H38.71V134h1.954c.283 0 .525-.1.724-.3.2-.199.3-.441.3-.724v-1.954zm5.955 0h-2.977v1.954c0 .283.1.525.3.724.199.2.44.3.723.3h1.954v-2.978zm1.955 0h-1.955V134H49.6c.283 0 .524-.1.724-.3.2-.199.3-.441.3-.724v-.93c0-.283-.1-.525-.3-.724-.2-.2-.441-.3-.724-.3zm15.912 1.954c0 .283-.1.525-.3.724-.2.2-.44.3-.724.3h-.93a.986.986 0 01-.724-.3.985.985 0 01-.3-.724v-.93c0-.283.1-.525.3-.724.2-.2.44-.3.724-.3h.93c.284 0 .525.1.725.3.2.199.3.441.3.724v.93zm17.867-1.954h-1.954c-.283 0-.525.1-.725.3a.984.984 0 00-.299.724v.93c0 .283.1.525.3.724.2.2.44.3.724.3h1.954v-2.978zm2.978 0h-2.978V134h1.954c.283 0 .524-.1.724-.3.2-.199.3-.441.3-.724v-1.954zm20.844 0h-2.978v1.954c0 .283.1.525.3.724.199.2.441.3.724.3h1.954v-2.978zm1.954 0H107.2V134h1.954c.283 0 .525-.1.724-.3.2-.199.3-.441.3-.724v-.93c0-.283-.1-.525-.3-.724a.984.984 0 00-.724-.3zm9.951.954h.006v-.954h-2.978v.954h.006a.593.593 0 00-.006.07v.93c0 .283.1.525.3.724.2.2.441.3.724.3h.931c.283 0 .524-.1.724-.3a.987.987 0 00.299-.724v-.93a.593.593 0 00-.006-.07zm8.939 1a.984.984 0 01-.299.724c-.2.2-.441.3-.724.3h-.931a.986.986 0 01-.724-.3.987.987 0 01-.299-.724v-.93c0-.283.1-.525.299-.724.2-.2.441-.3.724-.3h.931c.283 0 .524.1.724.3.2.199.299.441.299.724v.93zM13.728.002H7.117C3.894.002 1.165 2.13.292 5.04A6.905 6.905 0 000 7.037v6.768c0 3.881 3.193 7.037 7.117 7.037h6.61c3.924 0 7.117-3.156 7.117-7.037V7.037c0-3.88-3.193-7.035-7.116-7.035zm3.99 13.803c0 2.156-1.79 3.91-3.99 3.91l-3.306.001H7.117c-2.2 0-3.99-1.755-3.99-3.91v-6.77c0-.673.174-1.307.482-1.86a3.966 3.966 0 011.219-1.34 4.024 4.024 0 012.288-.708h6.612c2.2 0 3.99 1.754 3.99 3.909v6.768zM126.884.002h-6.612c-3.222 0-5.952 2.129-6.825 5.038a6.946 6.946 0 00-.291 1.997v6.768c0 3.881 3.193 7.037 7.116 7.037h6.612c3.922 0 7.116-3.156 7.116-7.037V7.037c0-3.88-3.193-7.035-7.116-7.035zm3.989 13.803c0 2.156-1.789 3.91-3.99 3.91l-3.305.001h-3.305c-2.201 0-3.991-1.755-3.991-3.91v-6.77c0-.673.175-1.307.482-1.86a3.968 3.968 0 011.219-1.34 4.027 4.027 0 012.289-.708h6.612c2.2 0 3.989 1.754 3.989 3.909v6.768zM13.728 113.157H7.117c-3.223 0-5.952 2.129-6.825 5.039A6.905 6.905 0 000 120.192v6.769c0 3.881 3.193 7.037 7.117 7.037h6.61c3.924 0 7.117-3.157 7.117-7.038v-6.768c0-3.879-3.193-7.035-7.116-7.035zm3.99 13.804c0 2.156-1.79 3.91-3.99 3.91l-3.306.001-3.305-.001c-2.2 0-3.99-1.754-3.99-3.91v-6.769c0-.673.174-1.307.482-1.861a3.967 3.967 0 011.219-1.339 4.026 4.026 0 012.288-.708h6.612c2.2 0 3.99 1.753 3.99 3.908v6.769z" fill="#1D424B"/><path d="M8.399 14.889c-1.348 0-2.445-1.075-2.445-2.395V8.349c0-.412.108-.8.295-1.14.181-.327.438-.607.747-.82.397-.273.88-.433 1.402-.433h4.049c1.347 0 2.443 1.073 2.443 2.393v4.145c0 1.32-1.096 2.395-2.443 2.395H8.399zm113.155 0c-1.348 0-2.444-1.075-2.444-2.395V8.349c0-.412.107-.8.295-1.14a2.462 2.462 0 012.148-1.254h4.049c1.347 0 2.444 1.074 2.444 2.394v4.145c0 1.32-1.097 2.395-2.444 2.395h-4.048zM8.399 128.044c-1.348 0-2.445-1.074-2.445-2.394v-4.145c0-.413.108-.801.295-1.14.181-.327.438-.608.747-.82.397-.273.88-.434 1.402-.434h4.049c1.347 0 2.443 1.074 2.443 2.394v4.145c0 1.319-1.096 2.394-2.443 2.394H8.399z" fill="#1D424B"/></svg>