<svg width="271" height="287" fill="none" xmlns="http://www.w3.org/2000/svg"><path fill-rule="evenodd" clip-rule="evenodd" d="M4 42c-10.386 71.795-1.859 184.877 43.5 243.5 60-14 189-43.5 189-43.5-40.898-62.901-59-142-46.5-240.5C147.8 11.975 48.351 30.434 4 42z" fill="#fff"/><path d="M5.581 41.684s126.102-27.196 184.455-40.18c-11.465 83.488.99 167.095 37.503 220.76M3.335 50.108S-14.318 192.47 47.291 285.462c70.416-15.309 194.027-45.152 194.027-45.152l-8.415-10.72" stroke="#000" stroke-width="1.6" stroke-linecap="round" stroke-linejoin="round"/><path d="M135.802 92.073s-1.589-26.352-.236-41.386c12.613-3.02 23.302-5.365 23.283 3.383-.02 10.504-4.806 12.19-12.877 14.466-6.394 1.804-18.379 4.158-18.379 4.158m.138 9.396l24.94-7.219" stroke="#000" stroke-width="1.6" stroke-linecap="round" stroke-linejoin="round"/><path d="M30.894 77.647l68.778-15.692" stroke="#000" stroke-width="2" stroke-linecap="round" stroke-linejoin="round"/><path d="M29.962 100.204l56.53-12.907m-50.4 82.224L154.7 141.973M42.32 198.56l85.351-19.536" stroke="#000" stroke-linecap="round" stroke-linejoin="round"/><path d="M227.707 240.357l-99.926-1.28v-33.503l99.926-3.04v-17.619c14.743 11.489 29.058 23.75 42.584 36.53a588.13 588.13 0 01-42.584 36.531v-17.619z" fill="#61D284"/></svg>