<svg width="80" height="81" fill="none" xmlns="http://www.w3.org/2000/svg"><ellipse cx="40" cy="40.03" rx="40" ry="40.021" fill="#FEAEA5"/><path d="M26 59V32.58h9.131v-6.957L40 21l4.869 4.623v15.215H54V59H26zm1.547-1.567h6.644v-6.73h-6.644v6.73zm0-8.297h6.644v-6.73h-6.644v6.73zm0-8.298h6.644v-6.69h-6.644v6.69zm9.13 16.595h6.645v-6.73h-6.644v6.73zm0-8.297h6.645v-6.73h-6.644v6.73zm0-8.298h6.645v-6.69h-6.644v6.69zm0-8.258h6.645v-6.73h-6.644v6.73zm9.132 24.853h6.644v-6.73H45.81v6.73zm0-8.297h6.644v-6.73H45.81v6.73z" fill="#1D424B"/></svg>