<svg width="56" height="56" fill="none" xmlns="http://www.w3.org/2000/svg"><circle cx="28" cy="28" r="28" fill="#CCAACB"/><path d="M30.847 14.712c0 4.526 2.35 6.801 4.374 8.964C37.157 25.744 39 27.714 39 31.466 39 37.612 34.282 42 28.233 42 22.182 42 17 37.632 17 31.467c0-2.604 1.21-5.121 3.154-6.255.384-.224.845.009 1.01.426 1.258 3.19 2.81 3.135 3.614 2.318.488-.494.59-1.425-.005-2.633-3.023-6.144 2.342-10.57 5.28-11.305.422-.104.773.253.794.694zm-2.614 25.373c5.102 0 8.881-3.626 8.881-8.618 0-2.984-1.374-4.455-3.366-6.586l-.027-.03c-1.81-1.936-3.946-4.278-4.587-8.371a7.777 7.777 0 00-2.402 2.247c-.99 1.46-1.442 3.362-.272 5.74.758 1.538.977 3.498-.348 4.843-.826.84-2.215 1.405-3.716.748-.946-.413-1.701-1.219-2.311-2.285-.713.901-1.2 2.222-1.2 3.694 0 4.911 4.134 8.618 9.348 8.618z" fill="#1D424B"/></svg>