<svg width="56" height="56" fill="none" xmlns="http://www.w3.org/2000/svg"><circle cx="28" cy="28" r="28" fill="#F3B0C2"/><path fill-rule="evenodd" clip-rule="evenodd" d="M21.25 15.945a14.438 14.438 0 018.983-1.84 14.477 14.477 0 0110.822 7.145 14.477 14.477 0 01.777 12.947 14.438 14.438 0 01-6.084 6.86c-6.935 4-15.801 1.628-19.803-5.307-4.004-6.935-1.628-15.801 5.305-19.805zm.395 2.104a12.48 12.48 0 00-5.536 8.817c3.187.437 6.956-.714 10.265-2.747a22.81 22.81 0 001.175-.772 42.096 42.096 0 00-2.725-2.663 54.317 54.317 0 00-3.179-2.635zm7.22 6.817c-.47.335-.952.655-1.444.958-3.472 2.131-7.643 3.507-11.416 3.045a12.442 12.442 0 001.672 5.88v.001a12.432 12.432 0 004.271 4.397c1.347-3.008 4.304-5.945 7.715-8.021a24.238 24.238 0 012.044-1.113c-.41-1.116-.867-2.16-1.374-3.037a17.1 17.1 0 00-1.468-2.11zm4.681 4.355c-.434-1.17-.926-2.285-1.48-3.245a19.045 19.045 0 00-1.623-2.34c2.037-1.73 3.694-3.74 4.609-5.782.112.07.224.14.334.214a12.477 12.477 0 013.936 4.182l.001.001a12.478 12.478 0 011.672 5.88c-2.416-.295-4.996.163-7.449 1.09zm-1.201 2.706a22.16 22.16 0 00-1.642.907c-3.261 1.985-5.872 4.694-6.97 7.22a12.485 12.485 0 0010.374-.384 68.253 68.253 0 00-.873-4.406 52.735 52.735 0 00-.889-3.337zm3.6 6.615l-.02-.108a70.24 70.24 0 00-.744-3.624 53.5 53.5 0 00-.993-3.694c2.29-.874 4.621-1.266 6.704-.98a12.475 12.475 0 01-.9 3.275v.002a12.44 12.44 0 01-4.048 5.129zm-2.678-21.597c-.754 1.736-2.223 3.56-4.128 5.175a43.56 43.56 0 00-2.98-2.924 56.287 56.287 0 00-2.588-2.183 12.437 12.437 0 016.42-.922h.003c1.128.136 2.23.424 3.273.854z" fill="#1D424B"/></svg>