<svg width="56" height="56" fill="none" xmlns="http://www.w3.org/2000/svg"><circle cx="28" cy="28" r="28" fill="#CAC6BF"/><path d="M27.473 15a.635.635 0 00-.204.034l-8.445 2.03-.064.017a1 1 0 00-.76.97v20.3a1 1 0 00.844.988l.014.002 8.445 1.625a.622.622 0 00.201.034h1.107a1 1 0 001-1V16a1 1 0 00-1-1h-1.138zm5.25 2.167a1 1 0 00-1 1v.166a1 1 0 001 1h2.166v17.334h-2.167a1 1 0 00-1 1v.166a1 1 0 001 1H36a1 1 0 001-1V18.167a1 1 0 00-1-1h-3.278zM27.5 17.2v21.633l-7.389-1.422V18.96L27.5 17.2zm-1.748 9.717c-.387 0-.726.487-.726 1.083s.338 1.083.726 1.083c.387 0 .692-.487.692-1.083s-.306-1.083-.692-1.083z" fill="#1D424B"/></svg>