<svg width="80" height="81" fill="none" xmlns="http://www.w3.org/2000/svg"><ellipse cx="40" cy="40.03" rx="40" ry="40.021" fill="#CCAACB"/><path d="M32.488 51.367h15.024v-1.623H32.488v1.623zm0-8.688h15.024v-1.623H32.488v1.623zM27.967 59c-.823 0-1.524-.284-2.101-.853a2.798 2.798 0 01-.866-2.07V23.923c0-.811.289-1.501.866-2.07S27.143 21 27.967 21h17.897L55 30v26.077c0 .811-.289 1.501-.866 2.07S52.856 59 52.033 59H27.967zM45.04 30.735v-8.111H27.967c-.33 0-.632.135-.907.406-.274.27-.412.568-.412.893v32.154c0 .325.138.622.412.893.275.27.577.406.907.406h24.066c.33 0 .632-.135.907-.406.274-.27.412-.568.412-.893V30.736H45.04z" fill="#1D424B"/></svg>