<svg width="80" height="81" fill="none" xmlns="http://www.w3.org/2000/svg"><ellipse cx="40" cy="40.03" rx="40" ry="40.021" fill="#FCB9A9"/><path d="M30.37 57.575c-1.489 0-2.754-.523-3.794-1.57-1.04-1.047-1.56-2.314-1.56-3.799V36.319a90.27 90.27 0 00-2.552-2.331C21.488 33.126 21 32.115 21 30.954c0-.561.206-1.048.618-1.46.412-.412.899-.619 1.46-.619.588 0 1.108.183 1.559.549.451.366.835.8 1.152 1.306.316-.505.709-.94 1.177-1.306.468-.366.979-.549 1.534-.549.56 0 1.047.207 1.459.619.412.412.618.899.618 1.46 0 1.161-.488 2.172-1.463 3.034a90.393 90.393 0 00-2.553 2.33v15.888c0 1.06.371 1.962 1.113 2.707.742.745 1.641 1.117 2.697 1.117a3.71 3.71 0 002.71-1.117c.751-.744 1.126-1.647 1.126-2.707V30.749c0-2.414.855-4.476 2.564-6.185 1.71-1.71 3.784-2.564 6.225-2.564 2.414 0 4.475.855 6.182 2.564 1.708 1.709 2.562 3.77 2.562 6.185v1.163c2.05.213 3.771 1.077 5.167 2.591 1.395 1.514 2.093 3.32 2.093 5.42v10.043c0 2.237-.78 4.136-2.338 5.695-1.56 1.56-3.457 2.339-5.694 2.339-2.238 0-4.136-.78-5.695-2.339-1.559-1.56-2.338-3.458-2.338-5.695V39.923c0-2.099.698-3.905 2.093-5.42 1.395-1.514 3.118-2.378 5.167-2.591v-1.163c0-1.99-.703-3.688-2.108-5.094-1.405-1.407-3.102-2.11-5.09-2.11-2.013 0-3.724.703-5.133 2.11-1.408 1.406-2.112 3.104-2.112 5.094v21.457c0 1.485-.525 2.752-1.574 3.799-1.05 1.047-2.319 1.57-3.808 1.57zm20.586-1.12c1.794 0 3.326-.632 4.595-1.896 1.27-1.264 1.904-2.795 1.904-4.593V39.923c0-1.799-.63-3.33-1.892-4.594-1.261-1.264-2.79-1.895-4.584-1.895-1.794 0-3.326.631-4.596 1.895-1.269 1.264-1.903 2.795-1.903 4.594v10.043c0 1.798.63 3.33 1.892 4.593 1.261 1.264 2.79 1.896 4.584 1.896zm.011-9.502c-.846 0-1.56.29-2.14.87-.581.581-.872 1.295-.872 2.143 0 .847.29 1.56.871 2.142.58.58 1.294.87 2.142.87.846 0 1.56-.29 2.14-.87.581-.581.872-1.295.872-2.142 0-.848-.29-1.562-.871-2.142-.58-.58-1.294-.871-2.142-.871z" fill="#1D424B"/></svg>