<svg width="80" height="81" fill="none" xmlns="http://www.w3.org/2000/svg"><ellipse cx="40" cy="40.03" rx="40" ry="40.021" fill="#ECD6E3"/><path d="M43.035 31.964l6.148-6.217L46.836 21H34.164l-2.347 4.747 6.148 6.217C31.73 33.168 27 38.711 27 45.357 27 52.881 33.057 59 40.5 59S54 52.88 54 45.357c0-6.646-4.73-12.19-10.965-13.393zm-1.66-2.936h-1.76l-.922-2.788h3.603l-.92 2.788zm4.698-6.802l1.379 2.788h-3.785l-.455-2.788h2.861zM43.59 26.24h3.382l-2.758 2.788H42.67l.92-2.788zm-4.559-4.014h2.939l.454 2.788h-3.855l.462-2.788zm-4.103 0h2.86l-.463 2.788h-3.776l1.379-2.788zm-.9 4.014H37.4l.92 2.788h-1.545l-2.75-2.788zM40.5 57.774c-6.767 0-12.273-5.57-12.273-12.417 0-6.846 5.506-12.417 12.273-12.417 6.767 0 12.272 5.57 12.272 12.417 0 6.847-5.505 12.417-12.272 12.417z" fill="#1D424B"/><path d="M40.5 34.368c-5.997 0-10.877 4.93-10.877 10.99 0 6.06 4.88 10.989 10.877 10.989 5.997 0 10.877-4.93 10.877-10.99 0-6.059-4.88-10.989-10.877-10.989zm0 20.753c-5.321 0-9.65-4.38-9.65-9.764 0-5.383 4.33-9.763 9.65-9.763s9.649 4.38 9.649 9.763c0 5.384-4.328 9.764-9.649 9.764z" fill="#1D424B"/></svg>