<svg width="80" height="81" fill="none" xmlns="http://www.w3.org/2000/svg"><ellipse cx="40" cy="40.03" rx="40" ry="40.021" fill="#A3E1DC"/><g clip-path="url(#clip0_305_2322)"><path d="M47.799 59.385l.218.365h2.062l-.288-.965-2.457-8.23h6.238l1.36 1.793.224.297h1.852l-.29-.965-.922-3.08.922-3.08.29-.965h-1.852l-.225.297-1.358 1.792h-6.24l2.458-8.23.288-.964h-2.062l-.218.365-5.272 8.83h-6.43c-.53 0-1.015.181-1.398.56-.383.379-.57.863-.57 1.395s.187 1.016.57 1.395c.383.379.867.56 1.398.56h6.43l5.272 8.83zm-17.59-17.8l-.288.965h2.062l.218-.365 5.272-8.83h6.43c.53 0 1.015-.181 1.398-.56l-.527-.533.527.533c.383-.379.57-.863.57-1.395s-.187-1.016-.57-1.395a1.937 1.937 0 00-1.398-.56h-6.43l-5.272-8.83-.218-.365h-2.062l.288.965 2.457 8.23h-6.238l-1.36-1.793-.224-.297h-1.852l.29.965.922 3.08-.922 3.08-.29.965h1.852l.225-.297 1.358-1.792h6.24l-2.458 8.23z" stroke="#1D424B" stroke-width="1.5"/></g><defs><clipPath id="clip0_305_2322"><path fill="#fff" transform="translate(20 20)" d="M0 0h40v40H0z"/></clipPath></defs></svg>