<svg width="80" height="81" fill="none" xmlns="http://www.w3.org/2000/svg"><ellipse cx="40" cy="40.03" rx="40" ry="40.021" fill="#9BBBE2"/><path d="M34.538 48.239h10.77c.287 0 .518-.056.694-.166.176-.11.329-.288.46-.535l3.323-7.638c.092-.244.163-.513.213-.808a4.53 4.53 0 00.075-.73v-.739c0-.236-.044-.398-.133-.486-.088-.089-.25-.133-.486-.133H38.408l1.225-5.859a1.041 1.041 0 00-.025-.657c-.08-.22-.19-.414-.331-.58l-.204-.216-5.742 6.162c-.082.15-.158.303-.227.462a1.32 1.32 0 00-.104.534v9.85c0 .396.155.752.466 1.066.311.315.669.473 1.072.473zM40.008 58c-2.482 0-4.812-.472-6.99-1.417a18.34 18.34 0 01-5.724-3.871 18.321 18.321 0 01-3.875-5.719C22.473 44.817 22 42.488 22 40.007c0-2.49.472-4.83 1.417-7.02.945-2.192 2.235-4.098 3.871-5.719a18.536 18.536 0 015.719-3.85C35.183 22.473 37.512 22 39.993 22c2.49 0 4.83.472 7.02 1.417 2.192.945 4.098 2.227 5.719 3.846 1.621 1.62 2.904 3.524 3.85 5.713.945 2.19 1.418 4.528 1.418 7.017 0 2.482-.472 4.812-1.417 6.99a18.557 18.557 0 01-3.846 5.724c-1.62 1.638-3.524 2.93-5.713 3.875-2.19.945-4.528 1.418-7.017 1.418zM40 56.462c4.58 0 8.468-1.601 11.665-4.802 3.198-3.202 4.797-7.088 4.797-11.66 0-4.58-1.6-8.468-4.797-11.665-3.197-3.198-7.085-4.797-11.665-4.797-4.572 0-8.458 1.6-11.66 4.797-3.2 3.197-4.802 7.085-4.802 11.665 0 4.572 1.601 8.458 4.802 11.66 3.202 3.2 7.088 4.802 11.66 4.802z" fill="#1D424B"/></svg>