<svg width="80" height="81" fill="none" xmlns="http://www.w3.org/2000/svg"><ellipse cx="40" cy="40.03" rx="40" ry="40.021" fill="#EACAA1"/><path d="M40.202 50.304c.353 0 .654-.133.906-.398a1.31 1.31 0 00.377-.927c0-.327-.127-.623-.38-.887a1.213 1.213 0 00-.907-.396c-.352 0-.66.133-.925.398-.264.266-.396.562-.396.889 0 .352.133.66.398.925.266.264.575.396.927.396zm-1.021-6.454h1.604c.025-.764.172-1.44.44-2.029.268-.588.828-1.26 1.679-2.013.956-.893 1.638-1.704 2.046-2.435a4.87 4.87 0 00.612-2.416c0-1.528-.504-2.774-1.51-3.738s-2.27-1.446-3.79-1.446c-1.326 0-2.505.35-3.537 1.052-1.032.701-1.806 1.564-2.321 2.587l1.534.615c.393-.857.923-1.524 1.593-2.002.669-.478 1.53-.717 2.58-.717 1.313 0 2.307.36 2.981 1.079a3.625 3.625 0 011.012 2.567 3.48 3.48 0 01-.573 1.94c-.382.586-.926 1.19-1.631 1.814-.949.866-1.64 1.718-2.071 2.556a5.576 5.576 0 00-.648 2.586zM40.007 58c-2.482 0-4.812-.472-6.99-1.417a18.34 18.34 0 01-5.724-3.871 18.321 18.321 0 01-3.875-5.719C22.473 44.817 22 42.488 22 40.007c0-2.49.472-4.83 1.417-7.02.945-2.192 2.235-4.098 3.871-5.719a18.536 18.536 0 015.719-3.85C35.183 22.473 37.512 22 39.993 22c2.49 0 4.83.472 7.02 1.417 2.192.945 4.098 2.227 5.719 3.846 1.621 1.62 2.904 3.524 3.85 5.713.945 2.19 1.418 4.528 1.418 7.017 0 2.482-.472 4.812-1.417 6.99a18.557 18.557 0 01-3.846 5.724c-1.62 1.638-3.524 2.93-5.713 3.875-2.19.945-4.528 1.418-7.017 1.418zM40 56.462c4.58 0 8.468-1.601 11.665-4.802 3.198-3.202 4.797-7.088 4.797-11.66 0-4.58-1.6-8.468-4.797-11.665-3.197-3.198-7.085-4.797-11.665-4.797-4.572 0-8.458 1.6-11.66 4.797-3.2 3.197-4.802 7.085-4.802 11.665 0 4.572 1.601 8.458 4.802 11.66 3.202 3.2 7.088 4.802 11.66 4.802z" fill="#1D424B"/></svg>