<svg width="56" height="56" fill="none" xmlns="http://www.w3.org/2000/svg"><circle cx="28" cy="28" r="28" fill="#9BBBE2"/><path fill="#9BBBE2" d="M12 12h32v32H12z"/><path fill-rule="evenodd" clip-rule="evenodd" d="M26.09 25.895l-6.42-11.633a.818.818 0 01-.068-.654.875.875 0 01.448-.508.978.978 0 011.017.096.88.88 0 01.227.26l6.421 11.633 1.4-.696a3.925 3.925 0 012.802-.252 3.77 3.77 0 011.264.635c.372.287.68.64.908 1.038l.595 1.046L41 35.494 27.899 42l-4.133-9.719-.595-1.046a3.22 3.22 0 01-.27-2.617c.141-.431.372-.832.68-1.18a3.64 3.64 0 011.11-.848l1.4-.695zm-.536 2.211l4.423-2.196a1.937 1.937 0 011.4-.126c.232.066.447.174.633.318.186.143.34.32.454.518l.596 1.046-7.671 3.809-.595-1.046a1.608 1.608 0 01-.135-1.308c.07-.216.186-.417.34-.59a1.82 1.82 0 01.555-.425zm.763 5.523l2.532 5.954 1.686-.837-1.99-3.62 1.636-.785 1.979 3.598 6.162-3.06-3.87-5.29-8.135 4.04z" fill="#1D424B"/><path d="M20.848 34.163a.98.98 0 011.016-.1.91.91 0 01.279.21.842.842 0 01.171.295.804.804 0 01-.064.655.874.874 0 01-.226.26l-.002.003-.003.002-.01.006-.027.022-.095.068c-.08.056-.192.132-.337.223a10.854 10.854 0 01-5.63 1.593.954.954 0 01-.65-.252.831.831 0 01-.27-.607.83.83 0 01.27-.607.954.954 0 01.65-.252 8.91 8.91 0 004.61-1.305c.105-.065.209-.134.31-.206l.008-.008zm2.937 5.669a.858.858 0 00.392-.547.813.813 0 00-.137-.644.925.925 0 00-.585-.366.973.973 0 00-.69.128l-.002.002-.019.01-.079.047a13.3 13.3 0 01-1.487.73c-.984.407-2.225.784-3.42.784a.954.954 0 00-.65.252.831.831 0 00-.27.607.83.83 0 00.27.607.953.953 0 00.65.251c1.565 0 3.08-.481 4.166-.932a15.335 15.335 0 001.818-.903l.03-.018.009-.005.004-.003z" fill="#1D424B"/></svg>