<svg width="80" height="81" fill="none" xmlns="http://www.w3.org/2000/svg"><ellipse cx="40" cy="40.03" rx="40" ry="40.021" fill="#CAC6BF"/><path d="M48.396 44.545l7.486-6.879 2.118.211-7.878 7.135L52.458 56l-1.796-1.178-2.266-10.277zM44.552 31.95l-2.297-5.837.8-2.112 3.211 8.106-1.714-.157zM31.197 51.428l7.078-4.555 7.078 4.609-1.85-8.615 6.234-5.746-8.224-.777-3.238-8.078-3.238 8.024-8.224.777 6.234 5.787-1.85 8.574zm-2.37 3.452l2.506-11.422L23 35.781l10.976-1.012L38.275 24l4.299 10.769L53.55 35.78l-8.333 7.677 2.507 11.422-9.45-6.065-9.448 6.065z" fill="#1D424B"/></svg>