<svg width="80" height="81" fill="none" xmlns="http://www.w3.org/2000/svg"><ellipse cx="40" cy="40.03" rx="40" ry="40.021" fill="#B7CFB7"/><path d="M59 27.967v24.066c0 .823-.284 1.524-.853 2.101a2.798 2.798 0 01-2.07.866H23.923a2.798 2.798 0 01-2.07-.866c-.569-.577-.853-1.278-.853-2.101V27.967c0-.823.284-1.524.853-2.101a2.798 2.798 0 012.07-.866h32.154c.811 0 1.501.289 2.07.866S59 27.143 59 27.967zm-36.376 5.427h34.752v-5.427c0-.33-.135-.632-.406-.907-.27-.274-.568-.412-.893-.412H23.923c-.325 0-.622.138-.893.412-.27.275-.406.577-.406.907v5.427zm0 4.315v14.324c0 .33.135.632.406.907.27.274.568.412.893.412h32.154c.325 0 .622-.138.893-.412.27-.275.406-.577.406-.907V37.709H22.624z" fill="#1D424B"/></svg>