<svg width="80" height="81" fill="none" xmlns="http://www.w3.org/2000/svg"><ellipse cx="40" cy="40.03" rx="40" ry="40.021" fill="#FFCDB6"/><path d="M34.644 60c-.364 0-.673-.13-.928-.392a1.31 1.31 0 01-.382-.95V37.705c0-.373.127-.69.382-.95.255-.262.564-.392.928-.392h9.8c.365 0 .674.13.929.391s.382.578.382.951v20.951c0 .373-.127.69-.382.951a1.249 1.249 0 01-.928.392h-9.801zm4.89-15.923c.365 0 .678-.133.938-.4.26-.266.39-.587.39-.961 0-.352-.135-.666-.404-.943-.27-.278-.574-.416-.914-.416-.364 0-.678.135-.942.405-.263.27-.395.592-.395.965 0 .348.135.66.406.936.27.276.577.414.92.414zm-6.5-12.986l-.977-1a10.878 10.878 0 013.491-2.108 11.44 11.44 0 013.996-.71c1.384 0 2.716.236 3.996.71a10.878 10.878 0 013.491 2.108l-.976 1a10.454 10.454 0 00-3.044-1.792 9.722 9.722 0 00-3.47-.628c-1.208 0-2.364.21-3.467.628a10.466 10.466 0 00-3.04 1.792zm-5.092-5.137L27 24.91a18.375 18.375 0 015.82-3.648A18.337 18.337 0 0139.544 20c2.307 0 4.537.426 6.69 1.278A17.53 17.53 0 0152 25l-.918 1a16.839 16.839 0 00-5.342-3.423 16.625 16.625 0 00-6.211-1.178c-2.147 0-4.215.39-6.206 1.173a17.1 17.1 0 00-5.381 3.383zm6.757 32.647h9.691V37.762H34.7v20.84z" fill="#1D424B"/></svg>