<svg width="80" height="81" fill="none" xmlns="http://www.w3.org/2000/svg"><ellipse cx="40" cy="40.03" rx="40" ry="40.021" fill="#B7CFB7"/><path d="M49.395 44.503l.026.03.029.027.454.438c1.128 1.087 2.233 2.15 3.055 3.332.898 1.288 1.386 2.617 1.168 4.132-.488 1.586-1.644 3.076-3.643 3.512-.196.033-.6.031-1.28-.032a68.022 68.022 0 01-1.974-.232l-.444-.056c-1.87-.235-4.21-.51-6.634-.51h-.342c-2.425 0-4.765.28-6.636.517l-.392.05c-.779.1-1.454.186-2.023.238-.686.064-1.085.062-1.274.026-2.006-.434-3.161-1.91-3.65-3.51-.209-1.504.283-2.83 1.183-4.118.825-1.178 1.929-2.241 3.056-3.327l.457-.441.027-.026.024-.027a533.49 533.49 0 003.019-3.429c.548-.627 1.105-1.262 1.693-1.931.86-.956 1.817-1.789 2.893-2.147l.009-.002.008-.004a2.88 2.88 0 01.469-.123h0l.01-.002c.387-.073.807-.075 1.317-.075.505 0 .936.002 1.318.06.15.027.303.067.459.122l.008.003.009.003c1.08.36 2.059 1.197 2.889 2.142h0l.004.005c1.07 1.201 2.02 2.286 3 3.406.55.63 1.111 1.27 1.708 1.949zM29.5 33.97c0 1.961-1.65 3.604-3.75 3.604S22 35.932 22 33.971s1.65-3.604 3.75-3.604 3.75 1.643 3.75 3.604zm8.55-7.367c0 1.962-1.65 3.604-3.75 3.604s-3.75-1.642-3.75-3.604c0-1.96 1.65-3.603 3.75-3.603s3.75 1.643 3.75 3.604zm11.4 0c0 1.962-1.65 3.604-3.75 3.604s-3.75-1.642-3.75-3.604c0-1.96 1.65-3.603 3.75-3.603s3.75 1.643 3.75 3.604zM58 33.971c0 1.961-1.65 3.604-3.75 3.604s-3.75-1.643-3.75-3.604 1.65-3.604 3.75-3.604S58 32.01 58 33.97z" stroke="#1D424B" stroke-width="2"/></svg>