<svg width="80" height="81" fill="none" xmlns="http://www.w3.org/2000/svg"><ellipse cx="40" cy="40.03" rx="40" ry="40.021" fill="#FDD7C2"/><path d="M24.671 36.2a.623.623 0 01-.486-.196.706.706 0 01-.178-.492.72.72 0 01.178-.473.6.6 0 01.486-.213h6.219c.526 0 .967.136 1.322.409.355.273.654.595.898.966h-8.44zm3.72 17.8c-2.067 0-3.815-.717-5.246-2.15C21.715 50.416 21 48.68 21 46.642c0-2.037.724-3.773 2.173-5.207 1.449-1.433 3.207-2.15 5.274-2.15.885 0 1.76.164 2.623.492a8.52 8.52 0 012.374 1.371h3.852c1.51 0 2.791-.53 3.842-1.592 1.05-1.062 1.576-2.322 1.576-3.781V32.76l-2.042-1.992-2.655 2.623-1.104-1.045L43.337 26l1.058 1.045-2.666 2.634 2.043 2.052h9.726c.717 0 1.315.238 1.793.713.477.475.716 1.063.716 1.763v9.788a5.47 5.47 0 012.174 1.974c.546.858.819 1.776.819 2.753 0 1.46-.521 2.705-1.563 3.734-1.042 1.03-2.29 1.544-3.746 1.544-1.479 0-2.738-.514-3.779-1.542-1.04-1.028-1.56-2.251-1.56-3.67 0-.225.013-.47.04-.734a3.12 3.12 0 01.154-.724H35.909c-.216 1.896-1.03 3.481-2.443 4.757C32.052 53.362 30.36 54 28.39 54zm.05-1.375c1.68 0 3.109-.582 4.29-1.745 1.18-1.163 1.77-2.574 1.77-4.232 0-1.659-.588-3.071-1.765-4.238-1.177-1.167-2.605-1.75-4.284-1.75-1.678 0-3.108.582-4.289 1.745-1.18 1.163-1.771 2.574-1.771 4.232 0 1.659.589 3.071 1.766 4.238 1.177 1.166 2.605 1.75 4.284 1.75zm25.244 0c1.08 0 2.003-.377 2.771-1.13.768-.754 1.152-1.675 1.152-2.765 0-1.066-.381-1.979-1.144-2.737-.762-.759-1.683-1.138-2.763-1.138-1.102 0-2.038.376-2.806 1.13-.768.753-1.151 1.663-1.151 2.73 0 1.089.38 2.013 1.144 2.772.762.758 1.695 1.138 2.797 1.138zm-25.241-3.782a2.153 2.153 0 01-1.575-.644 2.116 2.116 0 01-.65-1.56c0-.61.218-1.128.653-1.556.434-.427.96-.64 1.578-.64.617 0 1.142.214 1.575.643.433.43.649.95.649 1.56a2.1 2.1 0 01-.652 1.556c-.434.427-.96.64-1.578.64zm7.478-2.899h13.206a5.264 5.264 0 011.962-1.81 5.436 5.436 0 012.615-.655h.91v-9.272a1.08 1.08 0 00-.313-.774 1.06 1.06 0 00-.8-.326h-9.396v2.668c0 1.845-.662 3.43-1.987 4.758-1.324 1.327-2.932 1.99-4.823 1.99h-2.69c.29.367.564.887.82 1.56.257.674.422 1.294.496 1.861z" fill="#1D424B"/></svg>