<svg width="80" height="81" fill="none" xmlns="http://www.w3.org/2000/svg"><ellipse cx="40" cy="40.03" rx="40" ry="40.021" fill="#F3B0C2"/><path d="M23.235 42.093c-.77-1.195-1.335-2.402-1.695-3.622-.36-1.22-.54-2.424-.54-3.611 0-2.731.942-5.058 2.827-6.979C25.71 25.962 27.993 25 30.673 25c1.747 0 3.417.46 5.01 1.381 1.594.921 3.033 2.234 4.317 3.938 1.284-1.704 2.723-3.017 4.317-3.938C45.91 25.461 47.58 25 49.327 25c2.68 0 4.962.96 6.846 2.881C58.058 29.802 59 32.13 59 34.86c0 1.12-.18 2.282-.54 3.488-.36 1.205-.925 2.439-1.696 3.7a2.694 2.694 0 00-.57-.378 35.21 35.21 0 00-.582-.282c.686-1.162 1.201-2.282 1.544-3.359a10.4 10.4 0 00.515-3.169c0-2.359-.812-4.366-2.436-6.022-1.624-1.656-3.594-2.484-5.908-2.484-1.428 0-2.934.466-4.519 1.397-1.584.931-3.187 2.49-4.808 4.674-1.621-2.185-3.224-3.743-4.808-4.674-1.584-.931-3.09-1.397-4.52-1.397-2.313 0-4.283.828-5.907 2.484-1.624 1.656-2.436 3.663-2.436 6.022 0 1.059.171 2.138.515 3.237.343 1.1.847 2.208 1.51 3.325-.18.109-.368.216-.562.322-.194.106-.38.222-.557.349zM21 55v-1.317c0-1.01.544-1.855 1.633-2.536 1.088-.682 2.504-1.023 4.247-1.023.33 0 .642.013.936.04.295.025.567.067.817.126a6.738 6.738 0 00-.385 1.235c-.093.437-.14.893-.14 1.369V55H21zm10.364 0v-1.98c0-1.457.798-2.614 2.395-3.472 1.597-.857 3.68-1.286 6.25-1.286 2.594 0 4.68.429 6.259 1.286 1.579.858 2.368 2.015 2.368 3.471V55H31.364zm20.528 0v-2.106c0-.476-.04-.932-.118-1.37a4.776 4.776 0 00-.397-1.234c.272-.059.558-.1.856-.127.299-.026.606-.039.92-.039 1.76 0 3.173.341 4.243 1.023 1.07.681 1.604 1.527 1.604 2.536V55h-7.108zm-11.896-5.384c-2.256 0-4.06.324-5.41.972-1.351.648-1.993 1.503-1.927 2.567v.49h14.682v-.5c.066-1.057-.569-1.91-1.905-2.557-1.337-.648-3.15-.972-5.44-.972zm-13.117-.948c-.627 0-1.16-.224-1.6-.672a2.242 2.242 0 01-.658-1.63c0-.626.22-1.16.659-1.604a2.168 2.168 0 011.6-.665 2.18 2.18 0 011.589.665c.446.444.67.978.67 1.604 0 .64-.224 1.183-.67 1.63a2.167 2.167 0 01-1.59.672zm26.275 0c-.614 0-1.143-.224-1.59-.672a2.224 2.224 0 01-.669-1.63c0-.626.223-1.16.67-1.604a2.185 2.185 0 011.595-.665c.632 0 1.165.222 1.6.665.435.444.653.978.653 1.604 0 .64-.217 1.183-.649 1.63-.432.448-.969.672-1.61.672zm-13.142-1.727c-1.049 0-1.944-.375-2.686-1.126-.742-.75-1.113-1.661-1.113-2.734 0-1.093.368-2.01 1.105-2.75.736-.74 1.63-1.11 2.682-1.11 1.073 0 1.972.369 2.698 1.107.726.737 1.089 1.651 1.089 2.741 0 1.07-.362 1.982-1.086 2.738-.723.756-1.62 1.134-2.69 1.134zM40 40.576c-.675 0-1.254.236-1.736.71-.481.473-.722 1.072-.722 1.795 0 .689.24 1.278.722 1.77a2.363 2.363 0 001.753.736c.693 0 1.273-.246 1.74-.737.467-.49.701-1.086.701-1.786 0-.706-.232-1.298-.697-1.774-.464-.476-1.051-.714-1.761-.714z" fill="#1D424B"/></svg>