<svg width="80" height="81" fill="none" xmlns="http://www.w3.org/2000/svg"><ellipse cx="40" cy="40.03" rx="40" ry="40.021" fill="#FDD7C2"/><path d="M55.936 46.381V30.878L44.775 23l-11.161 7.878v7.014h-1.53v-7.747L44.775 21l12.69 9.145V46.38h-1.528zM45.96 33.083h1.605V31.46H45.96v1.622zm-3.976 0h1.606V31.46h-1.606v1.622zm3.976 4.014h1.605v-1.621H45.96v1.621zm-3.976 0h1.606v-1.621h-1.606v1.621zM44.232 59l-15.836-4.698v2.59H21V41.598h12.45l12.173 4.547c.64.232 1.196.64 1.669 1.226.472.585.709 1.478.709 2.677h6.773c1.06 0 1.863.4 2.408 1.198.545.798.818 1.883.818 3.253v.224L44.232 59zm-21.703-3.652h4.289V43.142h-4.289v12.206zm21.543 2.046l12.338-3.798c-.071-.636-.243-1.129-.516-1.479-.273-.35-.646-.525-1.12-.525H45.1c-.867 0-1.748-.06-2.643-.181-.896-.121-1.661-.286-2.296-.494l-4.14-1.294.712-1.559 3.589 1.282c.777.267 1.576.451 2.398.552.822.1 2.045.15 3.668.15 0-.633-.1-1.155-.3-1.565-.2-.41-.52-.7-.962-.867l-11.868-4.474h-4.862v9.504l15.675 4.748z" fill="#1D424B"/></svg>