<svg width="56" height="56" fill="none" xmlns="http://www.w3.org/2000/svg"><circle cx="28" cy="28" r="28" fill="#EACAA1"/><path d="M40.867 15.132a3.86 3.86 0 00-5.497.037l-6.627 7.383-1.108-1.111a2.896 2.896 0 00-4.097 0l-9.255 9.257a.965.965 0 000 1.364l9.655 9.655a.965.965 0 001.364 0l9.256-9.25a2.895 2.895 0 000-4.098l-1.112-1.11 7.384-6.627a3.86 3.86 0 00.037-5.5zM24.618 39.67l-2.013-2.015 2.696-2.697a.966.966 0 00-1.365-1.365L21.24 36.29l-1.53-1.53 2.696-2.697a.965.965 0 00-1.365-1.365l-2.698 2.696-2.014-2.013 5.394-5.394 8.29 8.29-5.394 5.394zm14.9-20.46l-7.362 6.607a1.93 1.93 0 00-.075 2.803l1.11 1.111a.966.966 0 010 1.365l-1.81 1.81-8.293-8.285 1.81-1.81a.966.966 0 011.365 0l1.112 1.11a1.932 1.932 0 002.802-.075l6.608-7.361a1.93 1.93 0 012.73 2.73l.003-.005z" fill="#1D424B"/></svg>