<svg width="56" height="56" fill="none" xmlns="http://www.w3.org/2000/svg"><circle cx="28" cy="28" r="28" fill="#EFE4A0"/><path d="M28.69 14.658a1 1 0 00-1.38 0l-8 7.628a1 1 0 00-.31.723v2.502a1 1 0 001 1h16a1 1 0 001-1v-2.502a1 1 0 00-.31-.723l-8-7.628zM35.2 23.8c0 .4-.325.725-.725.725h-12.95a.725.725 0 01-.5-1.25L28 16.626l6.975 6.65a.725.725 0 01.225.525zM19 32.99a1 1 0 00.31.724l8 7.628a1 1 0 001.38 0l8-7.628a1 1 0 00.31-.724v-2.5a1 1 0 00-1-1H20a1 1 0 00-1 1v2.5zm1.8-.79c0-.4.325-.725.725-.725h12.95a.725.725 0 01.5 1.25L28 39.374l-6.975-6.65a.725.725 0 01-.225-.525z" fill="#1D424B"/></svg>