<svg width="56" height="56" fill="none" xmlns="http://www.w3.org/2000/svg"><circle cx="28" cy="28" r="28" fill="#A3E1DC"/><path d="M16 32c0 3.606 3.11 7.306 8.444 7.914a10.995 10.995 0 01-1.44-2.314C19.764 36.666 18 34.256 18 32v-1a1 1 0 011-1h3.414c.198-.698.46-1.366.786-2H19a3 3 0 00-3 3v1zm15.5-11.5a5.5 5.5 0 01-.248 1.64c-.956.152-1.887.43-2.77.828a3.5 3.5 0 10-1.672.94c-.8.545-1.525 1.192-2.156 1.926A5.501 5.501 0 1131.5 20.5zm1.5 7.25a1.25 1.25 0 100 2.5 1.25 1.25 0 000-2.5zM33 38a1 1 0 001-1v-4a1 1 0 00-2 0v4a1 1 0 001 1zm0-14a9 9 0 100 18 9 9 0 000-18zm0 2a7 7 0 110 14 7 7 0 010-14z" fill="#1D424B"/></svg>