<svg width="80" height="81" fill="none" xmlns="http://www.w3.org/2000/svg"><ellipse cx="40" cy="40.03" rx="40" ry="40.021" fill="#C7DBDA"/><path d="M26.946 52.96a18.319 18.319 0 01-3.622-5.5C22.44 45.397 22 43.284 22 41.12c0-2.4.442-4.698 1.326-6.892.883-2.193 2.24-4.204 4.069-6.032 1.527-1.54 3.471-2.74 5.834-3.603 2.363-.863 4.92-1.496 7.669-1.898a66.186 66.186 0 018.506-.675 132.17 132.17 0 018.393.118c.167 2.694.23 5.511.192 8.45a62.102 62.102 0 01-.685 8.532c-.418 2.747-1.072 5.297-1.961 7.65-.89 2.352-2.094 4.29-3.612 5.815-1.785 1.834-3.746 3.195-5.88 4.083A17.026 17.026 0 0139.25 58a17.95 17.95 0 01-6.69-1.274 15.9 15.9 0 01-5.615-3.767zm3.79.624c1.187.835 2.535 1.472 4.043 1.91a15.98 15.98 0 004.47.656c2.004 0 3.965-.402 5.882-1.207 1.917-.804 3.682-2.033 5.296-3.685.892-.898 1.708-2.102 2.448-3.614.74-1.513 1.365-3.384 1.873-5.614.507-2.231.879-4.842 1.114-7.832.235-2.99.288-6.428.158-10.312-2.782-.08-5.55-.061-8.307.057-2.756.12-5.338.396-7.747.83-2.41.435-4.575 1.023-6.496 1.765-1.922.741-3.466 1.7-4.632 2.874-1.715 1.723-2.975 3.578-3.78 5.563-.805 1.985-1.207 3.872-1.207 5.66 0 1.986.418 4 1.256 6.042.837 2.042 1.996 3.72 3.477 5.034 1.169-3.188 2.86-6.13 5.07-8.824 2.212-2.694 5.121-5.144 8.727-7.348-3.026 2.636-5.483 5.384-7.37 8.243-1.888 2.86-3.313 6.127-4.276 9.802z" fill="#1D424B"/></svg>