<svg width="80" height="81" fill="none" xmlns="http://www.w3.org/2000/svg"><ellipse cx="40" cy="40.03" rx="40" ry="40.021" fill="#ACDEE7"/><path d="M27 59v-1.62h10.809v-6.896h-1.41c-2.633 0-4.857-.9-6.674-2.7-1.817-1.8-2.725-4.005-2.725-6.613 0-1.947.572-3.72 1.717-5.315 1.145-1.596 2.659-2.732 4.542-3.407.005-1.54.625-2.742 1.86-3.606 1.234-.864 2.564-1.041 3.99-.53l-1.402-3.756 2.097-.744-.744-1.995L41.3 21l.744 1.99 1.93-.657 5.343 14.118-2 .75.745 1.989-2.175.806-.785-1.99-2.122.884-1.37-3.946a4.728 4.728 0 01-1.681 1.513c-.672.358-1.422.533-2.248.525a4.11 4.11 0 01-2.554-.802 4.787 4.787 0 01-1.676-2.164 7.637 7.637 0 00-3.501 2.831c-.877 1.29-1.315 2.732-1.315 4.324 0 2.157.75 3.979 2.25 5.464 1.498 1.486 3.337 2.229 5.515 2.229H53v1.62H39.935v6.895H53V59H27zm17.08-22.265l3.144-1.203-4.211-11.214-3.226 1.082 4.293 11.335zm-6.31-1.375c.807 0 1.488-.264 2.043-.792.555-.528.832-1.198.832-2.011 0-.813-.273-1.494-.82-2.044-.545-.55-1.222-.824-2.029-.824-.807 0-1.488.27-2.042.812-.555.54-.832 1.212-.832 2.012 0 .826.273 1.507.819 2.043.546.536 1.222.804 2.03.804z" fill="#1D424B"/></svg>