<svg width="80" height="81" fill="none" xmlns="http://www.w3.org/2000/svg"><ellipse cx="40" cy="40.03" rx="40" ry="40.021" fill="#C5DA91"/><path d="M48.444 38.453c.436 0 .816-.163 1.14-.487.323-.325.484-.705.484-1.142 0-.438-.161-.818-.485-1.143a1.557 1.557 0 00-1.139-.486c-.435 0-.815.162-1.138.486a1.566 1.566 0 00-.485 1.143c0 .437.161.817.485 1.142.323.324.703.486 1.138.486zm-16.888-5.295H42.11V31.53H31.556v1.63zM25.75 58a923.194 923.194 0 00-3.15-11.006 39.734 39.734 0 01-1.6-11.23c0-2.65.923-4.9 2.769-6.751 1.846-1.852 4.09-2.778 6.731-2.778h11.611a12.75 12.75 0 013.234-3.021C46.588 22.404 47.974 22 49.5 22c.284 0 .531.105.74.316.21.21.316.458.316.743a.709.709 0 01-.039.228 2.466 2.466 0 00-.063.216c-.249.632-.449 1.28-.599 1.944-.15.664-.287 1.33-.412 1.998l6.183 6.202H59v11.105l-5.558 1.837L50.028 58H42.11v-4.235h-8.444V58H25.75zm1.238-1.629h5.055v-4.235h11.692v4.235h5.095l3.285-10.995 5.261-1.813v-8.287h-2.42l-7.08-7.102c.008-.801.082-1.569.221-2.303.14-.735.328-1.457.567-2.169a8.953 8.953 0 00-3.15 1.521 8.292 8.292 0 00-2.299 2.641H30.5c-2.197 0-4.059.766-5.586 2.298-1.527 1.531-2.29 3.399-2.29 5.603 0 3.547.49 7.013 1.47 10.398s1.944 6.787 2.894 10.208z" fill="#1D424B"/></svg>