<svg width="80" height="81" fill="none" xmlns="http://www.w3.org/2000/svg"><ellipse cx="40" cy="40.03" rx="40" ry="40.021" fill="#B9C2CB"/><path d="M46.319 59a2.735 2.735 0 01-2.026-.845 2.793 2.793 0 01-.832-2.032c0-.791.284-1.463.85-2.014a2.826 2.826 0 012.044-.828c.796 0 1.471.282 2.026.846.554.563.832 1.24.832 2.032a2.71 2.71 0 01-.85 2.014 2.826 2.826 0 01-2.044.827zm-18.477 0c-.766 0-1.431-.282-1.995-.845A2.769 2.769 0 0125 56.123c0-.791.288-1.463.862-2.014.575-.552 1.25-.828 2.025-.828.812 0 1.492.282 2.041.846.55.563.824 1.24.824 2.032a2.73 2.73 0 01-.834 2.014c-.556.551-1.248.827-2.076.827zm2.19-10.515H43.74c.433 0 .789-.138 1.067-.415.279-.276.418-.63.418-1.06V30.78L30.033 48.485zM28.54 50.33c-.515 0-.876-.229-1.084-.687-.208-.458-.14-.887.203-1.287l21.388-24.953a6.968 6.968 0 012.252-1.778A6.014 6.014 0 0153.98 21c1.416 0 2.607.48 3.572 1.439.965.96 1.447 2.148 1.447 3.568v.988h-1.855V25.99c0-.871-.308-1.613-.924-2.226a3.057 3.057 0 00-2.24-.92 4.04 4.04 0 00-1.91.457c-.579.305-1.134.761-1.666 1.37l-3.326 3.869v18.455c0 .907-.333 1.69-.998 2.348-.666.658-1.445.987-2.34.987h-15.2zm7.89-19.669l5.766-6.77a17.91 17.91 0 00-2.66-.645 17.895 17.895 0 00-2.902-.226c-1.203 0-2.338.1-3.407.302a13.318 13.318 0 00-3.114.998l6.317 6.341zm.102 2.694l-9.495-9.487c1.324-.863 2.806-1.528 4.448-1.994a18.829 18.829 0 015.163-.699c1.488 0 2.942.158 4.363.473 1.42.315 2.872.779 4.353 1.39L36.53 33.355z" fill="#1D424B"/></svg>