<svg width="80" height="81" fill="none" xmlns="http://www.w3.org/2000/svg"><ellipse cx="40" cy="40.03" rx="40" ry="40.021" fill="#ACDEE7"/><path d="M38.352 45.855h3.296v-5.312h5.357v-3.268h-5.357v-5.312h-3.296v5.312h-5.357v3.268h5.357v5.312zM40 59c-4.313-1.294-7.892-3.912-10.735-7.855C26.422 47.202 25 42.784 25 37.892V26.557L40 21l15 5.557v11.335c0 4.892-1.422 9.31-4.265 13.253C47.892 55.088 44.313 57.706 40 59zm0-1.74c3.887-1.237 7.084-3.662 9.591-7.276 2.507-3.613 3.76-7.644 3.76-12.092V27.685L40 22.725l-13.352 4.96v10.207c0 4.448 1.254 8.479 3.76 12.092 2.508 3.614 5.705 6.039 9.592 7.275z" fill="#1D424B"/></svg>