<svg width="80" height="81" fill="none" xmlns="http://www.w3.org/2000/svg"><ellipse cx="40" cy="40.03" rx="40" ry="40.021" fill="#F3B0C2"/><path d="M35.855 45.23l11.453-7.355-11.453-7.356v14.712zM33.91 57v-4.25h-9.987a2.81 2.81 0 01-2.07-.859A2.846 2.846 0 0121 49.808V25.942c0-.816.284-1.51.853-2.083a2.81 2.81 0 012.07-.859h32.154a2.81 2.81 0 012.07.859c.569.572.853 1.267.853 2.083v23.866c0 .816-.284 1.51-.853 2.083a2.81 2.81 0 01-2.07.859H46.09V57H33.91zm-9.987-5.885h32.154c.325 0 .622-.136.893-.408.27-.273.406-.572.406-.9V25.943c0-.327-.135-.626-.406-.899-.27-.272-.568-.408-.893-.408H23.923c-.325 0-.622.136-.893.408-.27.273-.406.572-.406.9v23.865c0 .327.135.626.406.899.27.272.568.408.893.408z" fill="#1D424B"/></svg>