<svg width="56" height="56" fill="none" xmlns="http://www.w3.org/2000/svg"><circle cx="28" cy="28" r="28" fill="#FEAEA5"/><path d="M34.566 14l-4.642 4.606-2.646-2.648-1.672 1.67.87.871-5.946 5.947a3.625 3.625 0 000 5.112l2.14 2.14-8.67 8.63L15.671 42l8.63-8.669 2.14 2.138a3.626 3.626 0 005.115 0l5.948-5.948.87.87 1.671-1.67-2.65-2.645L42 21.434l-1.63-1.632-4.643 4.608-4.135-4.137 4.607-4.641L34.566 14zm-6.456 6.127l7.762 7.762-5.948 5.95c-.45.449-1.4.449-1.85 0l-5.911-5.912c-.45-.45-.45-1.4 0-1.85l5.947-5.947v-.003z" fill="#1D424B"/></svg>