<svg width="56" height="56" fill="none" xmlns="http://www.w3.org/2000/svg"><circle cx="28" cy="28" r="28" fill="#FDD7C2"/><path d="M40.727 38.4V28c0-.69-.268-1.35-.745-1.838a2.518 2.518 0 00-1.8-.762h-6.364v-1.3h-2.545v7.8h2.545v-1.3h3.818v7.8h-1.272V41H42v-2.6h-1.273zm-1.272 0h-2.546v-9.1h-5.09v-2.6h6.363c.337 0 .661.137.9.38.239.245.373.575.373.92v10.4zM24.182 24.1v1.3h-3.818v-7.8h1.272V15H14v2.6h1.273V28c0 .69.268 1.35.745 1.838a2.518 2.518 0 001.8.762h6.364v1.3h2.545v-7.8h-2.545zm0 5.2h-6.364a1.26 1.26 0 01-.9-.38 1.314 1.314 0 01-.372-.92V17.6h2.545v9.1h5.09v2.6z" fill="#1D424B"/></svg>