<svg width="80" height="81" fill="none" xmlns="http://www.w3.org/2000/svg"><ellipse cx="40" cy="40.03" rx="40" ry="40.021" fill="#CAC6BF"/><path d="M42.727 41.529c-1.212 0-2.231-.403-3.058-1.207-.826-.805-1.24-1.797-1.24-2.977s.414-2.173 1.24-2.977c.827-.805 1.846-1.207 3.058-1.207 1.212 0 2.232.402 3.058 1.207.827.804 1.24 1.797 1.24 2.977s-.413 2.172-1.24 2.977c-.826.804-1.846 1.207-3.058 1.207zm-14.297 7.16c-.797 0-1.492-.288-2.085-.866-.594-.577-.89-1.254-.89-2.03V28.897c0-.776.296-1.453.89-2.03.593-.578 1.288-.867 2.085-.867h28.595c.797 0 1.492.289 2.085.866.593.578.89 1.255.89 2.03v16.897c0 .776-.297 1.453-.89 2.03-.593.578-1.288.867-2.085.867H28.43zm2.644-1.608H54.38c0-1.063.39-1.972 1.17-2.728a3.877 3.877 0 012.797-1.135V31.471c-1.09 0-2.025-.38-2.802-1.14-.776-.759-1.165-1.666-1.165-2.722H31.074c0 1.062-.39 1.971-1.17 2.728a3.878 3.878 0 01-2.797 1.134v11.747c1.091 0 2.025.38 2.802 1.14.777.76 1.165 1.667 1.165 2.723zM53.636 54h-30.66c-.798 0-1.493-.289-2.086-.867-.593-.577-.89-1.254-.89-2.03V32.195h1.653v18.908c0 .322.138.617.413.886.276.268.579.402.91.402h30.66V54zM28.43 47.08h-1.323V27.61h1.323c-.358 0-.668.127-.93.381a1.221 1.221 0 00-.393.906v16.896c0 .349.131.65.393.905s.572.383.93.383z" fill="#1D424B"/></svg>