<svg width="80" height="81" fill="none" xmlns="http://www.w3.org/2000/svg"><ellipse cx="40" cy="40.03" rx="40" ry="40.021" fill="#FFC7A2"/><path d="M28.822 59l2.291-5.23a24.92 24.92 0 01-1.716-1.323c-.527-.446-1.05-.96-1.567-1.544a2.148 2.148 0 01-.721.288 3.57 3.57 0 01-.721.083c-.939 0-1.738-.339-2.398-1.015-.66-.677-.99-1.496-.99-2.458 0-.552.126-1.08.379-1.587a3.242 3.242 0 011.001-1.208 23.104 23.104 0 01-.569-2.444 14.777 14.777 0 01-.219-2.574c0-.896.071-1.756.214-2.58.142-.824.334-1.65.574-2.477a3.533 3.533 0 01-1.001-1.2A3.4 3.4 0 0123 32.135c0-.936.33-1.748.99-2.438.66-.69 1.46-1.035 2.398-1.035.215 0 .453.034.715.102.261.069.5.158.715.269a17.257 17.257 0 013.728-3.114c1.37-.847 2.892-1.453 4.566-1.818.116-.909.5-1.653 1.152-2.233.652-.58 1.398-.869 2.236-.869.813 0 1.553.279 2.223.836.669.557 1.057 1.286 1.165 2.187 1.7.366 3.26.955 4.683 1.768 1.423.814 2.7 1.856 3.834 3.128.182-.094.377-.154.584-.18.208-.024.416-.037.623-.037.939 0 1.738.339 2.398 1.015.66.677.99 1.497.99 2.458 0 .594-.133 1.138-.398 1.632a3.198 3.198 0 01-1.02 1.163 15.564 15.564 0 01.787 5.018c0 .888-.064 1.751-.194 2.588-.13.837-.327 1.656-.594 2.458.438.323.772.74 1 1.25.228.51.342 1.015.342 1.517 0 .962-.33 1.781-.99 2.458-.66.676-1.46 1.015-2.398 1.015-.215 0-.442-.028-.682-.083a4.438 4.438 0 01-.671-.209 15.92 15.92 0 01-1.542 1.55c-.518.449-1.095.874-1.73 1.277L50.113 59h-1.619l-1.907-4.36c-.618.284-1.228.531-1.83.741-.603.21-1.226.401-1.87.572-.115.917-.505 1.644-1.17 2.18-.665.536-1.404.804-2.217.804-.838 0-1.584-.281-2.236-.844-.652-.562-1.036-1.302-1.152-2.219-.669-.17-1.3-.361-1.894-.572a11.322 11.322 0 01-1.743-.792L30.429 59h-1.607zm2.93-6.859l4.164-9.322a3.476 3.476 0 01-.78-1.295A4.84 4.84 0 0134.9 40c0-1.288.465-2.395 1.394-3.323.93-.928 2.022-1.392 3.278-1.392 1.256 0 2.318.464 3.186 1.392.868.928 1.301 2.035 1.301 3.323 0 .541-.082 1.05-.248 1.524a4.25 4.25 0 01-.767 1.334l4.126 9.362a9.33 9.33 0 001.413-1.054 17.65 17.65 0 001.287-1.288c-.22-.283-.396-.6-.527-.948a3.188 3.188 0 01-.196-1.129c0-1.001.39-1.858 1.169-2.57.779-.712 1.663-.987 2.653-.824a14.13 14.13 0 00.544-2.132c.13-.739.194-1.501.194-2.287 0-.82-.064-1.59-.194-2.312a20.17 20.17 0 00-.494-2.107c-.974.205-1.85-.048-2.628-.76-.778-.713-1.167-1.59-1.167-2.634 0-.386.07-.751.21-1.096.139-.344.31-.666.513-.965a14.02 14.02 0 00-3.311-2.693 16.116 16.116 0 00-3.988-1.64c-.215.602-.604 1.114-1.167 1.534-.563.42-1.223.63-1.982.63-.759 0-1.424-.21-1.996-.63-.571-.42-.956-.932-1.153-1.534a16.422 16.422 0 00-4.024 1.62 12.447 12.447 0 00-3.275 2.736c.236.3.416.62.539.96.123.34.184.687.184 1.039 0 1.146-.418 2.042-1.255 2.69-.837.648-1.706.896-2.605.743-.208.657-.37 1.353-.487 2.087a14.859 14.859 0 00-.175 2.332c0 .786.059 1.548.175 2.287.117.738.28 1.449.487 2.132.938-.163 1.816.099 2.634.785.817.685 1.226 1.555 1.226 2.61 0 .412-.063.784-.19 1.115-.127.33-.3.621-.521.87.41.455.835.871 1.275 1.248.44.378.91.746 1.413 1.106zm1.25.792c.502.25 1.027.482 1.574.696a11.5 11.5 0 001.775.526 3.506 3.506 0 011.184-1.539c.551-.416 1.206-.625 1.965-.625.759 0 1.42.209 1.982.625.563.417.952.93 1.167 1.54a17.336 17.336 0 001.698-.481c.54-.184 1.044-.401 1.513-.65l-3.903-9.119a5.378 5.378 0 01-1.184.59 3.964 3.964 0 01-1.323.218 4.093 4.093 0 01-2.546-.898l-3.903 9.117zm6.498-9.795c.815 0 1.523-.301 2.123-.903.6-.602.9-1.347.9-2.235 0-.862-.3-1.6-.9-2.215-.6-.615-1.308-.923-2.123-.923-.867 0-1.593.308-2.18.923A3.094 3.094 0 0036.44 40c0 .888.293 1.633.88 2.235.587.602 1.313.903 2.18.903z" fill="#1D424B"/></svg>