<svg width="80" height="81" fill="none" xmlns="http://www.w3.org/2000/svg"><ellipse cx="40" cy="40.03" rx="40" ry="40.021" fill="#CCAACB"/><path d="M39.053 59V40.291h-.555c-2.255 0-4.382-.421-6.382-1.264s-3.79-2.058-5.37-3.645a16.246 16.246 0 01-3.533-5.492A17.7 17.7 0 0122 23.404V21h2.354c2.18 0 4.285.43 6.317 1.292a16.856 16.856 0 015.41 3.664 16.086 16.086 0 013.182 4.567 18.002 18.002 0 011.555 5.395c.368-.754.807-1.477 1.316-2.169a18.282 18.282 0 011.679-1.969 16.965 16.965 0 015.425-3.664 16.287 16.287 0 016.413-1.291H58v2.404c0 2.252-.425 4.416-1.273 6.493a16.818 16.818 0 01-3.613 5.49 16.25 16.25 0 01-5.402 3.61 16.613 16.613 0 01-6.33 1.234h-.48V59h-1.85zm.06-20.618c0-2.167-.378-4.201-1.133-6.104a14.445 14.445 0 00-3.234-4.956 14.093 14.093 0 00-4.89-3.31c-1.888-.775-3.89-1.163-6.008-1.163 0 2.216.363 4.283 1.089 6.202.725 1.918 1.79 3.572 3.19 4.962 1.498 1.588 3.164 2.712 4.999 3.375 1.835.663 3.83.994 5.987.994zm1.788 5.825c2.126 0 4.133-.375 6.022-1.126a13.673 13.673 0 004.89-3.273c1.4-1.37 2.475-3.014 3.22-4.932.746-1.919 1.118-3.986 1.118-6.202-2.156 0-4.179.387-6.067 1.163-1.889.775-3.519 1.868-4.89 3.28-1.537 1.556-2.637 3.262-3.3 5.117-.662 1.855-.993 3.846-.993 5.973z" fill="#1D424B"/></svg>