<svg width="56" height="56" fill="none" xmlns="http://www.w3.org/2000/svg"><circle cx="28" cy="28" r="28" fill="#ECD6E3"/><path d="M41 14.992a3.399 3.399 0 00-4.798 0l-3.574 3.566a.52.52 0 00-.01.01 10.5 10.5 0 00-11.805 1.775 3.346 3.346 0 00-4 3.759c.104.713.435 1.375.946 1.885L30.01 38.243a3.346 3.346 0 005.643-3.059 10.506 10.506 0 001.772-11.808.573.573 0 00.01-.013l3.566-3.557a3.4 3.4 0 000-4.814zm-4.506 6.84a10.592 10.592 0 00-2.332-2.332l3.275-3.27a1.65 1.65 0 112.329 2.337l-3.272 3.265zm-14.033-.609a8.746 8.746 0 0114.276 6.336 8.751 8.751 0 01-1.966 5.977L22.46 21.223zm-1.249 1.225l12.334 12.34a1.598 1.598 0 01-2.299 2.218L18.994 24.749a1.598 1.598 0 012.218-2.297v-.004zm1.28 11.058a.875.875 0 010 1.237l-3.498 3.5a.875.875 0 11-1.239-1.237l3.499-3.5a.876.876 0 011.239 0zm-3.498-2.262a.877.877 0 00-.955-1.428.874.874 0 00-.284.19l-3.5 3.5a.876.876 0 001.24 1.237l3.499-3.5zm6.998 5.762a.875.875 0 010 1.237l-3.5 3.5a.876.876 0 11-1.238-1.237l3.499-3.5a.876.876 0 011.239 0z" fill="#1D424B"/></svg>