<svg width="80" height="81" fill="none" xmlns="http://www.w3.org/2000/svg"><ellipse cx="40" cy="40.03" rx="40" ry="40.021" fill="#BAE0F3"/><g clip-path="url(#clip0_549_2366)"><path d="M38.364 59.125a.693.693 0 01-.511-.201.693.693 0 01-.202-.512c0-.207.067-.377.202-.512a.693.693 0 01.511-.201h.923v-4.878c-1.692-.154-3.18-.516-4.467-1.088a13.003 13.003 0 01-3.464-2.246l-3.49 3.447.73.688c.126.126.195.29.208.493a.664.664 0 01-.208.53c-.162.163-.34.237-.532.223a.83.83 0 01-.533-.264l-2.219-2.206c-.162-.163-.243-.333-.243-.512s.081-.354.243-.524a.692.692 0 01.506-.18c.174.013.351.092.53.234l.58.579 3.447-3.447c-1.001-1.228-1.753-2.432-2.255-3.612-.502-1.18-.816-2.587-.941-4.223H22.3v.923a.693.693 0 01-.201.511.693.693 0 01-.512.202.693.693 0 01-.512-.202.693.693 0 01-.201-.511v-3.272c0-.207.067-.377.201-.511a.693.693 0 01.512-.202c.207 0 .377.067.512.202a.693.693 0 01.201.511v.923h4.878c.126-1.636.446-3.057.962-4.265.516-1.208 1.275-2.398 2.276-3.57l-3.448-3.447-.633.633c-.162.162-.333.236-.512.222a.906.906 0 01-.512-.222c-.162-.162-.243-.335-.243-.518s.081-.355.243-.518l2.29-2.29a.748.748 0 01.54-.243c.196 0 .376.081.538.243a.525.525 0 01.16.485.795.795 0 01-.244.484l-.688.688 3.49 3.448c1.255-1.001 2.452-1.746 3.59-2.234s2.553-.823 4.245-1.004V22.3h-.869a.693.693 0 01-.511-.201.693.693 0 01-.202-.512c0-.207.067-.377.202-.512a.693.693 0 01.511-.201h3.272c.207 0 .377.067.511.201a.693.693 0 01.202.512.693.693 0 01-.202.512.693.693 0 01-.511.201h-.923v4.878c1.692.181 3.106.516 4.244 1.004s2.335 1.233 3.59 2.234l3.448-3.448-.62-.663a.624.624 0 01-.263-.49.667.667 0 01.208-.504c.162-.162.333-.243.511-.243.18 0 .35.081.512.243L54.7 27.67c.162.163.241.331.237.506-.004.175-.087.343-.25.505-.161.134-.325.19-.49.168-.165-.022-.333-.115-.503-.277l-.663-.663-3.448 3.49c1.001 1.227 1.76 2.447 2.276 3.66.516 1.211.837 2.621.962 4.229H57.7v-.923c0-.207.067-.377.201-.511a.693.693 0 01.512-.202c.207 0 .377.067.512.202a.693.693 0 01.201.511v3.272a.693.693 0 01-.201.511.693.693 0 01-.512.202.693.693 0 01-.512-.202.693.693 0 01-.201-.511v-.923h-4.878c-.125 1.636-.446 3.046-.962 4.23-.516 1.184-1.275 2.39-2.276 3.617l3.448 3.49.717-.718a.667.667 0 01.47-.207.76.76 0 01.512.195.642.642 0 01.243.518.77.77 0 01-.243.56l-2.29 2.29a.748.748 0 01-.54.243.748.748 0 01-.538-.243.577.577 0 01-.18-.497c.022-.19.092-.36.21-.514l.603-.646-3.447-3.448c-1.06.918-2.201 1.65-3.423 2.198s-2.692.9-4.412 1.053V57.7h.923c.207 0 .377.067.511.201a.693.693 0 01.202.512.693.693 0 01-.202.512.693.693 0 01-.511.201h-3.272zM40 51.156c3.087 0 5.718-1.09 7.893-3.269 2.175-2.18 3.263-4.809 3.263-7.887 0-3.087-1.087-5.718-3.263-7.893-2.175-2.175-4.806-3.263-7.893-3.263-3.078 0-5.707 1.087-7.887 3.263-2.18 2.175-3.27 4.806-3.27 7.893 0 3.078 1.09 5.707 3.27 7.887 2.18 2.18 4.809 3.27 7.887 3.27zm-3.397-3.607c.38 0 .713-.142.998-.428.285-.285.428-.617.428-.998 0-.38-.143-.713-.428-.998a1.368 1.368 0 00-.998-.428c-.38 0-.713.143-.998.428a1.368 1.368 0 00-.428.998c0 .38.142.713.428.998.285.286.617.428.998.428zm6.794 0a1.36 1.36 0 001.005-.428 1.38 1.38 0 00.421-.998c0-.38-.14-.713-.421-.998a1.362 1.362 0 00-1.005-.428c-.38 0-.713.143-.998.428a1.368 1.368 0 00-.428.998c0 .38.143.713.428.998.285.286.618.428.998.428zm-10.61-6.123c.388 0 .723-.143 1.004-.428.28-.285.421-.618.421-.998s-.14-.713-.421-.998a1.362 1.362 0 00-1.005-.428c-.38 0-.713.143-.998.428a1.368 1.368 0 00-.428.998c0 .38.143.713.428.998.285.285.618.428.998.428zm7.213 0c.38 0 .713-.143.998-.428.285-.285.428-.618.428-.998s-.143-.713-.428-.998a1.368 1.368 0 00-.998-.428c-.38 0-.713.143-.998.428a1.368 1.368 0 00-.428.998c0 .38.143.713.428.998.285.285.618.428.998.428zm7.214 0a1.36 1.36 0 001.004-.428c.281-.285.422-.618.422-.998s-.14-.713-.422-.998a1.362 1.362 0 00-1.004-.428c-.38 0-.713.143-.998.428a1.368 1.368 0 00-.428.998c0 .38.142.713.428.998.285.285.617.428.998.428zm-10.611-6.123c.38 0 .713-.143.998-.428.285-.285.428-.618.428-.998s-.143-.713-.428-.998a1.368 1.368 0 00-.998-.428c-.38 0-.713.142-.998.428a1.368 1.368 0 00-.428.998c0 .38.142.713.428.998.285.285.617.428.998.428zm6.794 0c.389 0 .724-.143 1.005-.428.28-.285.421-.618.421-.998s-.14-.713-.421-.998a1.362 1.362 0 00-1.005-.428c-.38 0-.713.142-.998.428a1.368 1.368 0 00-.428.998c0 .38.143.713.428.998.285.285.618.428.998.428z" fill="#1D424B"/></g><defs><clipPath id="clip0_549_2366"><path fill="#fff" transform="translate(20 20)" d="M0 0h40v40H0z"/></clipPath></defs></svg>