<svg width="56" height="56" fill="none" xmlns="http://www.w3.org/2000/svg"><circle cx="28" cy="28" r="28" fill="#B7CFB7"/><path fill-rule="evenodd" clip-rule="evenodd" d="M28.696 14.292a.974.974 0 00-1.392 0L14.273 27.608a.95.95 0 00.022 1.354.977.977 0 001.37-.022l2.595-2.652v5.187c0 .53.434.958.97.958a.964.964 0 00.968-.958v-7.167L28 16.336l7.802 7.972v7.167c0 .53.434.958.969.958a.964.964 0 00.969-.958v-5.187l2.595 2.652c.372.38.985.39 1.37.022a.95.95 0 00.022-1.354l-13.03-13.316zM37.495 35.9a1.814 1.814 0 00-2.635.14l-.11.129c-1.437 1.706-4.087 1.706-5.525 0a1.67 1.67 0 00-2.548 0c-1.438 1.706-4.088 1.706-5.526 0l-.109-.13a1.814 1.814 0 00-2.635-.14l-1.893 1.813a.977.977 0 01-1.37-.023.95.95 0 01.022-1.354l1.893-1.812a3.767 3.767 0 015.472.29l.109.129a1.67 1.67 0 002.548 0c1.438-1.706 4.088-1.706 5.526 0a1.67 1.67 0 002.548 0l.11-.13a3.767 3.767 0 015.47-.29l1.894 1.813a.95.95 0 01.023 1.355.977.977 0 01-1.37.022L37.494 35.9zm-19.12 4.411a2.12 2.12 0 012.742.145l.107.102a3.915 3.915 0 005.38 0 1.962 1.962 0 012.695 0 3.915 3.915 0 005.379 0l.107-.102a2.119 2.119 0 012.742-.145l1.942 1.488a.976.976 0 001.36-.172.95.95 0 00-.174-1.344l-1.942-1.487a4.074 4.074 0 00-5.27.277l-.107.102a1.962 1.962 0 01-2.695 0 3.915 3.915 0 00-5.38 0 1.962 1.962 0 01-2.695 0l-.107-.102a4.073 4.073 0 00-5.27-.277l-1.942 1.487a.951.951 0 00-.173 1.344.976.976 0 001.359.172l1.942-1.488z" fill="#1D424B"/></svg>