<svg width="56" height="56" fill="none" xmlns="http://www.w3.org/2000/svg"><circle cx="28" cy="28" r="28" fill="#B9C2CB"/><path fill="#B9C2CB" d="M12 12h32v32H12z"/><path d="M21.17 25.339l-4.161-6.376a.054.054 0 01-.009-.029v-1.877c0-.031.026-.057.06-.057h21.88c.034 0 .06.026.06.057v1.878c0 .01-.003.02-.008.028l-4.014 6.376v8.133M21.17 25.339v13.316m0-13.316h5.826M21.17 38.655l.79-1.05c1.433-1.903 3.772-2.967 6.202-2.822l1.899.113a7.612 7.612 0 004.918-1.424M21.17 38.655c1.355.28 3.357.464 5.456.254l1.25-.225 1.249-.225c2.366-.64 4.58-1.934 5.848-4.309a.056.056 0 00.006-.026v-.652" stroke="#1D424B" stroke-width="2" stroke-linecap="round"/></svg>