<svg width="80" height="81" fill="none" xmlns="http://www.w3.org/2000/svg"><ellipse cx="40" cy="40.03" rx="40" ry="40.021" fill="#BAE0F3"/><path d="M23.923 59a2.819 2.819 0 01-2.07-.853 2.819 2.819 0 01-.853-2.07V34.479c0-.812.284-1.502.853-2.07a2.819 2.819 0 012.07-.853h12.585v-8.932c0-.432.163-.811.49-1.136a1.587 1.587 0 011.16-.488h3.695c.448 0 .833.163 1.155.488.322.325.483.704.483 1.136v8.932h12.586c.811 0 1.501.284 2.07.853.569.568.853 1.258.853 2.07v21.598c0 .811-.284 1.501-.853 2.07a2.819 2.819 0 01-2.07.853H23.923zm0-1.624h32.154c.379 0 .69-.122.934-.365.243-.244.365-.555.365-.934V34.479c0-.38-.122-.69-.365-.934-.244-.244-.555-.366-.934-.366H43.492v2.355c0 .498-.162.893-.484 1.186a1.67 1.67 0 01-1.162.438h-3.692a1.67 1.67 0 01-1.162-.438c-.322-.293-.483-.688-.483-1.186V33.18H23.922c-.379 0-.69.122-.934.366-.243.243-.365.555-.365.934v21.598c0 .379.122.69.365.934.244.243.555.365.934.365zm3.881-6.094H39.12v-.21a2.48 2.48 0 00-.373-1.345 2.145 2.145 0 00-.991-.86c-.882-.333-1.654-.561-2.314-.684a10.506 10.506 0 00-1.929-.185c-.641 0-1.32.072-2.036.217-.715.145-1.467.362-2.255.652a2.11 2.11 0 00-1.043.86 2.48 2.48 0 00-.374 1.344v.211zm16.597-3.414h8.688v-1.624H44.4v1.624zm-10.87-1.624c.642 0 1.194-.236 1.654-.71.46-.472.69-1.03.69-1.673s-.23-1.2-.69-1.674c-.46-.473-1.012-.71-1.654-.71-.642 0-1.199.237-1.672.709a2.31 2.31 0 00-.71 1.695c0 .63.237 1.18.71 1.654.473.473 1.03.709 1.672.709zM44.401 43h8.688v-1.624H44.4V43zm-6.269-7.466h3.736v-12.91h-3.736v12.91z" fill="#1D424B"/></svg>