<svg width="80" height="81" fill="none" xmlns="http://www.w3.org/2000/svg"><ellipse cx="40" cy="40.03" rx="40" ry="40.021" fill="#FFC7A2"/><path d="M23.923 57a2.81 2.81 0 01-2.07-.859A2.846 2.846 0 0121 54.058v-21.74c0-.817.284-1.512.853-2.084a2.81 2.81 0 012.07-.859h9.744v-3.433c0-.816.284-1.51.853-2.083A2.81 2.81 0 0136.59 23h6.82a2.81 2.81 0 012.07.859c.569.572.853 1.267.853 2.083v3.433h9.744a2.81 2.81 0 012.07.859c.569.572.853 1.267.853 2.083v21.74c0 .817-.284 1.512-.853 2.084a2.81 2.81 0 01-2.07.859H23.923zm0-1.635h32.154c.325 0 .622-.136.893-.408.27-.273.406-.572.406-.9v-21.74c0-.327-.135-.626-.406-.899-.27-.272-.568-.408-.893-.408H23.923c-.325 0-.622.136-.893.408-.27.273-.406.572-.406.9v21.74c0 .327.135.626.406.899.27.272.568.408.893.408zm11.368-25.99h9.418v-3.433c0-.327-.135-.626-.406-.899-.27-.272-.568-.408-.893-.408h-6.82c-.325 0-.623.136-.893.408-.271.273-.406.572-.406.9v3.432z" fill="#1D424B"/></svg>