<svg width="80" height="81" fill="none" xmlns="http://www.w3.org/2000/svg"><ellipse cx="40" cy="40.03" rx="40" ry="40.021" fill="#EFE4A0"/><path d="M45.14 59h-4.775c-.427 0-.778-.139-1.053-.416a1.335 1.335 0 01-.414-.97v-10.65c0-.403.138-.735.414-.995.275-.261.626-.392 1.053-.392h1.551V37.46c0-.357-.121-.65-.365-.88-.243-.23-.553-.346-.931-.346H26.916c-.787 0-1.47-.273-2.049-.82-.578-.547-.867-1.193-.867-1.938v-6.814c0-.765.29-1.416.867-1.953a2.912 2.912 0 012.05-.805h2.588v-1.517c0-.37.138-.694.413-.971.276-.277.627-.416 1.053-.416h23.563c.39 0 .733.139 1.026.416.293.277.44.6.44.97v4.735c0 .37-.147.694-.44.971a1.447 1.447 0 01-1.026.416H30.97c-.426 0-.777-.139-1.053-.416a1.334 1.334 0 01-.413-.97v-1.686h-2.589c-.378 0-.688.115-.931.345a1.16 1.16 0 00-.365.88v6.815c0 .332.122.62.365.862.243.243.553.364.931.364H40.62c.809 0 1.497.269 2.065.806.567.537.851 1.188.851 1.952v8.117h1.604c.426 0 .777.13 1.053.392.276.26.414.592.414.995v10.65c0 .37-.138.693-.414.97-.276.277-.627.416-1.053.416zm-4.621-1.532h4.467V47.11H40.52v10.358zm-9.394-30.492H54.38v-4.444H31.125v4.444z" fill="#1D424B"/></svg>