<svg width="56" height="56" fill="none" xmlns="http://www.w3.org/2000/svg"><circle cx="28" cy="28" r="28" fill="#CCE2CB"/><path d="M28 14c.465 0 .843.378.843.843v5.892l3.452-3.452a.845.845 0 011.193 1.193l-4.645 4.645v4.036h4.036l4.645-4.645a.844.844 0 011.193 1.193l-3.452 3.452h5.892a.844.844 0 010 1.686h-5.892l3.283 3.284a.843.843 0 11-1.193 1.192l-4.476-4.476h-4.036v4.036l4.476 4.476a.843.843 0 11-1.193 1.193l-3.283-3.283v5.892a.844.844 0 01-1.686 0v-5.892l-3.452 3.452a.844.844 0 01-1.193-1.193l4.645-4.645v-4.036H23.12l-4.645 4.645a.844.844 0 01-1.193-1.193l3.452-3.452h-5.892a.844.844 0 010-1.686h5.892l-3.62-3.62a.843.843 0 011.192-1.194l4.814 4.814h4.036V23.12l-4.814-4.814a.844.844 0 011.193-1.193l3.62 3.62v-5.89c0-.466.379-.844.844-.844z" fill="#1D424B"/></svg>