<svg width="80" height="81" fill="none" xmlns="http://www.w3.org/2000/svg"><ellipse cx="40" cy="40.03" rx="40" ry="40.021" fill="#FEAEA5"/><path d="M56.883 37.78v16.45c0 .775-.266 1.43-.798 1.966S54.902 57 54.133 57h-28.31c-.768 0-1.419-.268-1.951-.804s-.798-1.19-.798-1.965V37.704c-.901-.672-1.514-1.527-1.837-2.566-.323-1.038-.316-2.102.023-3.192l1.944-6.404c.264-.848.69-1.484 1.275-1.907.586-.424 1.296-.635 2.131-.635h26.576c.85 0 1.585.207 2.204.621.618.414 1.047 1.029 1.287 1.844l2.07 6.481a5.255 5.255 0 01-.002 3.23 5.115 5.115 0 01-1.862 2.605zm-12.488-.55c1.316 0 2.33-.367 3.044-1.103.712-.736 1.016-1.516.909-2.339l-1.394-9.25h-6.187v8.789a3.95 3.95 0 001.054 2.736c.703.779 1.56 1.168 2.574 1.168zm-9.093 0c1.13 0 2.07-.38 2.816-1.142.748-.761 1.121-1.682 1.121-2.761v-8.789h-6.224l-1.394 9.404c-.082.662.213 1.375.886 2.14.672.766 1.604 1.149 2.795 1.149zm-8.921 0c.947 0 1.768-.325 2.461-.978a3.907 3.907 0 001.228-2.41l1.33-9.304h-5.042c-.433 0-.783.097-1.05.289-.267.192-.452.48-.554.865L22.776 32.3c-.382 1.187-.23 2.306.454 3.356.685 1.05 1.735 1.575 3.151 1.575zm27.195 0c1.237 0 2.25-.49 3.041-1.472.791-.982.983-2.135.575-3.458l-2.016-6.685c-.102-.384-.287-.66-.554-.827-.267-.166-.617-.25-1.05-.25h-5.003l1.33 9.304c.15.954.565 1.757 1.246 2.41a3.393 3.393 0 002.43.979zM25.823 55.463h28.31c.331 0 .618-.116.86-.347a1.17 1.17 0 00.362-.884V38.527a2.858 2.858 0 01-.78.184 8.474 8.474 0 01-1 .058 4.903 4.903 0 01-2.338-.563c-.707-.376-1.386-.969-2.038-1.779a5.952 5.952 0 01-1.91 1.69c-.768.435-1.722.652-2.86.652-.84 0-1.603-.18-2.29-.54-.685-.36-1.398-.912-2.136-1.656-.649.728-1.38 1.276-2.192 1.644-.812.368-1.609.552-2.39.552a6.485 6.485 0 01-2.502-.492c-.794-.328-1.473-.945-2.035-1.85-1.024.982-1.923 1.618-2.697 1.908-.774.29-1.376.434-1.806.434a7.62 7.62 0 01-.957-.057 4.073 4.073 0 01-.823-.185V54.23c0 .359.121.654.363.884.242.231.529.347.86.347z" fill="#1D424B"/></svg>