<svg width="80" height="81" fill="none" xmlns="http://www.w3.org/2000/svg"><ellipse cx="40" cy="40.03" rx="40" ry="40.021" fill="#ECD6E3"/><path d="M51.934 34.28a2.777 2.777 0 01-3.913 0l-2.299-2.297a2.776 2.776 0 010-3.916l5.202-5.204a.087.087 0 00-.026-.142c-3.358-1.44-7.71-.706-10.475 2.039-2.645 2.625-2.796 6.574-1.827 10.02a2.762 2.762 0 01-.784 2.775l-14.41 13.16a4.166 4.166 0 105.882 5.882l13.308-14.445a2.762 2.762 0 012.733-.79c3.42.916 7.313.744 9.923-1.833 2.81-2.768 3.417-7.66 2.054-10.46a.086.086 0 00-.138-.022l-5.23 5.234z" stroke="#1D424B" stroke-width="1.857" stroke-miterlimit="10" stroke-linecap="round"/><path d="M26.862 54.759a1.33 1.33 0 100-2.659 1.33 1.33 0 000 2.659z" fill="#1D424B"/></svg>