<svg width="80" height="81" fill="none" xmlns="http://www.w3.org/2000/svg"><ellipse cx="40" cy="40.03" rx="40" ry="40.021" fill="#C7DBDA"/><path fill-rule="evenodd" clip-rule="evenodd" d="M41.811 22.622c-1.685 0-3.051 1.419-3.051 3.168 0 1.75 1.366 3.168 3.051 3.168s3.051-1.418 3.051-3.168c0-1.75-1.366-3.168-3.051-3.168zm-4.614 3.168c0-2.645 2.066-4.79 4.614-4.79s4.614 2.145 4.614 4.79c0 2.646-2.066 4.79-4.614 4.79s-4.614-2.144-4.614-4.79zm15.433-.417a.83.83 0 01.292 1.043C51.421 29.646 48.154 37.01 47.21 41c-1.168 4.93-2.037 13.06-2.417 16.615-.01.084-.018.166-.026.244a.792.792 0 01-.799.722.796.796 0 01-.758-.767c-.1-1.91-.37-4.736-.853-7.012-.243-1.148-.528-2.095-.842-2.71-.158-.31-.293-.476-.385-.55a.338.338 0 00-.04-.03.95.95 0 00-.126.101 3.77 3.77 0 00-.47.556c-.374.519-.814 1.28-1.287 2.263-.945 1.96-1.988 4.72-2.897 7.982a.78.78 0 01-.906.57.808.808 0 01-.62-.892c.288-2.496.643-6.115.764-9.592.122-3.522-.005-6.753-.606-8.56a88.64 88.64 0 01-.354-1.092c-.357-1.12-.63-1.975-1.256-3.282-.82-1.712-2.238-4.178-5.202-8.847a.833.833 0 01.147-1.065.76.76 0 011.035.023c1.32 1.265 3.237 2.998 5.487 4.367 2.257 1.372 4.78 2.336 7.325 2.163 2.875-.196 4.638-1.09 5.962-2.262 1.04-.921 1.813-2.006 2.658-3.192.274-.385.556-.781.858-1.186a.762.762 0 011.029-.194zm-3.548 5.821c-1.596 1.408-3.682 2.415-6.857 2.631-2.982.204-5.824-.927-8.216-2.381a25.953 25.953 0 01-1.862-1.25c1.251 2.076 2.037 3.509 2.583 4.65.679 1.417.99 2.395 1.355 3.539.103.324.211.662.333 1.028.71 2.13.811 5.65.69 9.147a96.55 96.55 0 01-.16 3.087c.29-.705.578-1.354.86-1.94.497-1.03.983-1.883 1.434-2.508.225-.312.453-.585.684-.797.217-.2.5-.407.835-.481.517-.114.977.055 1.334.348.335.273.594.662.8 1.066.414.813.735 1.933.987 3.12.035.163.068.329.1.497.443-3.502 1.024-7.444 1.71-10.337.59-2.495 2.019-6.176 3.39-9.419z" fill="#1D424B"/></svg>