<svg width="80" height="81" fill="none" xmlns="http://www.w3.org/2000/svg"><ellipse cx="40" cy="40.03" rx="40" ry="40.021" fill="#C5DA91"/><path d="M45.37 28.086a2.34 2.34 0 01-1.739-.733c-.477-.489-.716-1.09-.716-1.805 0-.714.237-1.318.712-1.81A2.339 2.339 0 0145.379 23c.67 0 1.25.244 1.739.733.488.489.732 1.09.732 1.805 0 .715-.243 1.318-.729 1.81a2.375 2.375 0 01-1.751.738zm-8.672 9.078l3.963 4.285v10.258h-1.336v-8.844l-6.17-4.842a1.627 1.627 0 01-.551-.714 2.522 2.522 0 01-.194-.99c0-.352.072-.666.215-.939.144-.273.32-.517.53-.733l5.199-5.392c.209-.193.485-.369.826-.528.342-.16.689-.24 1.04-.24.352 0 .699.08 1.04.24.342.16.618.335.827.528l3.32 3.455a10.896 10.896 0 002.7 2.011 8.865 8.865 0 003.4 1.01v1.446c-1.479-.115-2.81-.473-3.994-1.076a11.661 11.661 0 01-3.192-2.397L42.184 31.5l-5.486 5.664zm-8.204 4.35c2.123 0 3.91.74 5.358 2.222 1.45 1.482 2.174 3.318 2.174 5.508 0 2.2-.726 4.042-2.177 5.528C32.397 56.257 30.609 57 28.486 57s-3.902-.742-5.335-2.227C21.717 53.288 21 51.448 21 49.253c0-2.195.718-4.034 2.154-5.516 1.437-1.482 3.217-2.223 5.34-2.223zm.003 14.12c1.75 0 3.22-.61 4.414-1.828 1.193-1.218 1.79-2.734 1.79-4.549 0-1.815-.597-3.331-1.79-4.55-1.193-1.218-2.665-1.827-4.415-1.827s-3.22.61-4.414 1.828c-1.193 1.218-1.79 2.734-1.79 4.55 0 1.814.597 3.33 1.79 4.548 1.193 1.219 2.665 1.828 4.415 1.828zm22.97-14.12c2.124 0 3.91.74 5.36 2.222C58.274 45.218 59 47.054 59 49.244c0 2.2-.726 4.042-2.178 5.528C55.371 56.257 53.583 57 51.46 57s-3.902-.742-5.336-2.227c-1.434-1.485-2.15-3.325-2.15-5.52 0-2.195.718-4.034 2.154-5.516 1.436-1.482 3.216-2.223 5.34-2.223zm.003 14.12c1.75 0 3.221-.61 4.415-1.828 1.193-1.218 1.79-2.734 1.79-4.549 0-1.815-.597-3.331-1.79-4.55-1.194-1.218-2.665-1.827-4.415-1.827s-3.221.61-4.414 1.828c-1.194 1.218-1.79 2.734-1.79 4.55 0 1.814.596 3.33 1.79 4.548 1.193 1.219 2.664 1.828 4.414 1.828z" fill="#1D424B"/></svg>