<svg width="80" height="81" fill="none" xmlns="http://www.w3.org/2000/svg"><ellipse cx="40" cy="40.03" rx="40" ry="40.021" fill="#A3E1DC"/><path d="M21 55.817v-1.626h4.51V22h16.57v2.215h6.239v17.701h-1.617V25.841H42.08v29.976H21zm14.965-15.282c.46 0 .845-.162 1.154-.486a1.6 1.6 0 00.462-1.14 1.6 1.6 0 00-.462-1.14 1.528 1.528 0 00-1.154-.486c-.434 0-.812.162-1.134.486a1.565 1.565 0 00-.483 1.14c0 .436.161.816.483 1.14.322.324.7.486 1.134.486zm-8.838 13.657h13.336V23.625H27.127V54.19zM52.934 58l1.815-4.187L59 51.911l-4.251-1.89-1.815-4.044-1.814 4.044-4.252 1.89 4.252 1.902L52.934 58z" fill="#1D424B"/></svg>