<svg width="56" height="56" fill="none" xmlns="http://www.w3.org/2000/svg"><circle cx="28" cy="28" r="28" fill="#ACDEE7"/><path fill-rule="evenodd" clip-rule="evenodd" d="M21.566 15.018a1 1 0 01.797 1.168l-.19 1c-.12.64.081 1.298.536 1.756.597.602.931 1.416.931 2.263v.72a1 1 0 01-2 0v-.72c0-.321-.127-.628-.35-.854a3.974 3.974 0 01-1.082-3.536l.19-1a1 1 0 011.168-.797zm5.7 0a1 1 0 01.797 1.168l-.19 1c-.12.64.081 1.298.536 1.756.597.602.931 1.416.931 2.263v.72a1 1 0 01-2 0v-.72c0-.321-.127-.628-.35-.854a3.974 3.974 0 01-1.082-3.536l.19-1a1 1 0 011.168-.797zm5.76 0a1 1 0 01.797 1.168l-.19 1c-.12.64.081 1.298.536 1.756.597.602.931 1.416.931 2.263v.72a1 1 0 01-2 0v-.72c0-.321-.127-.628-.35-.854a3.974 3.974 0 01-1.082-3.536l.19-1a1 1 0 011.168-.797zM16 24.887c0-.946.763-1.726 1.72-1.726h19.56c.957 0 1.72.78 1.72 1.726v4.594c0 .913-.71 1.67-1.62 1.723v8.07c0 .946-.763 1.726-1.72 1.726H19.7c-.957 0-1.72-.78-1.72-1.725v-8.068h-.26c-.957 0-1.72-.78-1.72-1.726v-4.594zm3.98 6.32v2.654h3.82v-2.654h-3.82zm5.82 0v2.654h9.58v-2.654H25.8zm9.58 4.654h-4.84V39h4.84v-3.139zM28.54 39v-3.139h-8.56V39h8.56zM18 25.161v4.046h19V25.16H18z" fill="#1D424B"/></svg>