<svg width="30" height="30" fill="none" xmlns="http://www.w3.org/2000/svg"><path d="M10.814 23.023a1.05 1.05 0 01-.405-.084 1.034 1.034 0 01-.642-.962v-8.372c0-.572.475-1.047 1.047-1.047s1.046.475 1.046 1.047v5.846l1.005-1.005a1.053 1.053 0 011.48 0 1.053 1.053 0 010 1.48l-2.792 2.79a1.07 1.07 0 01-.739.307z" fill="#C0C8CD"/><path d="M10.813 23.023c-.265 0-.53-.098-.74-.307l-2.79-2.79a1.053 1.053 0 010-1.48 1.053 1.053 0 011.479 0l2.79 2.791a1.053 1.053 0 010 1.48 1.038 1.038 0 01-.739.306z" fill="#C0C8CD"/><path d="M19.186 30h-8.372C3.237 30 0 26.763 0 19.186v-8.372C0 3.237 3.237 0 10.814 0h6.977c.572 0 1.046.474 1.046 1.047 0 .572-.474 1.046-1.046 1.046h-6.977c-6.433 0-8.721 2.288-8.721 8.721v8.372c0 6.433 2.288 8.721 8.721 8.721h8.372c6.433 0 8.721-2.288 8.721-8.721v-6.977c0-.572.474-1.046 1.046-1.046.573 0 1.047.474 1.047 1.046v6.977C30 26.763 26.763 30 19.186 30z" fill="#C0C8CD"/><path d="M28.953 13.256h-5.58c-4.773 0-6.629-1.856-6.629-6.628V1.046c0-.418.251-.809.642-.962.39-.168.837-.07 1.144.223L29.693 11.47a1.048 1.048 0 01-.74 1.786zM18.837 3.572v3.056c0 3.6.935 4.535 4.535 4.535h3.056l-7.59-7.59z" fill="#C0C8CD"/></svg>