<svg width="349" height="357" fill="none" xmlns="http://www.w3.org/2000/svg"><path d="M174.189 355.451c95.619 0 173.134-79.274 173.134-177.063 0-97.79-77.515-177.063-173.134-177.063-95.62 0-173.134 79.274-173.134 177.063 0 97.789 77.515 177.063 173.134 177.063z" fill="#fff"/><path d="M72.737 94.53c-18.78 24.494-29.168 55.874-27.104 89.425 4.475 72.722 65.73 128.129 136.84 123.747 71.11-4.369 125.119-66.862 120.644-139.584-2.411-39.317-21.444-73.574-49.64-96.056l-16.036 19.352c23.081 18.101 38.678 45.924 40.636 77.903 3.596 58.591-39.917 108.936-97.202 112.466-57.285 3.53-106.646-41.116-110.255-99.706-1.652-26.851 6.593-51.958 21.523-71.63l8.644 6.406 2.797-38.305-38.572 9.656 7.725 6.327z" fill="url(#paint0_linear_746_6)"/><path d="M48.657 56.44C80.21 22.488 124.775 1.324 174.19 1.324c95.617 0 173.134 79.275 173.134 177.063 0 97.788-77.517 177.063-173.134 177.063-95.617 0-173.134-79.275-173.134-177.063 0-42.168 14.411-80.886 38.465-111.294m134.668 115.771l42.302-73.694m-87.573 28.969c14.025 12.693 33.484 31.819 45.271 44.725" stroke="#000" stroke-width="1.785" stroke-linecap="round" stroke-linejoin="round"/><path d="M174.189 186.966c2.222 0 4.023-1.836 4.023-4.102s-1.801-4.102-4.023-4.102c-2.221 0-4.022 1.836-4.022 4.102s1.801 4.102 4.022 4.102z" fill="#000" stroke="#000" stroke-width="1.428" stroke-linecap="round" stroke-linejoin="round"/><path d="M174.189 313.989V290.6m0-224.426V42.773M64.466 176.842H41.584m265.208 0H283.91" stroke="#000" stroke-width="1.785" stroke-linecap="round" stroke-linejoin="round"/><path d="M320.792 193.439c-6.819 70.311-60.908 126.398-129.301 134.589M80.943 295.037C47.94 267.4 26.868 225.405 26.868 178.376c0-83.217 65.956-150.678 147.335-150.678 55.274 0 103.436 31.126 128.635 77.17m-69.819 176.25l8.191 14.305M107.168 61.354l8.191 14.305m163.026 155.82l14.504 7.405M55.476 117.893l14.518 7.392m45.365 155.833l-8.191 14.305M241.21 61.354l-8.191 14.305M69.994 231.479l-14.518 7.405m237.426-120.991l-14.517 7.392" stroke="#000" stroke-width="1.071" stroke-linecap="round" stroke-linejoin="round"/><defs><linearGradient id="paint0_linear_746_6" x1="44.373" y1="214.736" x2="417.548" y2="135.615" gradientUnits="userSpaceOnUse"><stop stop-color="#00BB40"/><stop offset=".1" stop-color="#00BB40" stop-opacity=".75"/><stop offset=".32" stop-color="#00BB40" stop-opacity=".5"/><stop offset=".63" stop-color="#00BB40" stop-opacity=".25"/><stop offset=".97" stop-color="#00BB40" stop-opacity="0"/></linearGradient></defs></svg>