<svg width="115" height="65" fill="none" xmlns="http://www.w3.org/2000/svg"><rect x="1.5" y="1" width="112" height="62.893" rx="8.115" stroke="#1D424B" stroke-width="2"/><path d="M15.698 19.418v-.806h.5c.214 0 .429-.014.644-.043a1.89 1.89 0 00.585-.172c.176-.086.317-.206.425-.36.11-.154.166-.354.166-.601 0-.212-.041-.389-.123-.532a.915.915 0 00-.328-.344 1.38 1.38 0 00-.494-.188 2.876 2.876 0 00-.596-.059c-.308 0-.572.032-.79.097a3.7 3.7 0 00-.57.204l-.279-.833a1.43 1.43 0 01.296-.129c.129-.043.274-.08.435-.112.161-.036.333-.065.515-.086a4.01 4.01 0 01.554-.038c.304 0 .605.03.902.091.297.058.562.156.795.296.233.14.42.324.564.553.147.23.22.516.22.86 0 .218-.043.418-.129.6a1.642 1.642 0 01-.333.479c-.14.14-.299.26-.478.36a2.634 2.634 0 01-.542.225v.043c.268.04.508.106.72.2.214.092.395.212.542.359.15.147.265.32.344.52.082.198.123.42.123.667 0 .394-.073.736-.22 1.026a1.977 1.977 0 01-.618.714 2.717 2.717 0 01-.945.414c-.369.093-.773.14-1.214.14-.25 0-.462-.01-.634-.027a2.793 2.793 0 01-.768-.161 12.689 12.689 0 01-.306-.119l.258-.897c.09.04.177.077.263.113.086.036.185.068.296.097.11.028.243.052.397.07.154.014.346.021.575.021.276 0 .524-.027.746-.08.226-.054.416-.137.57-.248.157-.11.277-.252.36-.424.085-.172.128-.374.128-.607a1.32 1.32 0 00-.112-.564.9.9 0 00-.376-.403c-.176-.107-.412-.186-.71-.236a6.447 6.447 0 00-1.117-.08h-.241zm4.312 3.405l3.481-7.386h.543l3.491 7.386H26.44l-.892-1.907h-3.625l-.892 1.907h-1.02zm4.013-5.167l-.28-.795h-.02l-.285.816-1.107 2.369h2.81l-1.118-2.39zm9.711-1.198H29.92v6.365h-1.042V15.54h4.856v.918zm1.429-.843a6.23 6.23 0 01.897-.13c.308-.024.628-.037.961-.037.408 0 .78.05 1.117.15.34.097.632.242.876.436.247.19.438.426.574.709.136.283.204.607.204.972 0 .404-.08.759-.241 1.063a2.288 2.288 0 01-.629.763 2.714 2.714 0 01-.886.462 3.502 3.502 0 01-1.192.145 44.986 44.986 0 00-.231-.01 53.77 53.77 0 01-.231-.022 2.614 2.614 0 01-.177-.022v2.729h-1.042v-7.208zm1.89.725c-.186 0-.349.003-.488.01-.14.008-.26.026-.36.054v2.799c.035.007.087.014.155.021l.215.022.215.01h.161c.265 0 .505-.037.72-.112.215-.076.397-.18.548-.312.15-.136.267-.297.349-.483.082-.19.123-.398.123-.623 0-.197-.037-.38-.112-.548a1.187 1.187 0 00-.317-.435 1.51 1.51 0 00-.516-.296 2.056 2.056 0 00-.693-.107zm6.811 3.056l.28.655h.064l.22-.687 1.686-3.824h1.064l-2.256 4.807c-.197.465-.374.86-.532 1.181a4.033 4.033 0 01-.473.785c-.157.2-.33.345-.52.435a1.6 1.6 0 01-.688.134 2.85 2.85 0 01-.548-.049 1.46 1.46 0 01-.483-.188l.3-.854a1.2 1.2 0 00.414.156c.13.015.249.022.36.022a.64.64 0 00.516-.258c.14-.175.265-.442.376-.8l-3.18-5.371h1.198l2.202 3.856zm5.135.022v-.806h.5c.214 0 .429-.014.644-.043a1.89 1.89 0 00.585-.172c.175-.086.317-.206.424-.36.111-.154.167-.354.167-.601 0-.212-.041-.389-.124-.532a.915.915 0 00-.327-.344 1.378 1.378 0 00-.494-.188 2.876 2.876 0 00-.597-.059c-.308 0-.57.032-.79.097a3.7 3.7 0 00-.569.204l-.279-.833a1.41 1.41 0 01.296-.129c.128-.043.274-.08.435-.112.16-.036.333-.065.515-.086.187-.026.37-.038.553-.038.305 0 .606.03.903.091.297.058.562.156.795.296.232.14.42.324.564.553.147.23.22.516.22.86 0 .218-.043.418-.129.6a1.642 1.642 0 01-.333.479c-.14.14-.299.26-.478.36a2.631 2.631 0 01-.542.225v.043c.268.04.508.106.72.2.214.092.395.212.542.359.15.147.265.32.343.52.083.198.124.42.124.667 0 .394-.073.736-.22 1.026a1.977 1.977 0 01-.618.714 2.717 2.717 0 01-.945.414c-.369.093-.774.14-1.214.14a6.24 6.24 0 01-.634-.027 2.793 2.793 0 01-.768-.161 12.53 12.53 0 01-.306-.119l.258-.897c.09.04.177.077.263.113.086.036.184.068.295.097.111.028.244.052.398.07.154.014.345.021.575.021.275 0 .524-.027.746-.08.226-.054.416-.137.57-.248.157-.11.277-.252.36-.424.085-.172.128-.374.128-.607a1.32 1.32 0 00-.113-.564.898.898 0 00-.376-.403c-.175-.107-.411-.186-.709-.236a6.447 6.447 0 00-1.117-.08H49zm9.92-1.408l.022-.698h-.044l-.456.714-3.626 4.797h-.639V15.54h1.042v4.85l-.037.682h.053l.462-.715 3.615-4.817h.645v7.283h-1.037V18.01zm8.567-1.552h-2.562v6.365h-1.037v-6.365h-2.562v-.918h6.16v.918zm1.402-.918h1.042v2.776a1.85 1.85 0 01.166-.021 4.4 4.4 0 01.253-.027c.093-.01.19-.018.29-.021.104-.008.199-.011.284-.011.358.003.706.04 1.042.107.337.068.636.186.897.355.262.165.471.39.629.677.157.286.238.648.242 1.084 0 .42-.078.783-.232 1.09-.15.309-.361.565-.633.769-.269.2-.59.35-.962.451a4.757 4.757 0 01-1.208.145c-.108 0-.235-.004-.381-.01a10.96 10.96 0 01-.457-.022 8.177 8.177 0 01-.494-.049 6.295 6.295 0 01-.478-.08V15.54zm1.923 6.483c.257 0 .495-.031.714-.092a1.72 1.72 0 00.58-.274 1.31 1.31 0 00.387-.472c.093-.19.14-.414.14-.672 0-.283-.053-.514-.156-.693a1.092 1.092 0 00-.409-.419 1.585 1.585 0 00-.59-.21 3.99 3.99 0 00-.699-.058c-.064 0-.14.003-.225.01a5.754 5.754 0 00-.247.027 3.356 3.356 0 00-.376.054v2.734c.096.029.218.047.365.054.15.007.322.01.516.01zm13.379 2.132h-.714l-.178-1.332h-5.537l-.161 1.332h-.725V21.91h.816c.04-.05.095-.144.166-.28a4.41 4.41 0 00.242-.564 11.31 11.31 0 00.494-2.052c.072-.454.127-.97.167-1.546.043-.577.06-1.22.053-1.928h4.335v6.37h1.042v2.245zm-2.084-2.245v-5.452H79.77a30.47 30.47 0 01-.135 1.977c-.06.576-.134 1.086-.22 1.53-.086.44-.183.82-.29 1.139a4.911 4.911 0 01-.333.806h3.314zm7.514-5.452h-2.288a62.379 62.379 0 01-.123 1.87 23.53 23.53 0 01-.172 1.524 9.498 9.498 0 01-.242 1.204 4.44 4.44 0 01-.35.902c-.178.333-.386.57-.622.709a1.435 1.435 0 01-.736.204 2.06 2.06 0 01-.365-.027 1.594 1.594 0 01-.28-.07l.13-.875c.078.021.16.034.246.037a.773.773 0 00.516-.21c.086-.074.167-.176.242-.305.104-.183.199-.426.284-.73.09-.308.169-.697.237-1.166.071-.47.13-1.03.177-1.681.046-.655.08-1.424.102-2.304h4.286v7.283H89.62v-6.365zm8.358 6.365h-1.042v-3.1l-1.327.232-2.213 2.868h-1.208l2.025-2.54.44-.506a2.946 2.946 0 01-.586-.236 2.101 2.101 0 01-.526-.403 1.986 1.986 0 01-.376-.59 2.102 2.102 0 01-.145-.812c0-.422.079-.779.236-1.069.158-.29.373-.524.645-.703a2.73 2.73 0 01.956-.392c.369-.083.76-.124 1.176-.124.13 0 .276.004.44.011.165.004.335.013.51.027.18.01.355.027.527.048.172.022.328.048.468.08v7.209zm-2.01-6.483c-.24 0-.47.021-.692.064a1.792 1.792 0 00-.59.22c-.173.104-.31.246-.415.425-.1.179-.15.404-.15.677 0 .257.049.474.145.65.1.175.235.318.403.43.168.107.365.185.59.235.226.047.466.07.72.07h.957v-2.707a1.054 1.054 0 00-.183-.032 2.214 2.214 0 00-.236-.021 6.566 6.566 0 00-.274-.006 7.09 7.09 0 00-.274-.005zM15.683 37.291h2.197v8.227h-2.197V37.29zm-.282-2.98c0-.181.039-.348.115-.5a1.22 1.22 0 01.325-.387c.135-.111.293-.197.475-.255a1.75 1.75 0 01.588-.097c.24 0 .457.032.65.097a1.4 1.4 0 01.493.255 1.084 1.084 0 01.44.888c0 .404-.144.714-.431.931-.287.211-.671.317-1.152.317a2.09 2.09 0 01-.588-.08 1.52 1.52 0 01-.475-.246 1.22 1.22 0 01-.325-.386 1.22 1.22 0 01-.115-.536zm4.905 5.265c0-.984.143-1.86.43-2.628.287-.773.692-1.424 1.213-1.95a5.245 5.245 0 011.89-1.205c.732-.281 1.547-.422 2.443-.422.95 0 1.793.15 2.532.448a5.26 5.26 0 011.89 1.266 5.46 5.46 0 011.177 1.96c.27.756.404 1.594.404 2.514 0 .925-.134 1.77-.404 2.53a5.46 5.46 0 01-1.178 1.96 5.26 5.26 0 01-1.89 1.266c-.738.3-1.581.449-2.53.449-.897 0-1.712-.138-2.444-.413a5.347 5.347 0 01-1.89-1.213c-.521-.528-.926-1.175-1.213-1.943-.287-.767-.43-1.64-.43-2.619zm2.663-.017c0 .685.079 1.28.237 1.784.158.504.381.92.668 1.248.293.328.642.571 1.046.73.41.157.864.237 1.362.237.569 0 1.06-.103 1.477-.308a2.82 2.82 0 001.037-.844c.275-.357.477-.779.606-1.265.135-.493.203-1.02.203-1.582a5.87 5.87 0 00-.203-1.574 3.44 3.44 0 00-.606-1.257 2.82 2.82 0 00-1.037-.843c-.416-.205-.908-.308-1.477-.308-.498 0-.952.08-1.362.238a2.708 2.708 0 00-1.046.729c-.287.328-.51.744-.668 1.248-.158.498-.237 1.087-.237 1.767zm17.165 2.689a.933.933 0 00-.202-.598 1.945 1.945 0 00-.545-.457 4.853 4.853 0 00-.8-.369 25.644 25.644 0 00-.958-.334 12.259 12.259 0 01-1.222-.483 4.976 4.976 0 01-1.098-.712 3.602 3.602 0 01-.791-1.01c-.205-.393-.308-.853-.308-1.38 0-.598.103-1.117.308-1.556a2.99 2.99 0 01.887-1.108 3.9 3.9 0 011.38-.65 6.795 6.795 0 011.784-.22c.762 0 1.474.064 2.136.194.674.134 1.228.319 1.661.553l-.8 2.11a3.643 3.643 0 00-.536-.247 5.724 5.724 0 00-.712-.22 8.118 8.118 0 00-.86-.158 7.046 7.046 0 00-.941-.061c-.569 0-1.008.1-1.319.299-.31.199-.465.474-.465.826 0 .193.043.363.131.51.088.14.208.27.36.386.153.118.326.223.52.317.198.088.407.173.623.255.223.076.446.155.668.237.229.076.446.158.65.246.37.158.73.337 1.082.536.357.2.676.434.958.703.28.264.506.569.676.915.17.345.255.74.255 1.186 0 .656-.114 1.225-.343 1.705a3.15 3.15 0 01-.966 1.178c-.41.31-.906.539-1.486.685a7.397 7.397 0 01-1.898.229c-.463 0-.905-.027-1.327-.08a13.296 13.296 0 01-1.16-.193 9.567 9.567 0 01-.932-.246 4.636 4.636 0 01-.624-.263l.835-2.198c.123.07.293.153.51.247.222.093.471.181.747.263.275.082.568.153.879.211.316.059.63.088.94.088.762 0 1.336-.108 1.723-.325.386-.217.58-.554.58-1.011z" fill="#1D424B"/></svg>