<svg width="17" height="22" fill="none" xmlns="http://www.w3.org/2000/svg"><path d="M8.5 22c1.417-1.235 2.656-2.444 3.719-3.63 1.062-1.185 1.948-2.333 2.656-3.444.708-1.111 1.24-2.173 1.594-3.185.354-1.013.531-1.963.531-2.852 0-2.462-.829-4.558-2.487-6.29C12.855.865 10.848 0 8.493 0 6.135 0 4.131.866 2.478 2.598.826 4.33 0 6.428 0 8.888c0 1.137.177 2.236.531 3.297.354 1.062.886 2.111 1.594 3.148.708 1.037 1.594 2.1 2.656 3.185A64.461 64.461 0 008.5 22zm0-10.889c-.803 0-1.476-.284-2.019-.852-.543-.568-.814-1.271-.814-2.11 0-.84.271-1.544.814-2.112.543-.568 1.216-.852 2.019-.852.803 0 1.476.284 2.019.852.543.568.814 1.272.814 2.111 0 .84-.271 1.543-.814 2.111-.543.568-1.216.852-2.019.852z" fill="#61D284"/></svg>