<svg width="60" height="60" fill="none" xmlns="http://www.w3.org/2000/svg"><path fill-rule="evenodd" clip-rule="evenodd" d="M30 31.428c9.056 0 15.714-6.76 15.714-14.285h11.429c0 14.566-12.53 25.714-27.143 25.714-14.613 0-27.143-11.148-27.143-25.714h11.429c0 7.524 6.658 14.285 15.714 14.285z" fill="#61D284"/><path d="M37.003 34.714l.774-4.33 1.25-5.725 7.401 2.026c-1.851-1.27-3.43-3.228-4.423-5.499l-2.022-.553.011-.506a2.355 2.355 0 00-.31-.848c-.285-.332-.98-.632-1.414-.496-.537.107-.89.52-1.004.997l-7.024-1.923-.956 4.026 6.784 1.857-1.467 6.175-1.091 4.134c-.5 1.644-1.058 3.38-1.766 4.822-.523 1.128-1.494 1.989-1.425 3.388-.135 2.107 2.14 3.893 3.91 3.36 1.394-.49 1.95-1.755 2.12-3.09-.083-2.566.198-5.287.652-7.815z" fill="#1D424B"/></svg>