<svg width="221" height="84" fill="none" xmlns="http://www.w3.org/2000/svg"><path fill-rule="evenodd" clip-rule="evenodd" d="M42 44c12.68 0 22-9.465 22-20h16c0 20.393-17.542 36-38 36S4 44.393 4 24h16c0 10.535 9.321 20 22 20z" fill="#61D284"/><path d="M51.805 48.6l1.082-6.062 1.751-8.016L65 37.36c-2.592-1.778-4.802-4.52-6.193-7.698l-2.83-.775.015-.708a3.295 3.295 0 00-.434-1.187c-.4-.465-1.373-.884-1.98-.695-.752.15-1.246.728-1.405 1.396L42.339 25 41 30.636l9.498 2.6-2.053 8.646-1.528 5.787c-.7 2.301-1.482 4.732-2.472 6.75-.733 1.58-2.092 2.785-1.995 4.745-.19 2.949 2.997 5.45 5.473 4.703 1.951-.687 2.73-2.458 2.969-4.325-.117-3.593.277-7.402.913-10.942zm57.683-27.808c1.907 0 3.38.563 4.42 1.69 1.057 1.11 1.586 2.678 1.586 4.706 0 2.253-.563 3.987-1.69 5.2-1.109 1.213-2.695 1.82-4.758 1.82-1.924 0-3.406-.572-4.446-1.716-1.04-1.144-1.56-2.765-1.56-4.862 0-2.184.555-3.865 1.664-5.044 1.127-1.196 2.721-1.794 4.784-1.794zm-.234 2.054c-1.248 0-2.167.355-2.756 1.066-.572.693-.858 1.829-.858 3.406 0 1.75.286 2.999.858 3.744.572.745 1.482 1.118 2.73 1.118 1.265 0 2.193-.347 2.782-1.04.589-.71.884-1.863.884-3.458 0-1.733-.286-2.973-.858-3.718-.572-.745-1.499-1.118-2.782-1.118zm17.561-1.664l-.156 2.002-2.522-.182h-1.092l-.052 6.864.078 4.134h-2.496l.104-3.9-.052-7.098h-1.066l-2.574.182-.182-.208.182-2.002h9.698l.13.208zm8.49 5.902a72.952 72.952 0 005.538 6.344l-.052.364c-.815.208-1.63.355-2.444.442l-.364-.156c-2.167-2.6-3.952-4.88-5.356-6.838v-.182l4.186-4.862.832-1.222 2.86-.026-5.2 6.136zm-2.756 2.782l.104 4.134h-2.496l.104-3.9-.104-9.126h2.522l-.13 8.892zm16.842-8.918c1.404 0 2.487.347 3.25 1.04.78.676 1.17 1.647 1.17 2.912 0 1.49-.494 2.67-1.482 3.536-.988.85-2.323 1.274-4.004 1.274h-1.482v.156l.104 4.134h-2.496l.104-3.9-.104-9.126 4.94-.026zm-.442 6.89c1.491-.312 2.236-1.222 2.236-2.73 0-.745-.208-1.3-.624-1.664-.416-.364-1.057-.563-1.924-.598l-1.69.052-.078 4.888 2.08.052zm13.514-1.82c1.283 0 2.262.303 2.938.91.676.607 1.014 1.482 1.014 2.626 0 1.387-.485 2.479-1.456 3.276-.97.78-2.322 1.17-4.056 1.17h-3.588l.13-3.9-.13-9.178h2.574l-.078 5.096h2.652zm8.658 3.848l.104 4.134h-2.496l.104-3.9-.104-9.126h2.522l-.13 8.892zm-9.464 2.34c.676-.104 1.196-.355 1.56-.754.382-.399.572-.919.572-1.56 0-.659-.19-1.17-.572-1.534-.381-.381-.91-.563-1.586-.546l-1.846.052-.026 2.002.052 2.262 1.846.078zm22.715-11.024l-.156 2.002-2.522-.182h-1.092l-.052 6.864.078 4.134h-2.496l.104-3.9-.052-7.098h-1.066l-2.574.182-.182-.208.182-2.002h9.698l.13.208zm8.177 4.836c1.283 0 2.262.303 2.938.91.676.607 1.014 1.482 1.014 2.626 0 1.387-.485 2.479-1.456 3.276-.971.78-2.323 1.17-4.056 1.17h-3.588l.13-3.9-.13-9.178h2.574l-.078 5.096h2.652zm8.658 3.848l.104 4.134h-2.496l.104-3.9-.104-9.126h2.522l-.13 8.892zm-9.464 2.34c.676-.104 1.196-.355 1.56-.754.381-.399.572-.919.572-1.56 0-.659-.191-1.17-.572-1.534-.381-.381-.91-.563-1.586-.546l-1.846.052-.026 2.002.052 2.262 1.846.078zm24.658-15.496a3.57 3.57 0 01-1.534 1.742c-.693.416-1.508.624-2.444.624-.936 0-1.742-.2-2.418-.598-.659-.416-1.161-1.005-1.508-1.768l1.352-.936h.312c.173.59.442 1.023.806 1.3.381.26.884.39 1.508.39s1.109-.121 1.456-.364c.347-.26.624-.702.832-1.326h.286l1.352.936zm-9.516 13.39l-.13-9.1 2.574-.13-.156 9.23h.182l6.11-9.178h2.73l-.13 8.944.078 4.134h-2.548l.13-3.9v-5.278h-.208L209.407 34h-2.652l.13-3.9zM109.15 52.948c1.404 0 2.487.347 3.25 1.04.78.676 1.17 1.647 1.17 2.912 0 1.49-.494 2.67-1.482 3.536-.988.85-2.323 1.274-4.004 1.274h-1.482v.156l.104 4.134h-2.496l.104-3.9-.104-9.126 4.94-.026zm-.442 6.89c1.491-.312 2.236-1.222 2.236-2.73 0-.745-.208-1.3-.624-1.664-.416-.364-1.057-.563-1.924-.598l-1.69.052-.078 4.888 2.08.052zm17.076 4.082l.182.182-.208 1.898h-8.346l.104-3.9-.104-9.126h8.424l.156.208-.182 1.898-3.302-.13-2.6.026-.052 3.38 2.496.026 2.262-.078.13.208-.156 1.924-2.444-.078-2.314.026-.026 1.482.052 2.132 2.418.026 3.51-.104zm12.501-10.79l-.208 1.872-2.964-.052h-1.95l-.104 6.916.104 4.134h-2.574l.13-3.9-.13-9.178h7.514l.182.208zm3.426 8.97l-.13-9.1 2.574-.13-.156 9.23h.182l6.11-9.178h2.73l-.13 8.944.078 4.134h-2.548l.13-3.9v-5.278h-.208L144.233 66h-2.652l.13-3.9zm21.677-9.308c1.907 0 3.38.563 4.42 1.69 1.058 1.11 1.586 2.678 1.586 4.706 0 2.253-.563 3.987-1.69 5.2-1.109 1.213-2.695 1.82-4.758 1.82-1.924 0-3.406-.572-4.446-1.716-1.04-1.144-1.56-2.765-1.56-4.862 0-2.184.555-3.865 1.664-5.044 1.127-1.196 2.722-1.794 4.784-1.794zm-.234 2.054c-1.248 0-2.166.355-2.756 1.066-.572.693-.858 1.829-.858 3.406 0 1.75.286 2.999.858 3.744.572.745 1.482 1.118 2.73 1.118 1.266 0 2.193-.347 2.782-1.04.59-.71.884-1.863.884-3.458 0-1.733-.286-2.973-.858-3.718-.572-.745-1.499-1.118-2.782-1.118zm21.674 7.02l.104 4.134h-2.496l.078-3.9-.026-1.56-3.354-.026-3.068.052-.026 1.3.104 4.134h-2.496l.104-3.9-.104-9.126h2.522l-.078 5.408 3.224.052 3.172-.026-.052-5.434h2.522l-.13 8.892zm11.796-8.892h5.85l1.17-.052.026 1.95-4.732 10.348-1.274 3.406-2.132-.572-.156-.442 5.798-12.454h-4.992l-2.158.234-.156-.26.182-2.262 2.574.104zm15.049.156l-.156 7.488.13 5.382h-2.678l.156-5.096-.026-5.044-3.172.884-.234-.156v-2.106l5.59-1.638.39.286z" fill="#1D424B"/></svg>