<svg width="409" height="429" fill="none" xmlns="http://www.w3.org/2000/svg"><path d="M408.005 232.941H90.519a.604.604 0 01-.61-.608c0-.34.268-.608.61-.608h317.486c.342 0 .611.268.611.608 0 .34-.269.608-.611.608z" fill="#1D424B"/><path d="M261.291 175.996c-8.719-1.142-17.634-3.986-24.204-5.59-8.67-2.09-13.213-8.725-8.793-17.159 5.325-10.159-4.078-13.707-8.328-21.655-6.399-11.981-3.542-28.387 8.939-35.216 3.835-2.09 8.475-3.33 10.869-6.976 3.101-4.739 1.172-10.936 3.468-15.943 2.467-5.42 8.304-9.236 14.166-9.673 11.235-.826 21.371 9.406 23.666 19.783.318 1.434.562 3.014 1.637 4.01 2.027 1.896 5.251.56 7.767-.631 6.594-3.135 14.117-4.52 21.297-3.257 21.591 3.84 23.471 26.176 22.592 44.136-.537 11.034-.659 26.03-13.677 29.773-8.304 2.382-18.001-1.604-25.523 2.673-4.958 2.82-7.547 8.555-12.065 12.031-5.642 4.326-13.629 4.763-21.811 3.694z" fill="#61D284"/><path d="M270.597 234.034c.122-.024.269-.024.391-.048a99.942 99.942 0 018.475-.827 53.59 53.59 0 019.037.341c.781.097 5.788 1.264 6.13.753.464-.729-1.93-2.795-2.369-3.232-1.685-1.677-3.273-3.476-4.494-5.517-1.856-3.087-1.905-5.639-1.905-9.09 0-6.902-.049-13.805-.025-20.683.025-6.805.391-13.464-.513-20.27-.341-2.551-.781-5.103-.854-7.68-.147-6.051 1.416-12.127 1.783-18.179.342-5.833 1.758-11.788 2.198-17.718-1.466 2.139-2.223 4.667-2.98 7.146-1.246 4.131-2.516 8.263-3.761 12.37-.66 2.212-1.612 5.663-3.81 6.903-2.003 1.118-4.812-.559-5.96-2.333-1.148-1.775-1.392-3.962-1.636-6.052-.415-3.767-.806-7.51-1.221-11.277-.318-2.965-.831-6.271-3.2-8.069.733 5.371 1.441 10.742 2.174 16.113.146 1.167.317 2.407-.098 3.5-1.392 3.792-5.031-.656-6.277-2.211-2.809-3.452-4.787-7.413-7.815-10.743-1.124-1.239-2.37-2.43-3.957-2.892.415.972 1.05 1.823 1.661 2.698 2.1 2.916 4.054 5.93 5.959 8.968 1.734 2.771 3.835 5.152 5.593 7.899a52.05 52.05 0 017.205 18.349c1.71 9.357.806 19.346.806 28.801v13.61c0 1.993.586 4.107 0 6.003-2.393 7.802-8.792 11.885-9.94 13.076-.245.267-.464.68-.269.972.195.292.635.267 1.001.219 2.882-.438 5.764-.559 8.671-.9z" fill="#fff"/><path d="M261.56 235.566c-.367 0-.806-.098-1.075-.511-.317-.462-.195-1.118.318-1.652.22-.244.586-.535 1.074-.924 2.223-1.823 6.815-5.639 8.744-11.933.366-1.167.244-2.431.098-3.768a19.323 19.323 0 01-.122-2.065v-13.611c0-2.406.048-4.909.122-7.315.171-7.121.342-14.485-.928-21.388-1.173-6.367-3.639-12.638-7.132-18.155-.855-1.337-1.807-2.625-2.736-3.864-.952-1.288-1.953-2.625-2.857-4.035-1.563-2.503-3.664-5.784-5.935-8.944l-.098-.121c-.586-.827-1.221-1.677-1.636-2.649a.57.57 0 01.097-.584.613.613 0 01.562-.17c1.71.486 3.053 1.774 4.226 3.062 1.709 1.896 3.126 4.011 4.469 6.052 1.05 1.58 2.149 3.233 3.346 4.715 2.003 2.455 3.468 3.646 4.372 3.476.391-.073.708-.438.977-1.118.366-1.021.22-2.212.073-3.257l-2.173-16.114a.521.521 0 01.268-.534.516.516 0 01.611.048c2.515 1.92 3.053 5.226 3.395 8.434l1.221 11.277c.195 1.92.44 4.107 1.539 5.809.977 1.531 3.517 3.11 5.226 2.163 1.905-1.07 2.833-4.205 3.468-6.271l3.859-12.687c.758-2.479 1.539-5.055 3.053-7.291a.584.584 0 01.635-.219.528.528 0 01.367.559c-.22 2.844-.66 5.736-1.075 8.531-.464 3.014-.928 6.149-1.123 9.163-.147 2.527-.513 5.079-.855 7.558-.489 3.476-1.002 7.073-.928 10.573.049 1.968.342 3.986.61 5.93.074.559.171 1.118.245 1.677.732 5.468.659 10.961.561 16.259-.024 1.361-.049 2.722-.049 4.083-.024 4.278 0 8.604 0 12.809 0 2.625.025 5.249.025 7.874 0 3.233 0 5.785 1.832 8.798 1.074 1.775 2.491 3.5 4.42 5.42.049.049.147.122.245.219 1.758 1.653 2.76 2.843 2.198 3.694-.342.535-1.148.559-5.496-.292-.512-.097-.977-.194-1.147-.218a52.354 52.354 0 00-8.94-.341c-2.54.122-5.3.389-8.45.803-.147.024-.269.024-.415.048-1.124.122-2.248.243-3.347.34-1.734.146-3.517.316-5.275.608a2.089 2.089 0 01-.464.049zm-10.356-99.988c.22.341.464.681.733 1.046l.098.121c2.295 3.184 4.396 6.489 5.983 8.993.88 1.385 1.857 2.697 2.809 3.961.928 1.264 1.905 2.552 2.784 3.937 3.566 5.639 6.106 12.055 7.279 18.544 1.294 7.024 1.123 14.437.952 21.607-.049 2.406-.122 4.885-.122 7.291v13.61c0 .632.073 1.288.122 1.969.122 1.385.269 2.819-.146 4.205-2.027 6.61-6.79 10.548-9.086 12.443-.44.365-.806.657-.977.851-.122.146-.195.267-.195.316h.073c.073 0 .171 0 .366-.024 1.783-.292 3.615-.462 5.349-.608 1.075-.097 2.198-.194 3.322-.34.122-.025.268-.025.391-.049 3.175-.437 5.959-.705 8.524-.826a54.54 54.54 0 019.134.34c.22.024.635.097 1.221.219.977.194 3.371.656 4.274.656h.025c-.147-.292-.586-.899-1.954-2.187-.122-.098-.195-.195-.269-.243-2.002-1.969-3.444-3.768-4.567-5.639-1.978-3.281-1.978-6.1-1.978-9.357 0-2.625 0-5.25-.025-7.875a1139.2 1139.2 0 010-12.808c0-1.361.025-2.722.049-4.083.073-5.493.147-10.694-.562-16.114-.073-.559-.146-1.118-.244-1.677-.269-1.968-.562-4.01-.61-6.076-.074-3.597.439-7.242.928-10.742.342-2.455.708-4.982.854-7.461.171-3.063.66-6.222 1.124-9.26.293-1.92.586-3.889.806-5.833-.684 1.507-1.172 3.135-1.661 4.715l-3.859 12.686c-.684 2.236-1.685 5.615-3.981 6.903-2.393 1.337-5.471-.632-6.692-2.528-1.246-1.92-1.49-4.229-1.71-6.295l-1.221-11.277c-.269-2.406-.635-4.836-1.881-6.562l1.954 14.485c.147 1.118.342 2.504-.122 3.768-.391 1.069-1.001 1.701-1.807 1.822-1.783.292-3.81-1.92-5.398-3.888-1.245-1.556-2.345-3.208-3.419-4.812-1.343-2.018-2.711-4.084-4.372-5.931-.708-.704-1.465-1.458-2.296-1.993zm-2.295-57.308h-.049c-.293-.025-.538-.292-.513-.584.293-3.621 3.59-6.076 6.57-7.146 5.422-1.968 11.845-.923 16.364 2.65a.541.541 0 01.097.753.547.547 0 01-.757.097c-4.225-3.354-10.233-4.326-15.313-2.479-2.541.924-5.594 3.087-5.838 6.222a.554.554 0 01-.561.486z" fill="#1D424B"/><path d="M254.721 166.007c-4.616 0-9.208-1.653-12.7-4.739-4.738-4.156-7.156-10.597-6.35-16.819.048-.291.317-.51.61-.462.293.049.513.316.464.608-.757 5.784 1.588 12.031 5.984 15.871s10.869 5.371 16.511 3.864a.538.538 0 01.659.389.536.536 0 01-.391.656c-1.538.438-3.175.632-4.787.632z" fill="#1D424B"/><path d="M122 405.512c31.629 12.565 60.01 17.426 69.877 18.933 56.468 8.628 116.062 5.663 156.557-16.43-.147-6.173 1.221-12.152 4.616-17.912-9.648 2.795-13.384 10.038-14.606 19.176-.122-10.426 1.588-20.634 6.009-30.696-9.526 5.055-13.433 16.648-15.216 30.818h-1.979c2.052-11.982 5.886-23.454 12.261-34.439-10.502 4.787-14.972 18.641-20.052 34.439h-.586c1.319-10.354 4.372-19.881 9.989-29.068-10.258 3.791-15.68 14.898-19.343 29.068h-2.638c-1.979-11.448-1.856-22.603 1.465-34.099-4.762 3.402-7.62 8.482-9.232 14.68-7.791 2.308-12.139 7.655-14.605 14.679 2.613-10.669 6.96-20.78 13.799-30.137-13.042 3.646-20.565 17.402-26.28 34.852h-2.052c-.537-13.075 1.222-25.471 6.497-37.89-11.43 6.271-15.704 20.44-17.463 37.89h-.317c-.074-7.631 1.318-14.509 4.762-21.533-8.499 3.524-12.114 11.714-13.58 21.533h-.195c-.464-12.541 1.319-25.155 6.521-37.38-9.476 5.202-14.043 15.968-16.339 29.336.464-9.722 2.442-19.298 6.472-28.777-11.186 6.125-15.534 19.93-17.365 36.821h-.831c-1.074-10.353-.366-20.172 2.882-30.331-8.572 5.76-11.381 16.721-11.87 30.331h-2.1c1.612-11.982 6.619-24.182 11.064-36.14-8.231 8.215-17.414 20.877-21.737 36.14h-.293c-.831-9.819-.049-19.127 3.053-28.752-8.207 5.517-11.138 15.993-11.797 28.631-2.76-12.468-3.224-25.155-.22-38.255-9.745 7.85-11.699 21.995-10.698 38.352h-2.857c-.904-11.982-.049-23.988 3.395-36.116-8.598 6.927-9.794 20.318-10.771 36.116h-.489c-1.441-9.26-1.367-18.398.855-27.901-7.4 5.906-9.598 15.919-9.476 27.901h-3.444c-.098-9.26 1.294-17.888 4.689-26.759-8.231 4.885-11.772 14.777-13.262 26.759h-2.1c.122-12.541 3.663-24.985 6.692-37.453-7.01 8.92-14.435 21.971-17.097 37.307-2.271-8.774-1.881-17.475 2.491-26.054-9.794 3.5-13.921 10.232-15.167 18.641a63.42 63.42 0 013.175-16.842c-6.594 4.277-9.745 11.593-11.064 20.561zm175.657-6.295c-.269 3.233-.342 6.392-.294 10.208h-1.734c.196-3.816.855-6.927 2.028-10.208z" fill="#61D284"/><path d="M101.315 348.36a.49.49 0 01-.391-.17 41.945 41.945 0 01-2.173-2.504.564.564 0 01.073-.777.571.571 0 01.781.073 51.062 51.062 0 002.125 2.43.564.564 0 01-.024.778.523.523 0 01-.391.17zm83.383 23.866a419.6 419.6 0 01-5.568-.048.547.547 0 01-.538-.559c0-.292.269-.535.562-.535 1.807.024 3.664.049 5.544.049h.855a.54.54 0 01.537.534.54.54 0 01-.537.535l-.855.024zm-11.992-.243a249.13 249.13 0 01-6.448-.364c-.293-.025-.537-.292-.513-.584a.55.55 0 01.587-.51c2.076.146 4.225.267 6.399.365.293.024.537.267.513.559a.525.525 0 01-.538.534zm-12.798-.899h-.049a235.64 235.64 0 01-6.399-.729c-.293-.049-.513-.316-.464-.608.049-.291.318-.51.611-.461 2.076.267 4.201.51 6.35.729a.55.55 0 01.488.607c-.024.268-.268.462-.537.462zm-12.725-1.701h-.097c-2.15-.365-4.275-.778-6.326-1.24-.293-.073-.489-.364-.415-.656a.553.553 0 01.659-.413c2.027.437 4.128.851 6.277 1.215a.55.55 0 01.44.632.545.545 0 01-.538.462zm-12.554-2.747c-.048 0-.097 0-.146-.024a123.53 123.53 0 01-6.179-1.871.534.534 0 01-.342-.681.538.538 0 01.684-.34c1.954.656 4.005 1.288 6.106 1.871.293.073.464.389.39.681-.049.194-.268.364-.513.364zm-12.138-4.156a.725.725 0 01-.22-.048 71.584 71.584 0 01-5.837-2.747.527.527 0 01-.22-.729.533.533 0 01.733-.218 73.995 73.995 0 005.764 2.697c.268.122.415.438.293.705a.552.552 0 01-.513.34zm-11.333-5.93a.47.47 0 01-.293-.097 56.019 56.019 0 01-5.202-3.816.543.543 0 01-.074-.777.548.548 0 01.782-.073 53.93 53.93 0 005.105 3.742.546.546 0 01.146.754c-.122.17-.293.267-.464.267zm80.819 15.604a.54.54 0 01-.537-.535c0-.292.244-.559.537-.559 1.099-.024 2.174-.049 3.273-.097a.519.519 0 01.562.535c0 .291-.22.559-.538.559-1.099.024-2.173.072-3.297.097zm-85.728-40.685a.489.489 0 01-.391-.17 42.028 42.028 0 01-2.174-2.504.564.564 0 01.074-.777.571.571 0 01.781.072 50.275 50.275 0 002.125 2.431.564.564 0 01-.024.778.563.563 0 01-.391.17zm83.383 23.866a419.6 419.6 0 01-5.568-.048.546.546 0 01-.537-.559c0-.292.268-.535.561-.535 1.808.024 3.664.048 5.544.048h.855c.293 0 .538.244.538.535a.541.541 0 01-.538.535l-.855.024zm-11.992-.243a253.668 253.668 0 01-6.448-.364c-.293-.025-.537-.292-.512-.584a.563.563 0 01.586-.51c2.076.146 4.225.267 6.399.364.293.025.537.268.513.559a.541.541 0 01-.538.535zm-12.822-.899h-.049a235.186 235.186 0 01-6.399-.729c-.293-.049-.513-.316-.464-.608.049-.292.317-.51.61-.462 2.077.268 4.201.511 6.351.729a.551.551 0 01.488.608c0 .267-.244.462-.537.462zm-12.725-1.701h-.098a121.438 121.438 0 01-6.325-1.24c-.294-.073-.489-.364-.416-.656a.555.555 0 01.66-.413c2.027.437 4.127.85 6.277 1.215.293.048.488.34.439.632-.024.291-.268.462-.537.462zm-12.529-2.747c-.049 0-.098 0-.147-.024a122.48 122.48 0 01-6.179-1.872.533.533 0 01-.342-.68.538.538 0 01.684-.34c1.954.656 4.005 1.288 6.106 1.871.293.073.464.389.39.681-.048.194-.268.364-.512.364zm-12.139-4.156a.725.725 0 01-.22-.048 72.078 72.078 0 01-5.837-2.747.527.527 0 01-.22-.729.535.535 0 01.733-.219 73.804 73.804 0 005.764 2.698c.268.122.415.438.293.705a.552.552 0 01-.513.34zm-11.333-5.954a.473.473 0 01-.293-.098 56.011 56.011 0 01-5.202-3.815.543.543 0 01-.073-.778.549.549 0 01.781-.073 54.112 54.112 0 005.105 3.743c.244.17.317.51.146.753a.529.529 0 01-.464.268zm80.819 15.627a.541.541 0 01-.538-.534c0-.292.245-.559.538-.559 1.099-.025 2.173-.049 3.273-.098a.518.518 0 01.561.535c0 .292-.22.559-.537.559-1.099.024-2.198.073-3.297.097zM72.25 333.341c7.163 0 12.97-1.622 12.97-3.622 0-2-5.807-3.621-12.97-3.621-7.162 0-12.969 1.621-12.969 3.621s5.807 3.622 12.97 3.622z" fill="#1D424B"/><path d="M50.513 192.887s-48.31 1.434-43.328-14.849c3.175-10.354 38.15-.511 48.335 2.795 1.734.559 42.961-3.403 42.961-3.403l-11.186 22.481-36.782-7.024z" fill="#fff"/><path d="M87.295 200.47h-.097l-36.734-7.024c-2.125.049-35.268.802-42.693-8.846-1.49-1.945-1.856-4.205-1.099-6.684.44-1.458 1.49-2.6 3.078-3.427 10.673-5.517 44.524 5.42 45.965 5.882 1.49.364 26.378-1.847 42.742-3.427a.558.558 0 01.513.243c.122.17.122.365.049.559l-11.186 22.481c-.147.146-.318.243-.538.243zm-36.782-8.142h.098l36.391 6.976 10.551-21.218c-8.694.827-40.519 3.84-42.204 3.281-1.417-.462-34.853-11.253-45.11-5.954-1.344.68-2.175 1.604-2.517 2.77-.659 2.163-.366 4.035.929 5.712 7.156 9.357 41.496 8.458 41.862 8.433-.024 0-.024 0 0 0z" fill="#1D424B"/><path d="M17.932 175.729S10.018 254.814 6.72 280.868c-3.297 26.054 1.978 60.542 1.978 60.542l16.975 5.444s5.227-38.133 7.376-56.944a36.068 36.068 0 012.809-10.305c2.906-6.587 8.084-19.395 10.38-31.353 3.273-17.037 12.896-43.723 12.896-43.723s2.173 133.892 2.344 144.561c0 0 13.507 3.378 19.173 0 0 0 12.09-48.827 11.943-75.78-.122-26.929 4.567-93.571 4.567-93.571l-79.23-4.01z" fill="#1D424B"/><path d="M24.844 393.956c-4.42.413-11.65.607-20.028-1.094-2.76-.559-4.445-3.524-3.639-6.392 2.247-7.972 4.445-23.551 10.283-30.356l-4.934-23.672c7.132 1.434 12.822 2.843 21.346-1.458.587-.292 1.246.17 1.173.802l-3.249 24.595 3.297 32.155c.22 2.746-1.66 5.176-4.25 5.42z" fill="#fff"/><path d="M18.591 394.782a70.76 70.76 0 01-13.897-1.386c-1.417-.291-2.638-1.166-3.444-2.43a5.878 5.878 0 01-.635-4.618c.537-1.896 1.075-4.253 1.637-6.781 1.856-8.142 4.152-18.252 8.572-23.575L5.94 332.539c-.048-.17.025-.365.147-.486.122-.122.318-.195.489-.146l.854.17c6.766 1.385 12.115 2.455 20.15-1.58.464-.218.977-.194 1.392.098.415.291.61.777.562 1.263l-3.248 24.548 3.297 32.081c.22 3.038-1.905 5.736-4.738 6.003-1.686.17-3.81.292-6.253.292zm6.204-1.361c2.271-.219 3.956-2.382 3.761-4.837l-3.297-32.13v-.121l3.248-24.596c.025-.122-.049-.195-.098-.243a.31.31 0 00-.268-.025c-8.353 4.205-14.142 3.038-20.858 1.677h-.049l4.763 22.895c.024.17 0 .34-.123.462-4.347 5.055-6.667 15.19-8.523 23.307-.587 2.528-1.124 4.91-1.661 6.83a4.742 4.742 0 00.513 3.767c.635 1.021 1.587 1.701 2.71 1.944a69.833 69.833 0 0019.882 1.07z" fill="#1D424B"/><path d="M15.27 389.265c-3.469 0-7.401-.365-11.26-1.532-.293-.097-.464-.388-.366-.68.097-.292.39-.462.683-.365 10.21 3.063 21.176.414 21.274.389a.538.538 0 01.66.389.535.535 0 01-.392.656c-.073.049-4.616 1.143-10.6 1.143zm5.568-12.347c-.024 0-.024 0 0 0l-9.891-.194a.546.546 0 01-.538-.559c0-.292.269-.535.562-.535l9.892.195c.293 0 .537.243.537.559a.58.58 0 01-.562.534z" fill="#1D424B"/><path d="M59.477 378.011c-.147 2.285 1.245 4.375 3.297 5.007 7.205 2.212 23.422 7.121 28.063 8.118 6.032 1.288 13.604-.292 16.974-3.913 3.395-3.622-1.856-11.01-11.357-16.794-7.522-4.57-13.701-15.336-16.632-15.92-.391-.073 5.788-22.773 4.616-22.602-5.447.777-21.713 1.458-25.01-2.358l2.686 28.703c.025-.024-1.93 8.118-2.637 19.759z" fill="#fff"/><path d="M95.233 392.108c-1.514 0-3.053-.146-4.494-.462-4.69-.996-21.224-6.003-28.112-8.117-2.296-.705-3.834-3.038-3.688-5.566.66-10.888 2.443-18.86 2.663-19.783l-2.663-28.606a.556.556 0 01.342-.559c.22-.097.464-.025.635.146 3.029 3.499 18.953 2.965 24.522 2.187a.675.675 0 01.561.194c.513.584.196 2.82-2.955 15.774-.684 2.843-1.392 5.784-1.587 6.805 1.44.608 3.224 2.722 5.593 5.517 2.98 3.5 6.692 7.874 10.746 10.329 7.205 4.375 12.041 9.649 12.603 13.781.22 1.506-.171 2.843-1.124 3.84-2.686 2.819-7.864 4.52-13.042 4.52zm-35.097-61.343l2.564 27.39c0 .049 0 .122-.024.171-.024.072-1.954 8.239-2.662 19.686-.122 2.041 1.099 3.913 2.906 4.472 6.888 2.09 23.374 7.097 28.039 8.093 6.057 1.288 13.286-.34 16.462-3.743.732-.777 1.001-1.774.83-2.965-.513-3.743-5.251-8.847-12.09-13.003-4.225-2.551-7.986-6.999-11.015-10.572-2.222-2.6-4.299-5.055-5.422-5.298a.554.554 0 01-.366-.243c-.196-.316-.22-.365 1.563-7.729 1.172-4.812 3.077-12.662 3.15-14.558-4.762.632-18.953 1.361-23.935-1.701z" fill="#1D424B"/><path d="M95.746 387.685c-13.31 0-32.142-9.309-33.167-9.819-.27-.146-.391-.462-.245-.729.147-.267.464-.389.733-.243.318.17 31.775 15.725 41.667 7.121a.572.572 0 01.782.049c.195.218.171.559-.049.777-2.394 2.042-5.813 2.844-9.72 2.844zM80.75 372.178a.605.605 0 01-.415-.194c-.196-.219-.171-.559.049-.778l6.74-5.857a.572.572 0 01.782.048c.195.219.171.559-.049.778l-6.74 5.858a.478.478 0 01-.367.145z" fill="#1D424B"/><path d="M117.41 87.553c1.71-3.038 6.155-2.916 7.718.195 2.931 5.833 7.034 15.165 9.867 26.37 4.885 19.321 7.767 16.259 14.899 20.682 7.132 4.424 28.673 16.624 28.673 16.624l-16.901 2.868s-33.876 5.93-48.237-18.738c-10.258-17.621-1.71-37.89 3.981-48z" fill="#fff"/><path d="M152.727 155.483c-2.906 0-6.301-.195-9.891-.754-9.477-1.482-22.373-5.954-29.895-18.884-10.331-17.766-1.93-38.06 3.981-48.584.904-1.604 2.54-2.527 4.396-2.479 1.857.049 3.468 1.045 4.274 2.698 2.956 5.881 7.059 15.239 9.917 26.491 3.834 15.118 6.276 16.26 10.722 18.301 1.148.535 2.466 1.143 3.956 2.066 7.034 4.351 28.454 16.503 28.649 16.624.196.122.318.34.269.559-.049.219-.22.413-.44.438l-16.901 2.892c-.049 0-3.688.632-9.037.632zM117.899 87.82c-5.813 10.305-14.068 30.186-4.006 47.49 13.995 24.061 47.334 18.52 47.676 18.471l15.411-2.624c-4.811-2.747-21.322-12.152-27.379-15.895-1.416-.875-2.711-1.483-3.834-1.993-4.592-2.115-7.352-3.403-11.309-19.03-2.833-11.156-6.912-20.44-9.818-26.273-.635-1.288-1.881-2.066-3.322-2.09-1.416-.025-2.711.68-3.419 1.944z" fill="#1D424B"/><path d="M45.873 67.672s-16.609 12.42-23.374 28.874c-4.054 9.891 7.645 20.512 6.277 30.137-3.615 25.665-21.982 50.698-21.982 50.698s4.519-5.152 14.875 2.674c9.647 7.267 18.586 12.759 38.662 12.929 18.172.171 29.065-1.677 35.269-3.426 4.103-1.167 6.716-5.153 6.081-9.358-.928-6.076-2.052-15.554-1.832-24.547.293-12.638 9.037-36.213 9.037-36.213s23.007-3.062 24.912-18.593c0 0-14.288-32.932-39.664-37.89-20.516-4.01-20.614-5.08-48.261 4.715z" fill="#fff"/><path d="M62.579 193.543h-2.223c-20.345-.194-29.358-5.76-39.005-13.051-9.77-7.364-13.97-2.941-14.141-2.746a.57.57 0 01-.757.073.563.563 0 01-.098-.754c.17-.243 18.318-25.227 21.884-50.455.586-4.18-1.368-8.531-3.42-13.149-2.515-5.638-5.129-11.471-2.833-17.11 6.741-16.43 23.374-28.995 23.545-29.116l.146-.073c26.012-9.236 27.795-8.871 44.842-5.493 1.173.243 2.418.486 3.737.73 25.377 4.957 39.933 37.889 40.08 38.205a.615.615 0 01.049.292c-1.783 14.728-22.177 18.568-25.059 19.03-1.002 2.795-8.622 24.11-8.89 35.727-.22 8.871.879 18.204 1.831 24.45.684 4.448-2.1 8.725-6.472 9.965-5.715 1.628-16.022 3.475-33.216 3.475zM11.41 175.169c2.515 0 6.008.997 10.6 4.472 9.476 7.146 18.342 12.639 38.345 12.833 18.416.17 29.26-1.774 35.122-3.403 3.834-1.069 6.276-4.836 5.69-8.749-.952-6.319-2.051-15.7-1.832-24.644.293-12.566 8.988-36.141 9.086-36.384a.53.53 0 01.44-.34c.22-.024 22.47-3.184 24.424-17.985-1.026-2.285-15.241-32.762-39.225-37.453a254.55 254.55 0 00-3.737-.729c-16.755-3.33-18.538-3.694-44.183 5.42-1.148.875-16.706 12.978-23.13 28.606-2.148 5.225.367 10.84 2.81 16.259 2.027 4.545 4.152 9.26 3.517 13.732-3.004 21.242-16.193 42.241-20.614 48.827.708-.291 1.612-.462 2.687-.462z" fill="#1D424B"/><path d="M243.682 293.773l-64.284-149.421a1.517 1.517 0 00-1.392-.924h-40.812v9.041h35.879c.855 0 1.612.51 1.954 1.288l61.987 143.638 6.668-3.622z" fill="#fff"/><path d="M236.989 297.954c-.049 0-.122 0-.171-.025a.539.539 0 01-.317-.291L174.513 154a1.544 1.544 0 00-1.441-.948h-35.879a.54.54 0 01-.537-.534v-9.041a.54.54 0 01.537-.535h40.813c.83 0 1.563.486 1.905 1.239l64.283 149.422a.517.517 0 01-.244.681l-6.692 3.621a.89.89 0 01-.269.049zm-99.258-145.995h35.341c1.075 0 2.027.632 2.442 1.604l61.744 143.078 5.715-3.111-64.064-148.96a.952.952 0 00-.879-.583h-40.299v7.972z" fill="#1D424B"/><path d="M175.661 154.244h-36.293c-1.808 0-3.029-1.24-3.029-3.063v-6.732c0-1.798 1.221-3.305 3.029-3.305h36.318c1.807 0 4.176 3.621 4.176 5.444l-.903 4.472c0 1.823-1.466 3.184-3.298 3.184z" fill="#1D424B"/><path d="M175.661 154.778h-36.293c-2.101 0-3.591-1.482-3.591-3.597v-6.732c0-2.187 1.539-3.84 3.591-3.84h36.318c2.174 0 4.738 3.961 4.738 5.979v.097l-.904 4.423c-.048 2.066-1.734 3.67-3.859 3.67zm-36.293-13.075c-1.441 0-2.492 1.166-2.492 2.746v6.732c0 1.531.977 2.504 2.492 2.504h36.318c1.539 0 2.735-1.143 2.735-2.625v-.098l.88-4.423c-.049-1.628-2.272-4.836-3.64-4.836h-36.293z" fill="#fff"/><path d="M156.563 159.397c4.958 2.333 7.156 2.552 13.701 1.506 3.395-.559 5.129-4.423 3.2-7.266-2.076-3.038-6.082-5.542-11.455-7.705-6.35 3.281-5.178 8.458-5.446 13.465z" fill="#fff"/><path d="M164.451 162.021c-2.833 0-4.934-.656-8.109-2.138a.568.568 0 01-.317-.511c.049-.778.049-1.58.049-2.357.024-4.254.048-8.653 5.69-11.569a.614.614 0 01.464-.024c5.838 2.333 9.672 4.909 11.699 7.898a5.178 5.178 0 01.464 4.983 5.283 5.283 0 01-4.03 3.135c-2.442.365-4.298.583-5.91.583zm-7.327-2.965c4.567 2.115 6.741 2.309 13.042 1.288 1.417-.218 2.613-1.166 3.2-2.479a4.112 4.112 0 00-.367-3.937c-1.88-2.746-5.471-5.177-10.966-7.388-4.836 2.624-4.86 6.44-4.885 10.499.025.632 0 1.312-.024 2.017z" fill="#1D424B"/><path d="M148.16 252.335l5.91-3.645a15.503 15.503 0 0112.383-1.726l106.977 30.307 101.285 23.77c18.098 4.253 30.799 20.391 30.628 38.886-.074 6.392-.245 13.295-.416 20.392-.097 4.763-4.811 9.818-13.506 10.232l-126.882-3.209L148.16 252.335z" fill="#fff"/><path d="M391.445 371.11l-126.906-3.209a.438.438 0 01-.366-.17l-116.38-115.007a.508.508 0 01-.146-.437.659.659 0 01.244-.414l5.91-3.645a16.051 16.051 0 0112.823-1.774L273.6 276.761l101.262 23.769c8.865 2.09 16.852 7.17 22.469 14.291 5.618 7.146 8.671 16.065 8.573 25.131-.049 4.958-.171 10.159-.293 15.651l-.098 4.74c-.171 5.031-5.006 10.329-14.068 10.767zm-126.686-4.302l126.662 3.208c8.353-.389 12.847-5.177 12.945-9.698l.097-4.739c.122-5.493.244-10.694.293-15.652.171-18.374-12.236-34.147-30.188-38.352l-101.285-23.769-107.001-30.307a15.042 15.042 0 00-11.943 1.652l-5.325 3.281 115.745 114.376z" fill="#1D424B"/><path d="M257.335 355.87h-86.901c-15.435 0-28.087-12.225-28.087-27.585V274.67h70.78c24.375 0 44.232 19.468 44.232 43.723v37.477h-.024z" fill="#fff"/><path d="M257.334 356.405h-86.9c-15.802 0-28.649-12.613-28.649-28.119v-53.615a.54.54 0 01.538-.535h70.78c24.692 0 44.793 19.856 44.793 44.258v37.477a.546.546 0 01-.562.534zm-114.45-81.2v53.081c0 14.898 12.359 27.026 27.55 27.026h86.363v-36.943c0-23.818-19.588-43.164-43.694-43.164h-70.219z" fill="#1D424B"/><path d="M214.641 309.838l3.639 21.315 177.586.413c-1.612-19.297-24.204-28.095-43.963-29.724l-93.03-20.026-106.708-30.721c-2.858-.972-5.959.389-7.107 3.16l-4.568 14.607c-1.66 4.034-.317 6.513 3.762 8.117l65.431 25.763c2.931 1.118 4.958 3.986 4.958 7.096z" fill="#1D424B"/><path d="M393.4 321.821H266.347c-3.273 0-6.179-2.017-7.18-5.104l-3.981-12.371c-1.49-4.666-5.154-8.288-9.819-9.794l-101.652-32.908a1.744 1.744 0 00-2.222 1.191l-2.418 8.579a8.452 8.452 0 005.422 10.305l66.164 22.457c1.856.632 3.126 2.212 3.224 4.156l.659 13.489h-.195v40.247c0 4.861 4.127 8.799 9.012 8.799h165.814c4.909 0 8.914-3.938 8.963-8.823l.171-18.836c.074-7.558-1.709-14.849-4.909-21.387z" fill="#fff"/><path d="M389.174 371.401H223.361c-5.178 0-9.55-4.278-9.55-9.333v-40.247c0-.146.074-.292.171-.389l-.659-13.052c-.074-1.701-1.173-3.086-2.858-3.67l-66.164-22.457c-4.518-1.555-7.058-6.367-5.764-10.961l2.418-8.579a2.286 2.286 0 011.148-1.41c.562-.291 1.197-.364 1.783-.17l101.652 32.908a15.717 15.717 0 0110.16 10.159l3.981 12.371c.904 2.819 3.591 4.739 6.643 4.739H393.4c.22 0 .391.122.488.316 3.322 6.757 5.032 14.242 4.983 21.606l-.171 18.836c-.049 5.128-4.323 9.333-9.526 9.333zM214.91 322.234v39.834c0 4.472 3.884 8.239 8.475 8.239h165.814c4.592 0 8.377-3.718 8.426-8.287l.171-18.836c.073-7.097-1.563-14.291-4.714-20.829H266.371c-3.541 0-6.643-2.211-7.693-5.492l-3.981-12.371a14.73 14.73 0 00-9.477-9.455L143.568 262.13a1.224 1.224 0 00-.928.073 1.099 1.099 0 00-.586.729l-2.418 8.579c-1.148 4.035 1.075 8.263 5.056 9.649l66.164 22.457c2.1.705 3.493 2.503 3.59 4.642l.66 13.489a.659.659 0 01-.147.413c-.024.048-.049.048-.049.073z" fill="#1D424B"/><path d="M282.991 369.53c0 13.479-10.982 24.41-24.533 24.41-13.552 0-24.533-10.931-24.533-24.41 0-13.48 10.981-24.411 24.533-24.411 13.551 0 24.533 10.931 24.533 24.411z" fill="#fff" stroke="#1D424B" stroke-width=".905"/><path d="M276.166 372.009c1.222-9.872-5.83-18.859-15.75-20.075-9.921-1.215-18.953 5.802-20.174 15.674-1.222 9.871 5.83 18.859 15.75 20.075 9.921 1.215 18.953-5.802 20.174-15.674z" fill="#fff"/><path d="M258.458 379.348c-5.423 0-9.843-4.399-9.843-9.794 0-5.396 4.42-9.795 9.843-9.795 5.422 0 9.842 4.399 9.842 9.795 0 5.395-4.42 9.794-9.842 9.794zm0-18.519c-4.836 0-8.744 3.913-8.744 8.701 0 4.812 3.932 8.7 8.744 8.7 4.836 0 8.743-3.913 8.743-8.7 0-4.788-3.932-8.701-8.743-8.701z" fill="#1D424B"/><path d="M360.737 346.054c13.53.748 23.89 12.27 23.144 25.729-.746 13.46-12.317 23.768-25.848 23.02-13.531-.749-23.89-12.27-23.144-25.73.746-13.459 12.317-23.768 25.848-23.019z" fill="#fff" stroke="#1D424B" stroke-width=".905"/><path d="M377.154 372.184c.824-9.913-6.583-18.613-16.544-19.434-9.961-.82-18.705 6.551-19.529 16.463-.825 9.912 6.582 18.613 16.544 19.434 9.961.82 18.705-6.551 19.529-16.463z" fill="#fff"/><path d="M359.378 380.247c-5.422 0-9.843-4.399-9.843-9.794 0-5.396 4.421-9.795 9.843-9.795s9.843 4.399 9.843 9.795c0 5.395-4.421 9.794-9.843 9.794zm0-18.519c-4.836 0-8.744 3.913-8.744 8.7 0 4.813 3.933 8.701 8.744 8.701 4.836 0 8.744-3.913 8.744-8.701 0-4.787-3.932-8.7-8.744-8.7z" fill="#1D424B"/><path d="M223.947 297.322l-64.943-150.953c-.684-1.58-2.321-2.6-4.03-2.6l-39.201-.316v8.336h31.849c1.368 0 2.589.851 3.151 2.114l61.89 143.225c1.636 3.815 6.13 5.517 9.916 3.767 1.368-.632 1.978-2.212 1.368-3.573z" fill="#fff"/><path d="M219.478 302.134a8.21 8.21 0 01-2.833-.51c-2.028-.778-3.615-2.285-4.47-4.278l-61.914-143.248c-.464-1.069-1.515-1.774-2.638-1.774h-31.849a.54.54 0 01-.537-.535v-8.336c0-.146.049-.292.171-.389.098-.097.244-.146.391-.17l39.2.316c1.954.024 3.786 1.191 4.543 2.941l64.943 150.952a3.277 3.277 0 01-1.637 4.278 7.994 7.994 0 01-3.37.753zM116.336 151.23h31.311c1.563 0 3.004.948 3.639 2.431l61.89 143.224c.733 1.701 2.101 3.013 3.859 3.694a6.865 6.865 0 005.325-.195c1.099-.51 1.563-1.774 1.099-2.867l-64.943-150.929c-.586-1.361-2.003-2.26-3.542-2.285l-38.638-.291v7.218zm236.96 150.321c-.245-9.795-7.645-18.034-17.537-19.492l-45.795-6.757c-1.099-.17-2.1.462-2.491 1.434l-9.33 7.462 2.052 23.429 63.819 1.482 9.282-7.558z" fill="#1D424B"/><path d="M344.014 309.085h-61.035c-2.735 0-4.958-2.163-4.958-4.837v-19.176c0-1.385 1.246-2.43 2.638-2.236l45.794 6.757c9.917 1.458 17.317 9.673 17.561 19.492z" fill="#fff"/><path d="M344.015 309.62h-61.036c-3.028 0-5.495-2.406-5.495-5.396v-19.176c0-.802.366-1.579.977-2.114a2.9 2.9 0 012.296-.656l45.794 6.756c10.185 1.507 17.757 9.916 18.001 20.003a.548.548 0 01-.147.388.444.444 0 01-.39.195zm-63.698-26.273c-.415 0-.83.146-1.148.438a1.73 1.73 0 00-.586 1.288v19.176c0 2.382 1.978 4.302 4.396 4.302h60.474c-.489-9.309-7.572-17.013-17.048-18.399l-45.795-6.756c-.098-.049-.195-.049-.293-.049zM151.921 150.696a3.29 3.29 0 01-3.297 3.281h-36.147c-1.808 0-3.298-1.459-3.298-3.281v-6.538a3.291 3.291 0 013.298-3.281h36.147c1.807 0 3.297 1.458 3.297 3.281v6.538z" fill="#1D424B"/><path d="M148.648 154.511h-36.147a3.816 3.816 0 01-3.835-3.815v-6.538a3.816 3.816 0 013.835-3.816h36.147a3.815 3.815 0 013.834 3.816v6.538c0 2.09-1.734 3.815-3.834 3.815zm-36.147-13.075a2.724 2.724 0 00-2.736 2.722v6.538a2.725 2.725 0 002.736 2.722h36.147a2.725 2.725 0 002.735-2.722v-6.538a2.724 2.724 0 00-2.735-2.722h-36.147zm-52.756-35.849s-8.743 14.412 3.395 23.137l-47.187 16.065-.684-19.71c-.83-27.245 7.865-44.647 26.842-56.143 6.717-4.059 14.777 5.444 14.777 5.444l2.857 31.207z" fill="#fff"/><path d="M60.551 129.356a.524.524 0 01-.415-.194c-7.4-9.042-3.639-32.495-3.492-33.492a.552.552 0 01.635-.437c.293.049.513.34.464.632-.05.243-3.86 23.964 3.248 32.616a.565.565 0 01-.073.778.69.69 0 01-.367.097z" fill="#1D424B"/><path d="M56.13 131.422c1.32 3.281 3.127 5.712 4.446 7.316 4.054 5.031 11.308 6.125 20.907 7.17 14.141 1.555 21.493.413 30.31.097 11.577-.413 16.095-12.152 18.22-12.492 4.494-.73.659 11.155.659 11.155-.537.754-.049 1.774.171 2.576 3.175 5.615 16.315 8.58 18.098 7.024 1.979-1.725-1.319 6.319-12.358 7.656-8.426 1.021-13.238-4.107-16.486-4.35-2.369-.171-30.31 13.148-59.912 7.121-8.793-1.799-14.58-3.792-20.638-7.753-6.204-4.083-10.234-9.892-12.847-15.871l29.43-9.649z" fill="#fff"/><path d="M76.33 166.858c-5.252 0-10.698-.462-16.242-1.58-9.404-1.92-15.046-4.035-20.81-7.826-5.593-3.67-9.965-9.09-13.042-16.114-.073-.146-.049-.291 0-.437a.535.535 0 01.317-.292l29.407-9.697a.545.545 0 01.684.316c1.245 3.111 2.98 5.468 4.347 7.169 3.883 4.813 10.966 5.931 20.54 6.976 10.894 1.191 17.732.802 24.327.413 1.905-.122 3.883-.219 5.91-.292 7.962-.291 12.505-6.149 15.241-9.673 1.294-1.677 2.1-2.698 2.931-2.819 1.05-.17 1.685.267 2.027.656 2.027 2.333-.464 10.305-.757 11.204l-.074.146c-.293.389-.073 1.021.123 1.653.048.146.097.267.122.413 1.978 3.403 8.108 6.027 13.189 6.878 2.662.438 3.785.17 4.029-.048.171-.146.635-.559 1.124-.292.122.073.415.316.317.851-.293 1.458-4.225 6.95-13.359 8.044-5.74.681-9.868-1.385-12.872-2.892-1.465-.729-2.735-1.361-3.737-1.458-.366-.025-2.124.559-4.005 1.191-7.401 2.479-22.397 7.51-39.738 7.51zM27.456 141.46c2.956 6.538 7.132 11.617 12.407 15.093 5.642 3.718 11.187 5.784 20.443 7.68 23.594 4.788 45.868-2.698 55.394-5.882 2.759-.923 3.883-1.288 4.445-1.264 1.221.098 2.564.778 4.127 1.556 3.053 1.531 6.863 3.427 12.237 2.795 7.083-.851 10.819-4.521 12.016-6.319-1.099.291-2.784.146-4.152-.097-4.323-.73-11.626-3.306-13.995-7.462-.024-.048-.049-.073-.049-.121-.048-.146-.073-.268-.122-.438-.244-.778-.561-1.725-.024-2.552 1.026-3.184 2.149-8.676.952-10.086-.146-.17-.415-.389-1.025-.292-.416.073-1.344 1.264-2.223 2.431-2.833 3.67-7.596 9.794-16.071 10.086-2.003.073-3.981.194-5.886.292-6.668.388-13.555.802-24.522-.414-9.842-1.069-17.145-2.236-21.273-7.364-1.367-1.677-3.053-3.986-4.323-6.975l-28.356 9.333z" fill="#1D424B"/><path d="M15.953 145.324a.538.538 0 01-.317-.097c-.147-.097-.22-.267-.244-.438l-.684-19.71c-.88-28.8 8.572-47.83 28.063-56.556 4.2-1.871 8.255-3.257 10.966-4.18.855-.292 1.563-.535 2.125-.73a.573.573 0 01.708.317c.098.291-.049.607-.317.705-.587.218-1.295.461-2.15.753-2.662.9-6.692 2.284-10.868 4.132-19.05 8.53-28.283 27.22-27.428 55.535l.66 18.957 42.863-14.607a.529.529 0 01.684.34.525.525 0 01-.342.681L16.149 145.3c-.074.024-.123.024-.196.024z" fill="#1D424B"/><path d="M70.785 63.808l8.28-26.807 17.219 9.114-4.958 16.915c-.708 2.455.366 5.08 2.564 6.392l2.003 1.167c1.026.608.733 2.163-.44 2.358l-9.085 1.458a40.377 40.377 0 01-25.45-4.23c-1.123-.607-.928-2.235.293-2.575 3.737-.972 9.208-2.625 9.574-3.792z" fill="#fff"/><path d="M79.993 75.474a41.206 41.206 0 01-19.32-4.812 1.974 1.974 0 01-1.025-1.92 1.96 1.96 0 011.416-1.653c8.451-2.26 9.16-3.33 9.208-3.451l8.28-26.807a.55.55 0 01.317-.34c.147-.074.318-.05.465.024l17.218 9.114c.22.121.342.389.269.632l-4.958 16.915a5.062 5.062 0 002.32 5.76l2.003 1.167a1.795 1.795 0 01.855 1.896 1.813 1.813 0 01-1.49 1.458l-9.086 1.458a36.38 36.38 0 01-6.472.56zm-.586-37.671l-8.084 26.175c-.147.486-.513 1.629-9.965 4.156a.86.86 0 00-.635.73.834.834 0 00.44.85c7.644 4.059 16.559 5.541 25.107 4.18l9.086-1.458a.728.728 0 00.61-.583.68.68 0 00-.342-.754l-2.002-1.166c-2.418-1.434-3.59-4.302-2.81-7l4.837-16.502-16.242-8.628z" fill="#1D424B"/><path d="M117.972 18.87c-4.445-2.358-.855 4.933-15.436-7.68-5.813-5.031-5.984 4.326-7.498 3.013-5.593-4.812-5.861-5.76-9.379-6.392-2.32-.413-6.716 2.6-7.302 5.712-1.93 10.135.073 8.36-.782 17.572-.61 6.465.171 8.895 2.052 10.742 1.905 1.871 4.958-.389 7.18 1.483 2.882 2.43-.366 7.826 1.759 11.666 1.343 2.406 5.74 5.274 14.972 5.08a3.103 3.103 0 003.004-2.601c.293-1.896.684-4.278.83-6.611.782-11.034-1.612-14.728.733-16.6 3.59-2.892 9.721 2.528 12.285 0 2.687-2.625 3.664-12.176-2.418-15.384z" fill="#1D424B"/><path d="M94.648 27.79l.196 3.013a27.778 27.778 0 01-.025 4.278c-.195 2.673-.366 7.242-.464 9.819-.39 8.287 11.772 4.569 11.772 4.569l1.49-1.653 1.368.073c.269 0 .537-.024.781-.146.587-.316.88-.948.782-1.555-.562-3.354-1.563-10.743-.513-16.479 0 0-6.546-5.322-15.387-1.92z" fill="#fff"/><path d="M100.607 50.854c-1.783 0-3.64-.316-4.958-1.336-1.32-1.021-1.954-2.577-1.856-4.642.024-.705.073-1.58.097-2.504.098-2.406.22-5.395.367-7.34.097-1.385.097-2.795.024-4.18l-.195-3.014a.507.507 0 01.342-.534c9.036-3.476 15.655 1.774 15.924 1.993a.57.57 0 01.195.51c-1.05 5.736 0 13.319.513 16.308a1.986 1.986 0 01-1.074 2.114c-.294.146-.66.243-1.051.22l-1.123-.05-1.319 1.459a.508.508 0 01-.244.146c-.122.048-2.809.85-5.642.85zm-5.373-22.7l.17 2.625a28.762 28.762 0 01-.024 4.35c-.146 1.92-.269 4.91-.366 7.316-.05.924-.073 1.799-.098 2.503-.073 1.702.39 2.917 1.417 3.719 2.735 2.114 8.524.608 9.501.34l1.367-1.531a.487.487 0 01.44-.17l1.368.073c.195 0 .366-.024.488-.097a.913.913 0 00.489-.973c-.635-3.718-1.515-10.693-.562-16.332-1.221-.9-6.912-4.448-14.19-1.823z" fill="#1D424B"/><path d="M92.62 37.098s-.464-7.267-3.712-6.343c-3.249.899-2.54 8.87 3.712 6.343zM90.789 26.89c13.286.535 22.592 2.674 32.093 2.455 2.149-.049 4.249-.753 5.886-2.114.708-.584 1.27-1.216 1.685-1.896 1.294-2.188.049-5.007-2.442-5.566l-14.557-3.33L90.789 26.89z" fill="#fff"/><path d="M121.367 29.904c-4.641 0-9.232-.51-14.459-1.094-4.714-.534-10.063-1.118-16.169-1.36a.544.544 0 01-.513-.438.555.555 0 01.318-.608l22.69-10.475a.588.588 0 01.342-.049l14.556 3.354a4.345 4.345 0 013.029 2.528c.537 1.264.464 2.673-.244 3.864a7.849 7.849 0 01-1.808 2.042c-1.709 1.385-3.908 2.187-6.228 2.236h-1.514zm-28.332-3.451c5.203.291 9.867.802 14.02 1.264 5.764.631 10.722 1.19 15.826 1.069 2.076-.049 4.055-.754 5.569-1.993a6.976 6.976 0 001.563-1.75 3.13 3.13 0 00.171-2.868 3.247 3.247 0 00-2.272-1.896L113.551 17l-20.516 9.454z" fill="#1D424B"/><path d="M82.63 26.842c-3.883-.462-6.643-2.844-6.594-5.639.098-6.1 2.37-14.63 7.279-17.474 5.47-3.136 15.289-3.84 20.882-2.504 6.082 1.434 10.111 8.871 10.746 16.017.562 6.343-15.411 11.641-32.312 9.6z" fill="#fff"/><path d="M89.982 27.838a63.38 63.38 0 01-7.424-.438c-4.153-.51-7.132-3.11-7.083-6.197.122-6.61 2.515-15.044 7.571-17.936C88.663.034 98.579-.671 104.319.69c6.497 1.531 10.551 9.479 11.162 16.503.122 1.507-.513 2.965-1.93 4.326-4.054 3.913-13.482 6.319-23.569 6.319zm-7.302-1.531c13.53 1.628 25.938-1.556 30.09-5.59 1.172-1.118 1.709-2.285 1.612-3.451-.586-6.66-4.323-14.121-10.332-15.555-5.422-1.288-15.167-.583-20.467 2.48-4.445 2.551-6.912 10.498-7.01 17.012-.048 2.528 2.54 4.666 6.107 5.104z" fill="#1D424B"/></svg>