<svg width="56" height="56" fill="none" xmlns="http://www.w3.org/2000/svg"><g clip-path="url(#clip0_175_641)"><path d="M2 30c0 13.255 11.64 24 26 24s26-10.745 26-24m0-4C54 12.745 42.36 2 28 2S2 12.745 2 26" stroke="#9D94D7" stroke-width="4" stroke-miterlimit="1.305"/><path d="M28 14c-4.206 0-7.636 3.419-7.636 7.609 0 2.586 1.32 4.874 3.306 6.25C19.192 29.6 16 33.948 16 39h2.182c0-4.78 3.48-8.776 8.045-9.613l.682 2.004h2.182l.682-2.004c4.564.837 8.045 4.833 8.045 9.613H40c0-5.052-3.192-9.4-7.67-11.141 1.985-1.376 3.306-3.664 3.306-6.25 0-4.19-3.43-7.609-7.636-7.609zm0 2.174a5.429 5.429 0 015.455 5.435A5.429 5.429 0 0128 27.043a5.429 5.429 0 01-5.454-5.434A5.429 5.429 0 0128 16.174zm-1.09 16.304L25.817 39h4.364l-1.091-6.522h-2.182z" fill="#9D94D7"/></g><defs><clipPath id="clip0_175_641"><path fill="#fff" d="M0 0h56v56H0z"/></clipPath></defs></svg>