<svg width="56" height="56" fill="none" xmlns="http://www.w3.org/2000/svg"><circle cx="28" cy="28" r="28" fill="#9BBBE2"/><g clip-path="url(#clip0_279_6241)"><path d="M28 40.25c7.731 0 14-5.484 14-12.25 0-6.765-6.269-12.25-14-12.25-7.732 0-14 5.485-14 12.25 0 3.08 1.3 5.898 3.448 8.05-.17 1.778-.73 3.728-1.35 5.19-.138.326.13.69.478.634 3.948-.648 6.295-1.642 7.315-2.16 1.34.358 2.722.538 4.109.536z" fill="#fff"/></g><defs><clipPath id="clip0_279_6241"><path fill="#fff" transform="translate(14 14)" d="M0 0h28v28H0z"/></clipPath></defs></svg>