<svg width="56" height="56" fill="none" xmlns="http://www.w3.org/2000/svg"><g clip-path="url(#clip0_544_3523)"><path d="M2 30c0 13.255 11.64 24 26 24s26-10.745 26-24m0-4C54 12.745 42.36 2 28 2S2 12.745 2 26" stroke="#1D424B" stroke-width="4" stroke-miterlimit="1.305"/><path d="M26 35h3v3h-3v-3zm2-17c5.35.22 7.68 5.62 4.5 9.67-.83 1-2.17 1.66-2.83 2.5C29 31 29 32 29 33h-3c0-1.67 0-3.08.67-4.08.66-1 2-1.59 2.83-2.25 2.42-2.24 1.82-5.41-1.5-5.67a3 3 0 00-3 3h-3a6 6 0 016-6z" fill="#1D424B"/></g><defs><clipPath id="clip0_544_3523"><path fill="#fff" d="M0 0h56v56H0z"/></clipPath></defs></svg>