<svg width="12" height="24" fill="none" xmlns="http://www.w3.org/2000/svg"><path d="M5.158 16.267c.005-1.167.207-2.162.607-2.987.399-.825 1.18-1.75 2.34-2.776.857-.772 1.5-1.533 1.927-2.284a4.894 4.894 0 00.64-2.463c0-1.289-.435-2.355-1.308-3.2-.872-.844-2.06-1.266-3.561-1.266-1.209 0-2.17.27-2.882.809A6.427 6.427 0 001.17 4.152L0 3.562C.592 2.449 1.358 1.577 2.296.946 3.235.315 4.404 0 5.803 0c1.974 0 3.5.57 4.579 1.71C11.461 2.852 12 4.19 12 5.726a6.16 6.16 0 01-.652 2.803c-.434.866-1.061 1.671-1.88 2.416-1.264 1.122-2.06 2.038-2.385 2.75-.326.71-.492 1.568-.497 2.573H5.158zM5.803 24c-.33 0-.615-.121-.855-.364s-.361-.53-.361-.863c0-.332.12-.62.36-.862.241-.243.526-.364.856-.364.33 0 .615.121.855.364.24.242.361.53.361.862 0 .333-.12.62-.36.863a1.164 1.164 0 01-.856.364z" fill="#1D424B"/></svg>