<svg width="112" height="116" fill="none" xmlns="http://www.w3.org/2000/svg"><path d="M72.577 116c-1.32 0-2.474-.483-3.464-1.45-.99-.967-1.484-2.094-1.484-3.383 0-1.397.495-2.551 1.484-3.464.99-.913 2.145-1.37 3.464-1.37 6.488 0 11.96-1.289 16.413-3.866 4.453-2.578 6.68-5.585 6.68-9.022 0-2.47-1.622-4.888-4.866-7.25-3.244-2.363-7.615-4.19-13.113-5.478l7.752-7.573c6.928 2.041 12.014 4.86 15.258 8.459 3.244 3.598 4.866 7.545 4.866 11.842 0 7.196-3.354 12.754-10.062 16.674C88.797 114.04 81.155 116 72.577 116zM19.794 68.633c-7.038-1.503-12.096-3.866-15.175-7.089C1.539 58.322 0 54.993 0 51.556c0-3.76 1.43-7.143 4.289-10.15 2.859-3.008 9.457-6.337 19.794-9.99 7.257-2.577 11.93-4.672 14.02-6.283 2.09-1.61 3.134-3.49 3.134-5.639 0-2.685-1.21-4.994-3.629-6.927-2.419-1.934-6.158-2.9-11.216-2.9-2.97 0-5.498.376-7.588 1.127-2.09.752-3.959 1.934-5.608 3.545-.88.86-2.007 1.37-3.382 1.53-1.374.162-2.611-.188-3.71-1.047-1.21-.859-1.843-1.933-1.898-3.222-.055-1.289.358-2.417 1.237-3.383 1.87-2.363 4.674-4.323 8.413-5.88C17.595.778 21.773 0 26.392 0c7.477 0 13.47 1.745 17.98 5.236 4.508 3.49 6.762 8.244 6.762 14.258 0 4.404-1.567 8.137-4.701 11.198-3.134 3.06-9.265 6.256-18.392 9.586-7.367 2.685-12.233 4.806-14.598 6.364-2.364 1.557-3.546 3.195-3.546 4.914 0 1.718 1.484 3.356 4.454 4.913 2.969 1.558 7.422 3.035 13.36 4.431l-7.917 7.733zm81.814-24.81L80.495 23.2l7.422-7.25c1.98-1.933 4.18-2.9 6.599-2.9 2.419 0 4.618.967 6.597 2.9l7.918 7.733c1.979 1.934 2.969 4.082 2.969 6.445 0 2.363-.99 4.51-2.969 6.444l-7.423 7.25zm-85.113 62.51h6.928L80.33 50.75l-6.928-6.767-56.907 55.584v6.766zM6.598 116V95.378l66.804-65.25L94.516 50.75 27.71 116H6.598z" fill="#B7CFB7"/></svg>