<svg width="124" height="116" fill="none" xmlns="http://www.w3.org/2000/svg"><path d="M94.258 116h-65.7V41.76L69.695 0l5.77 4.495c.592.483 1.036 1.16 1.332 2.03.296.87.444 1.933.444 3.19v1.45L70.582 41.76h44.244c2.367 0 4.439.87 6.215 2.61 1.775 1.74 2.663 3.77 2.663 6.09v11.867c0 .692.074 1.4.222 2.126a3.42 3.42 0 01-.222 2.102l-18.644 42.05c-.876 2.054-2.336 3.8-4.38 5.238-2.043 1.438-4.184 2.157-6.422 2.157zm-56.821-8.7H96.18l18.645-43.355V50.46H59.633l7.842-36.105-30.038 31.03V107.3zm-8.878-65.54v8.7H8.878v56.84h19.68v8.7H0V41.76h28.558z" fill="#CCAACB"/></svg>