<svg width="140" height="130" fill="none" xmlns="http://www.w3.org/2000/svg"><path d="M69.204 120.238c.53 0 1.14-.136 1.83-.407.69-.271 1.246-.624 1.67-1.058l53.614-54.993a13.943 13.943 0 003.102-4.827c.69-1.808 1.035-3.616 1.035-5.424 0-1.844-.345-3.688-1.035-5.532a13.831 13.831 0 00-3.102-4.88L97.682 13.83a13.472 13.472 0 00-4.773-3.173C91.106 9.952 89.303 9.6 87.5 9.6c-1.768 0-3.535.352-5.303 1.057-1.768.705-3.34 1.763-4.72 3.173l-2.863 2.928L87.5 30.1c1.379 1.519 2.599 3.281 3.66 5.288 1.06 2.007 1.59 4.203 1.59 6.59 0 4.121-1.564 7.755-4.693 10.9-3.129 3.146-6.709 4.719-10.739 4.719-2.651 0-4.852-.407-6.602-1.22-1.75-.814-3.35-1.971-4.802-3.473L54.25 41.002l-28.796 29.45c-.53.542-.901 1.113-1.113 1.712a5.735 5.735 0 00-.318 1.927c0 1.37.45 2.516 1.352 3.438.901.922 2.024 1.383 3.367 1.383.672 0 1.3-.163 1.883-.488a6.577 6.577 0 001.511-1.139l21.955-22.453 6.682 6.834-21.796 22.29c-.53.542-.901 1.139-1.113 1.79a6.269 6.269 0 00-.319 1.952c0 1.302.478 2.44 1.432 3.417.955.976 2.069 1.464 3.341 1.464a4.28 4.28 0 001.83-.407 5.092 5.092 0 001.511-1.057L67.614 68.66l6.681 6.833L52.5 97.784c-.424.435-.769.995-1.034 1.682a5.69 5.69 0 00-.398 2.061c0 1.302.477 2.44 1.432 3.417.955.976 2.068 1.464 3.34 1.464.637 0 1.22-.108 1.75-.325.531-.217 1.061-.597 1.592-1.139l21.954-22.453 6.682 6.833-21.954 22.453c-.53.543-.902 1.139-1.114 1.79-.212.651-.318 1.247-.318 1.79 0 1.518.424 2.711 1.272 3.579.849.868 2.016 1.302 3.5 1.302zm.01 9.762c-3.506 0-6.638-1.329-9.396-3.986-2.757-2.658-4.401-5.945-4.932-9.863-3.606-.53-6.628-2.042-9.068-4.536-2.44-2.495-3.924-5.587-4.454-9.275-3.606-.542-6.603-2.088-8.989-4.637-2.386-2.549-3.845-5.613-4.375-9.192-3.924-.543-7.16-2.17-9.704-4.882-2.546-2.711-3.819-5.965-3.819-9.762 0-1.844.357-3.69 1.07-5.54a14.633 14.633 0 013.067-4.873L54.25 27.01l17.5 17.897c.849.868 1.768 1.546 2.757 2.034.99.488 1.98.732 2.97.732 1.38 0 2.678-.624 3.898-1.871 1.22-1.247 1.83-2.584 1.83-4.011 0-.634-.186-1.358-.557-2.172-.371-.813-.981-1.654-1.83-2.522L58.068 13.83a13.472 13.472 0 00-4.773-3.173C51.492 9.952 49.69 9.6 47.886 9.6c-1.767 0-3.535.352-5.303 1.057a13.646 13.646 0 00-4.71 3.15L13.682 38.56c-1.485 1.518-2.52 3.118-3.103 4.8-.583 1.68-.927 3.579-1.034 5.694-.106 2.115.292 4.176 1.194 6.183A26.287 26.287 0 0014 60.688l-6.84 6.997c-2.122-2.387-3.846-5.261-5.171-8.624C.663 55.7 0 52.282 0 48.811c0-3.254.61-6.373 1.83-9.355A24.366 24.366 0 017 31.564L31.023 6.996c2.333-2.386 4.974-4.149 7.921-5.288A24.961 24.961 0 0148.013 0c3.097 0 6.104.57 9.021 1.708 2.917 1.14 5.542 2.902 7.875 5.288l2.864 2.929 2.863-2.929c2.334-2.386 4.974-4.149 7.922-5.288A24.961 24.961 0 0187.626 0c3.098 0 6.105.57 9.022 1.708 2.916 1.14 5.541 2.902 7.875 5.288L133 36.12c2.333 2.387 4.083 5.1 5.25 8.14 1.167 3.041 1.75 6.133 1.75 9.275 0 3.142-.583 6.204-1.75 9.187-1.167 2.983-2.917 5.668-5.25 8.054l-53.614 54.831a14.686 14.686 0 01-4.698 3.254A13.64 13.64 0 0169.215 130z" fill="#9BBBE2"/></svg>